<svg width="1249" height="575" viewBox="0 0 1249 575" fill="none" xmlns="http://www.w3.org/2000/svg">
<path opacity="0.6" d="M0.756346 211.695L0.75635 296.201C-6.27581 410.44 36.4976 443.303 96.9827 487.121C145.371 522.175 271.107 544.501 327.926 551.282C466.309 566.41 794.211 589.779 998.761 562.236C1203.31 534.694 1250.78 426.61 1248.95 376.011C1246.2 340.54 1240.15 264.276 1237.95 242.994C1235.2 216.39 1196.71 131.884 1026.25 58.3334C889.888 -0.507485 612.023 -3.7416 490.136 1.99638C448.896 4.08299 330.125 17.9585 184.961 56.7685C39.7967 95.5784 1.67279 176.224 0.756346 211.695Z" fill="#8D89D9"/>
</svg>
