<svg width="1251" height="577" viewBox="0 0 1251 577" fill="none" xmlns="http://www.w3.org/2000/svg">
<path opacity="0.6" d="M1.75635 212.695L1.75635 297.201C-5.27581 411.44 37.4976 444.303 97.9827 488.121C146.371 523.175 272.107 545.501 328.926 552.282C467.309 567.41 795.211 590.779 999.761 563.236C1204.31 535.694 1251.78 427.61 1249.95 377.011C1247.2 341.54 1241.15 265.276 1238.95 243.994C1236.2 217.39 1197.71 132.884 1027.25 59.3334C890.888 0.492515 613.023 -2.7416 491.136 2.99638C449.896 5.08299 331.125 18.9585 185.961 57.7685C40.7967 96.5784 2.67279 177.224 1.75635 212.695Z" stroke="black" stroke-dasharray="8 8"/>
</svg>
