<svg width="155" height="152" viewBox="0 0 155 152" fill="none" xmlns="http://www.w3.org/2000/svg">
<path d="M88.8643 2.01173C69.8026 1.57632 70.5853 13.3751 60.5005 18.3213C48.5348 24.1899 27.4052 10.3284 16.437 27.9842C6.25053 44.3817 22.3857 51.9871 19.5005 64.3294C15.73 80.4588 -2.42965 77.5495 2.50057 95.9771C7.50907 114.697 18.1026 106.919 28.5005 116.321C39.9994 126.719 23.0579 139.28 39.5005 146.321C54.9436 152.935 61.0686 134.063 74.0005 133.321C87.6839 132.536 87.3754 155.325 105.546 149.4C124.048 143.367 115.553 131.201 127.5 121.321C138.995 111.816 148.18 117.302 152.001 99.5668C155.53 83.1849 142.828 87.7003 144 74.3213C145.048 62.3726 153.86 60.527 148.2 45.5103C142.293 29.8394 128.861 34.4112 118.004 27.9842C108.338 22.2623 108.679 2.46435 88.8643 2.01173Z" stroke="#F65B35" stroke-width="3"/>
</svg>
