<svg width="155" height="152" viewBox="0 0 155 152" fill="none" xmlns="http://www.w3.org/2000/svg">
<path d="M89.2061 2.01173C70.1444 1.57632 70.9271 13.3751 60.8423 18.3213C48.8766 24.1899 27.747 10.3284 16.7788 27.9842C6.59233 44.3817 22.7275 51.9871 19.8423 64.3294C16.0718 80.4588 -2.08785 77.5495 2.84237 95.9771C7.85087 114.697 18.4444 106.919 28.8423 116.321C40.3412 126.719 23.3997 139.28 39.8423 146.321C55.2854 152.935 61.4104 134.063 74.3423 133.321C88.0257 132.536 87.7172 155.325 105.888 149.4C124.39 143.367 115.895 131.201 127.842 121.321C139.337 111.816 148.522 117.302 152.342 99.5668C155.872 83.1849 143.17 87.7003 144.342 74.3213C145.389 62.3726 154.202 60.527 148.542 45.5103C142.635 29.8394 129.203 34.4112 118.346 27.9842C108.68 22.2623 109.021 2.46435 89.2061 2.01173Z" stroke="white" stroke-width="3"/>
</svg>
