<svg width="949" height="249" viewBox="0 0 949 249" fill="none" xmlns="http://www.w3.org/2000/svg">
<path d="M-103.114 108.922C-113.259 76.1041 -148.598 64.5644 -165 62.8968V249H1755V78.9057C1741.3 47.8885 1700.22 58.3944 1697.68 63.3971C1677.39 50.9903 1662.51 66.232 1657.61 75.4038C1647.46 62.8969 1645.43 76.9046 1630.72 82.908C1603.83 29.8786 1545.5 81.9074 1529.27 100.418C1515.88 82.8079 1488.85 91.7462 1477.02 98.4165C1470.09 85.7429 1441 57.794 1380.13 47.3883C1319.26 36.9825 1278 66.0653 1264.98 81.9074C1267.18 70.2343 1263.97 44.1865 1233.53 33.3805C1195.49 19.873 1156.43 42.3855 1153.89 46.888C1151.35 38.8836 1129.54 36.3822 1125.48 36.3822C1113.31 12.7691 1084.9 3.19709 1072.22 1.36273C1063.77 -1.13865 1036.91 -1.9391 997.145 14.8702C947.433 35.8819 955.042 83.4082 954.535 88.411C912.939 73.4027 892.649 103.92 886.561 110.423C861.198 86.9101 810.472 106.921 805.906 110.423C807.428 95.4149 787.645 90.4121 777.499 88.411C781.152 72.4021 777.33 57.0603 774.963 51.3905C774.456 49.7229 770.905 43.4861 760.76 31.8796C750.614 20.2732 726.435 23.0414 715.613 25.8763C715.444 20.54 709.526 10.5678 687.206 13.3694C659.307 16.8713 653.219 49.8896 655.248 62.8968C644.596 61.8963 634.45 73.4026 630.9 76.4043C626.842 49.5895 605.875 39.217 595.898 37.3827C583.893 35.048 553.389 35.5817 527.417 56.3932C501.445 77.2047 506.112 107.421 511.692 119.928C492.923 116.927 484.3 126.932 481.256 131.435C473.546 117.827 452.004 121.763 442.197 125.431C440.675 115.759 428.805 99.5171 393.499 111.924C349.367 127.433 355.962 165.454 357.991 173.458C351.904 162.652 327.047 163.619 315.38 165.454C264.654 174.959 247.407 213.981 245.378 217.482C243.755 205.076 227.793 184.631 220.015 175.959C212.913 166.621 187.854 147.344 144.432 144.942C90.1547 141.941 52.6169 168.956 50.5879 170.957C43.2833 167.355 33.3408 175.126 29.2827 179.461C23.0265 174.625 3.10779 166.154 -26.5165 170.957C-63.5469 176.96 -68.6195 221.485 -69.634 226.988C-73.16 206.123 -101.195 215.35 -104.568 216.46L-104.635 216.482C-97.7366 197.672 -113.259 192.302 -121.882 191.968C-111.399 177.961 -92.9683 141.741 -103.114 108.922Z" fill="#FFE1DB"/>
</svg>
