<svg width="948" height="239" viewBox="0 0 948 239" fill="none" xmlns="http://www.w3.org/2000/svg">
<path d="M997.114 108.922C1007.26 76.1041 1042.6 64.5644 1059 62.8968V249H-861V78.9057C-847.304 47.8885 -806.215 58.3944 -803.679 63.3971C-783.388 50.9903 -768.509 66.232 -763.605 75.4038C-753.46 62.8969 -751.431 76.9046 -736.72 82.908C-709.835 29.8786 -651.499 81.9074 -635.267 100.418C-621.875 82.8079 -594.855 91.7462 -583.018 98.4165C-576.086 85.7429 -547.003 57.794 -486.131 47.3883C-425.259 36.9825 -384.001 66.0653 -370.982 81.9074C-373.18 70.2343 -369.967 44.1865 -339.531 33.3805C-301.486 19.873 -262.427 42.3855 -259.89 46.888C-257.354 38.8836 -235.542 36.3822 -231.484 36.3822C-219.309 12.7691 -190.902 3.19709 -178.221 1.36273C-169.766 -1.13865 -142.915 -1.9391 -103.145 14.8702C-53.4333 35.8819 -61.0423 83.4082 -60.535 88.411C-18.9393 73.4027 1.35138 103.92 7.43854 110.423C32.8018 86.9101 83.5284 106.921 88.0938 110.423C86.572 95.4149 106.355 90.4121 116.501 88.411C112.848 72.4021 116.67 57.0603 119.037 51.3905C119.544 49.7229 123.095 43.4861 133.24 31.8796C143.386 20.2732 167.565 23.0414 178.387 25.8763C178.556 20.54 184.474 10.5678 206.794 13.3694C234.693 16.8713 240.781 49.8896 238.752 62.8968C249.404 61.8963 259.55 73.4026 263.1 76.4043C267.158 49.5895 288.125 39.217 298.102 37.3827C310.107 35.048 340.611 35.5817 366.583 56.3932C392.555 77.2047 387.888 107.421 382.308 119.928C401.077 116.927 409.7 126.932 412.744 131.435C420.454 117.827 441.996 121.763 451.803 125.431C453.325 115.759 465.195 99.5171 500.501 111.924C544.633 127.433 538.038 165.454 536.009 173.458C542.096 162.652 566.953 163.619 578.62 165.454C629.346 174.959 646.593 213.981 648.622 217.482C650.245 205.076 666.207 184.631 673.985 175.959C681.087 166.621 706.146 147.344 749.568 144.942C803.845 141.941 841.383 168.956 843.412 170.957C850.717 167.355 860.659 175.126 864.717 179.461C870.974 174.625 890.892 166.154 920.516 170.957C957.547 176.96 962.62 221.485 963.634 226.988C967.16 206.123 995.195 215.35 998.568 216.46L998.635 216.482C991.737 197.672 1007.26 192.302 1015.88 191.968C1005.4 177.961 986.968 141.741 997.114 108.922Z" fill="#FFE1DB"/>
</svg>
