<svg width="1920" height="249" viewBox="0 0 1920 249" fill="none" xmlns="http://www.w3.org/2000/svg">
<path d="M2019.96 140.078C2031.93 172.896 2073.64 184.436 2093 186.103V-1.52588e-05H-173V170.094C-156.836 201.111 -108.343 190.606 -105.349 185.603C-81.4021 198.01 -63.8409 182.768 -58.0536 173.596C-46.08 186.103 -43.6853 172.095 -26.3236 166.092C5.40634 219.121 74.2544 167.093 93.4122 148.582C109.217 166.192 141.107 157.254 155.076 150.583C163.258 163.257 197.582 191.206 269.424 201.612C341.265 212.018 389.958 182.935 405.324 167.093C402.73 178.766 406.521 204.814 442.442 215.619C487.343 229.127 533.441 206.615 536.435 202.112C539.428 210.116 565.171 212.618 569.961 212.618C584.329 236.231 617.855 245.803 632.822 247.637C642.8 250.139 674.49 250.939 721.426 234.13C780.097 213.118 771.117 165.592 771.715 160.589C820.807 175.597 844.754 145.08 851.938 138.577C881.872 162.09 941.74 142.079 947.128 138.577C945.332 153.585 968.681 158.588 980.654 160.589C976.344 176.598 980.854 191.94 983.648 197.61C984.246 199.277 988.437 205.514 1000.41 217.12C1012.38 228.727 1040.92 225.959 1053.69 223.124C1053.89 228.46 1060.88 238.432 1087.22 235.631C1120.15 232.129 1127.33 199.11 1124.94 186.103C1137.51 187.104 1149.48 175.597 1153.67 172.596C1158.46 199.411 1183.21 209.783 1194.98 211.617C1209.15 213.952 1245.15 213.418 1275.8 192.607C1306.46 171.795 1300.95 141.579 1294.36 129.072C1316.51 132.073 1326.69 122.068 1330.28 117.565C1339.38 131.173 1364.81 127.237 1376.38 123.569C1378.18 133.241 1392.19 149.483 1433.85 137.076C1485.94 121.567 1478.16 83.5463 1475.76 75.5419C1482.95 86.3479 1512.28 85.3807 1526.05 83.5463C1585.92 74.0411 1606.27 35.0194 1608.67 31.5175C1610.58 43.9244 1629.42 64.369 1638.6 73.0405C1646.98 82.379 1676.56 101.656 1727.81 104.058C1791.86 107.059 1836.17 80.0444 1838.56 78.0433C1847.18 81.6453 1858.92 73.8743 1863.71 69.5386C1871.09 74.3746 1894.6 82.8459 1929.56 78.0433C1973.26 72.04 1979.25 27.5153 1980.45 22.0122C1984.61 42.8768 2017.7 33.6502 2021.68 32.5403L2021.76 32.5181C2013.62 51.3285 2031.93 56.6981 2042.11 57.0316C2029.74 71.0394 2007.99 107.259 2019.96 140.078Z" fill="#FFE1DB"/>
</svg>
