<svg width="1920" height="112" viewBox="0 0 1920 112" fill="none" xmlns="http://www.w3.org/2000/svg">
<path d="M-256.414 0.020607C-322.495 0.020607 -334 112 -334 112H2122C2122 112 2111.93 0.020607 2048.65 0.020607C2009.24 0.020607 2000.56 43.9449 1961.15 44.3016C1922.86 44.3016 1905.5 -0.636742 1858.81 0.020607C1819.41 0.575401 1810.72 43.9449 1771.31 44.3016C1734.18 44.3016 1716.22 -0.627571 1670.19 0.020607C1630.78 0.575401 1622.09 43.9449 1582.69 44.3016C1542.56 44.6648 1533.17 -1.10993 1493.06 0.020607C1455.1 1.09068 1447.76 43.088 1409.8 44.3016C1369.39 45.5936 1359.71 -0.49826 1319.27 0.020607C1279.87 0.52626 1271.18 44.3016 1231.77 44.3016C1192.36 44.3016 1189.21 0.020607 1149.8 0.020607C1110.39 0.020607 1112.37 44.3016 1068.31 44.3016C1024.24 44.3016 1031.65 0.020607 992.245 0.020607C952.836 0.020607 951.089 43.9449 911.684 44.3016C873.393 44.3016 856.032 -0.636742 809.347 0.020607C769.944 0.575401 761.25 43.9449 721.845 44.3016C684.714 44.3016 666.753 -0.627571 620.719 0.020607C581.317 0.575401 572.623 43.9449 533.218 44.3016C493.093 44.6648 483.703 -1.10993 443.597 0.020607C405.635 1.09068 398.29 43.088 360.334 44.3016C319.924 45.5936 310.238 -0.49826 269.805 0.020607C230.402 0.52626 221.711 44.3016 182.304 44.3016C142.896 44.3016 134.21 0.020607 94.8023 0.020607C55.3949 0.020607 46.7076 44.0962 7.3009 44.3016C-32.5166 44.5091 -41.5963 -0.398842 -81.4116 0.020607C-120.407 0.431412 -128.707 43.8908 -167.702 44.3016C-207.517 44.721 -216.538 0.020607 -256.414 0.020607Z" fill="#FFE1DB"/>
</svg>
