<svg width="66" height="64" viewBox="0 0 66 64" fill="none" xmlns="http://www.w3.org/2000/svg">
<path d="M11.2224 0.921111C8.96324 -0.908268 6.38663 0.370945 3.65128 1.46084C2.25083 2.01885 1.32182 2.30857 0.355031 3.42351C-2.002 6.14173 8.08366 0.31586 9.83175 3.42351C11.1384 5.74646 5.46981 9.92482 8.23513 9.99844C9.31055 10.0271 9.93398 9.66069 10.8103 9.06617C13.5332 7.21896 13.7693 2.98357 11.2224 0.921111Z" fill="#ED1566"/>
<path d="M34.2224 0.921111C31.9632 -0.908268 29.3866 0.370945 26.6513 1.46084C25.2508 2.01885 24.3218 2.30857 23.355 3.42351C20.998 6.14173 31.0837 0.31586 32.8318 3.42351C34.1384 5.74646 28.4698 9.92482 31.2351 9.99844C32.3106 10.0271 32.934 9.66069 33.8103 9.06617C36.5332 7.21896 36.7693 2.98357 34.2224 0.921111Z" fill="#ED1566"/>
<path d="M57.2224 0.921111C54.9632 -0.908268 52.3866 0.370945 49.6513 1.46084C48.2508 2.01885 47.3218 2.30857 46.355 3.42351C43.998 6.14173 54.0837 0.31586 55.8318 3.42351C57.1384 5.74646 51.4698 9.92482 54.2351 9.99844C55.3106 10.0271 55.934 9.66069 56.8103 9.06617C59.5332 7.21896 59.7693 2.98357 57.2224 0.921111Z" fill="#ED1566"/>
<path d="M64.2224 18.9211C61.9632 17.0917 59.3866 18.3709 56.6513 19.4608C55.2508 20.0189 54.3218 20.3086 53.355 21.4235C50.998 24.1417 61.0837 18.3159 62.8318 21.4235C64.1384 23.7465 58.4698 27.9248 61.2351 27.9984C62.3106 28.0271 62.934 27.6607 63.8103 27.0662C66.5332 25.219 66.7693 20.9836 64.2224 18.9211Z" fill="#ED1566"/>
<path d="M44.2224 18.9211C41.9632 17.0917 39.3866 18.3709 36.6513 19.4608C35.2508 20.0189 34.3218 20.3086 33.355 21.4235C30.998 24.1417 41.0837 18.3159 42.8318 21.4235C44.1384 23.7465 38.4698 27.9248 41.2351 27.9984C42.3106 28.0271 42.934 27.6607 43.8103 27.0662C46.5332 25.219 46.7693 20.9836 44.2224 18.9211Z" fill="#ED1566"/>
<path d="M21.2224 18.9211C18.9632 17.0917 16.3866 18.3709 13.6513 19.4608C12.2508 20.0189 11.3218 20.3086 10.355 21.4235C7.998 24.1417 18.0837 18.3159 19.8318 21.4235C21.1384 23.7465 15.4698 27.9248 18.2351 27.9984C19.3106 28.0271 19.934 27.6607 20.8103 27.0662C23.5332 25.219 23.7693 20.9836 21.2224 18.9211Z" fill="#ED1566"/>
<path d="M64.2224 36.9211C61.9632 35.0917 59.3866 36.3709 56.6513 37.4608C55.2508 38.0189 54.3218 38.3086 53.355 39.4235C50.998 42.1417 61.0837 36.3159 62.8318 39.4235C64.1384 41.7465 58.4698 45.9248 61.2351 45.9984C62.3106 46.0271 62.934 45.6607 63.8103 45.0662C66.5332 43.219 66.7693 38.9836 64.2224 36.9211Z" fill="#ED1566"/>
<path d="M47.2224 36.9211C44.9632 35.0917 42.3866 36.3709 39.6513 37.4608C38.2508 38.0189 37.3218 38.3086 36.355 39.4235C33.998 42.1417 44.0837 36.3159 45.8318 39.4235C47.1384 41.7465 41.4698 45.9248 44.2351 45.9984C45.3106 46.0271 45.934 45.6607 46.8103 45.0662C49.5332 43.219 49.7693 38.9836 47.2224 36.9211Z" fill="#ED1566"/>
<path d="M64.2224 54.9211C61.9632 53.0917 59.3866 54.3709 56.6513 55.4608C55.2508 56.0189 54.3218 56.3086 53.355 57.4235C50.998 60.1417 61.0837 54.3159 62.8318 57.4235C64.1384 59.7465 58.4698 63.9248 61.2351 63.9984C62.3106 64.0271 62.934 63.6607 63.8103 63.0662C66.5332 61.219 66.7693 56.9836 64.2224 54.9211Z" fill="#ED1566"/>
</svg>
