<svg width="72" height="80" viewBox="0 0 72 80" fill="none" xmlns="http://www.w3.org/2000/svg">
<path d="M23.1274 3.98596C20.6308 0.948095 18.2851 -0.171455 14.8195 0.0209245C6.3148 0.493033 0 51 0 51C0 51 29.3779 11.5918 23.1274 3.98596Z" fill="#F65B35"/>
<path d="M56.2371 27.8495C55.8771 23.9714 54.5865 21.7863 51.6663 20.1105C44.4999 15.998 11.6458 55.1177 11.6458 55.1177C11.6458 55.1177 57.1385 37.559 56.2371 27.8495Z" fill="#F65B35"/>
<path d="M67.8797 62.8055C69.9252 59.4911 70.2089 56.9692 68.8844 53.8738C65.6339 46.2774 15.8557 57.7609 15.8557 57.7609C15.8557 57.7609 62.7585 71.1036 67.8797 62.8055Z" fill="#F65B35"/>
</svg>
