<svg width="120" height="120" viewBox="0 0 120 120" fill="none" xmlns="http://www.w3.org/2000/svg">
<path d="M117.687 2.31324C114.546 -0.827283 108.771 -0.769745 100.522 2.48395C93.1412 5.39496 84.0226 10.8158 74.1234 18.1673C66.5551 15.6173 58.4417 15.1576 50.6107 16.8544C42.3406 18.6462 34.7919 22.7703 28.7811 28.781C22.7704 34.7918 18.6464 42.3402 16.8546 50.6107C15.1579 58.4418 15.6172 66.5552 18.1672 74.1235C10.816 84.0228 5.39524 93.1415 2.48394 100.522C-0.76974 108.771 -0.827277 114.546 2.31323 117.687C3.85566 119.229 6.03321 120 8.82722 120C11.7227 120 15.2802 119.172 19.4782 117.516C26.8578 114.605 35.9752 109.186 45.8721 101.836C50.4406 103.376 55.2067 104.153 59.9908 104.153C63.1332 104.153 66.2844 103.818 69.3892 103.145C77.6594 101.354 85.2078 97.2295 91.2185 91.2187C97.2295 85.208 101.354 77.6595 103.145 69.389C104.842 61.5583 104.383 53.4449 101.833 45.8765C109.184 35.9776 114.605 26.8586 117.516 19.4777C120.77 11.229 120.828 5.45376 117.687 2.31324ZM19.3268 51.1462C21.0156 43.3515 24.9034 36.2362 30.5698 30.5697C36.2363 24.9029 43.3519 21.0151 51.1462 19.3266C58.7398 17.6811 66.6161 18.1796 73.9242 20.7675C76.7242 21.7583 79.4193 23.0538 81.9357 24.6187C84.6349 26.2933 87.1564 28.2957 89.4307 30.57C91.5292 32.6686 93.3922 34.9792 94.984 37.4435C89.6599 46.9375 80.4117 58.5711 69.491 69.4915C58.5698 80.4125 46.9369 89.6608 37.4433 94.9846C34.979 93.3931 32.668 91.5298 30.5698 89.4316C28.2962 87.1579 26.2938 84.6364 24.6183 81.936C23.0537 79.4201 21.7582 76.7247 20.7674 73.9247C18.1798 66.6165 17.6816 58.7399 19.3268 51.1462ZM96.3345 34.9128C94.8246 32.7315 93.1121 30.6744 91.2191 28.781C89.3261 26.888 87.269 25.1754 85.0876 23.6659C91.8122 20.2725 96.8498 19.3623 98.7441 21.2563C100.638 23.1509 99.7276 28.1882 96.3345 34.9128ZM23.6664 85.0875C25.1762 87.2695 26.8887 89.3266 28.7815 91.2194C30.6745 93.1124 32.7316 94.8246 34.9129 96.3345C28.1881 99.7279 23.1511 100.638 21.2571 98.7438C19.3628 96.8495 20.273 91.8121 23.6664 85.0875ZM100.674 68.8541C98.9853 76.6488 95.0975 83.7642 89.431 89.4306C83.7643 95.0974 76.649 98.9853 68.8543 100.674C62.0454 102.149 55.0101 101.895 48.3604 99.9625C57.3681 93.0678 66.8026 84.7467 75.7749 75.7747C84.7471 66.8024 93.0682 57.3675 99.9628 48.3601C101.895 55.0101 102.149 62.0451 100.674 68.8541ZM115.163 18.5504C112.281 25.858 106.834 34.9688 99.4124 44.8971C92.3164 54.3898 83.524 64.4487 73.9868 73.9863C64.4493 83.5236 54.3904 92.3157 44.8975 99.4124C34.9692 106.834 25.8585 112.281 18.551 115.163C11.5289 117.933 6.39771 118.194 4.10224 115.898C1.80646 113.603 2.06759 108.472 4.83726 101.45C7.53991 94.5983 12.4966 86.1611 19.2224 76.9511C20.0381 78.9149 20.9991 80.8175 22.0885 82.6378C17.4138 91.3876 16.5046 97.5681 19.4687 100.532C20.6093 101.672 22.2257 102.24 24.2819 102.24C27.699 102.24 32.3298 100.673 38.0051 97.5655C47.8167 92.195 59.9446 82.6141 71.2794 71.2792C82.6142 59.9447 92.195 47.8167 97.5659 38.0047C102.542 28.9144 103.568 22.5047 100.532 19.4682C97.569 16.5044 91.3876 17.4133 82.6379 22.0884C80.8173 20.9989 78.9147 20.0376 76.9512 19.2222C86.1612 12.4964 94.598 7.53933 101.45 4.83698C108.471 2.0676 113.603 1.80615 115.899 4.10195C118.194 6.39744 117.933 11.5287 115.163 18.5504Z" fill="#F8C853"/>
</svg>
