<svg width="46" height="46" viewBox="0 0 46 46" fill="none" xmlns="http://www.w3.org/2000/svg">
<path opacity="0.6" d="M0.886768 0.886742C2.09063 -0.317125 4.30445 -0.295069 7.46667 0.952183C10.2959 2.06807 13.7914 4.14605 17.586 6.96413C20.4872 5.98664 23.5973 5.81043 26.5992 6.46084C29.7695 7.14772 32.6631 8.7286 34.9672 11.0327C37.2713 13.3368 38.8522 16.2304 39.5391 19.4008C40.1895 22.4027 40.0134 25.5128 39.0359 28.414C41.8539 32.2087 43.9318 35.7042 45.0478 38.5335C46.2951 41.6957 46.3171 43.9094 45.1133 45.1133C44.522 45.7044 43.6873 46 42.6162 46C41.5063 46 40.1426 45.6825 38.5334 45.0478C35.7045 43.9321 32.2095 41.8546 28.4157 39.0372C26.6644 39.6275 24.8374 39.9254 23.0035 39.9254C21.7989 39.9254 20.591 39.7969 19.4008 39.5391C16.2306 38.8523 13.337 37.2713 11.0329 34.9672C8.72869 32.6631 7.14771 29.7695 6.46095 26.5991C5.81054 23.5973 5.98663 20.4872 6.96411 17.586C4.14618 13.7914 2.06821 10.2958 0.952332 7.46644C-0.295036 4.30444 -0.317215 2.09061 0.886768 0.886742ZM38.5914 19.6061C37.944 16.6181 36.4537 13.8905 34.2816 11.7184C32.1094 9.54613 29.3818 8.05577 26.3939 7.40852C23.4831 6.77774 20.4638 6.96885 17.6624 7.96089C16.589 8.34068 15.5559 8.83731 14.5913 9.43718C13.5566 10.0791 12.59 10.8467 11.7182 11.7185C10.9138 12.523 10.1996 13.4087 9.58948 14.3534C11.6304 17.9927 15.1755 22.4522 19.3618 26.6384C23.5483 30.8248 28.0075 34.37 31.6467 36.4108C32.5914 35.8007 33.4773 35.0864 34.2816 34.2821C35.1531 33.4105 35.9207 32.444 36.563 31.4088C37.1628 30.4444 37.6594 29.4111 38.0392 28.3378C39.0311 25.5363 39.2221 22.517 38.5914 19.6061ZM9.07177 13.3833C9.65056 12.5471 10.307 11.7585 11.0327 11.0327C11.7583 10.3071 12.5469 9.65059 13.3831 9.07192C10.8053 7.77111 8.87424 7.42221 8.1481 8.14824C7.42207 8.87451 7.77109 10.8055 9.07177 13.3833ZM36.9279 32.6169C36.3491 33.4533 35.6926 34.2419 34.9671 34.9674C34.2414 35.6931 33.4529 36.3494 32.6167 36.9282C35.1946 38.229 37.1254 38.5779 37.8514 37.8518C38.5776 37.1256 38.2287 35.1946 36.9279 32.6169ZM7.40826 26.3941C8.05563 29.3821 9.54597 32.1096 11.7181 34.2817C13.8904 36.454 16.6179 37.9444 19.6058 38.5916C22.2159 39.1572 24.9128 39.0599 27.4618 38.319C24.0089 35.676 20.3923 32.4863 16.953 29.047C13.5136 25.6076 10.3239 21.9909 7.68092 18.538C6.94012 21.0872 6.8428 23.784 7.40826 26.3941ZM1.85407 7.111C2.95892 9.91223 5.04683 13.4047 7.89191 17.2106C10.612 20.8494 13.9825 24.7053 17.6384 28.3614C21.2944 32.0174 25.1503 35.3877 28.7893 38.1081C32.5951 40.9532 36.0876 43.0411 38.8888 44.146C41.5806 45.2076 43.5475 45.3075 44.4275 44.4277C45.3075 43.5478 45.2074 41.5808 44.1457 38.8891C43.1097 36.2627 41.2096 33.0284 38.6314 29.4979C38.3187 30.2507 37.9503 30.98 37.5327 31.6778C39.3247 35.0319 39.6732 37.4011 38.537 38.5373C38.0998 38.9745 37.4801 39.192 36.6919 39.192C35.382 39.192 33.6069 38.5911 31.4314 37.4001C27.6703 35.3414 23.0212 31.6687 18.6762 27.3237C14.3312 22.9788 10.6586 18.3297 8.59975 14.5685C6.69205 11.0839 6.29892 8.62681 7.46267 7.46281C8.59854 6.32668 10.9681 6.6751 14.3221 8.4672C15.0201 8.04959 15.7494 7.68107 16.502 7.36853C12.9715 4.79028 9.73745 2.89008 7.11087 1.85417C4.41945 0.79258 2.45224 0.692359 1.57219 1.57242C0.692265 2.45235 0.792362 4.41933 1.85407 7.111Z" fill="#FF4040"/>
</svg>
