<svg width="215" height="24" viewBox="0 0 215 24" fill="none" xmlns="http://www.w3.org/2000/svg">
<path d="M12.472 23.256C10.7653 23.256 9.176 22.968 7.704 22.392C6.25333 21.816 4.99467 21.016 3.928 19.992C2.86133 18.9467 2.02933 17.7307 1.432 16.344C0.834667 14.9573 0.536 13.4427 0.536 11.8C0.536 10.1573 0.834667 8.64267 1.432 7.256C2.02933 5.86933 2.86133 4.664 3.928 3.64C4.99467 2.59467 6.25333 1.784 7.704 1.208C9.15467 0.631999 10.744 0.344 12.472 0.344C14.1787 0.344 15.7467 0.631999 17.176 1.208C18.6267 1.76267 19.8853 2.56267 20.952 3.608C22.04 4.632 22.872 5.83733 23.448 7.224C24.0453 8.61067 24.344 10.136 24.344 11.8C24.344 13.464 24.0453 14.9893 23.448 16.376C22.872 17.7627 22.04 18.9787 20.952 20.024C19.8853 21.048 18.6267 21.848 17.176 22.424C15.7467 22.9787 14.1787 23.256 12.472 23.256ZM12.472 20.408C13.7093 20.408 14.8507 20.1947 15.896 19.768C16.9627 19.3413 17.88 18.744 18.648 17.976C19.4373 17.1867 20.0453 16.2693 20.472 15.224C20.92 14.1787 21.144 13.0373 21.144 11.8C21.144 10.5627 20.92 9.42133 20.472 8.376C20.0453 7.33067 19.4373 6.424 18.648 5.656C17.88 4.86666 16.9627 4.25867 15.896 3.832C14.8507 3.40533 13.7093 3.192 12.472 3.192C11.2133 3.192 10.0507 3.40533 8.984 3.832C7.93867 4.25867 7.02133 4.86666 6.232 5.656C5.44267 6.424 4.824 7.33067 4.376 8.376C3.94933 9.42133 3.736 10.5627 3.736 11.8C3.736 13.0373 3.94933 14.1787 4.376 15.224C4.824 16.2693 5.44267 17.1867 6.232 17.976C7.02133 18.744 7.93867 19.3413 8.984 19.768C10.0507 20.1947 11.2133 20.408 12.472 20.408ZM35.923 23.192C34.4723 23.192 33.1923 22.9253 32.083 22.392C30.995 21.8587 30.1417 21.048 29.523 19.96C28.9257 18.8507 28.627 17.464 28.627 15.8V6.04H31.699V15.448C31.699 17.112 32.0937 18.36 32.883 19.192C33.6937 20.024 34.8243 20.44 36.275 20.44C37.3417 20.44 38.2697 20.2267 39.059 19.8C39.8483 19.352 40.4563 18.712 40.883 17.88C41.3097 17.0267 41.523 16.0027 41.523 14.808V6.04H44.595V23H41.683V18.424L42.163 19.64C41.6083 20.7707 40.7763 21.6453 39.667 22.264C38.5577 22.8827 37.3097 23.192 35.923 23.192ZM50.4433 23V6.04H53.3873V10.648L53.0993 9.496C53.5686 8.32267 54.3579 7.42667 55.4673 6.808C56.5766 6.18933 57.9419 5.88 59.5633 5.88V8.856C59.4353 8.83467 59.3073 8.824 59.1793 8.824C59.0726 8.824 58.9659 8.824 58.8593 8.824C57.2166 8.824 55.9153 9.31467 54.9553 10.296C53.9953 11.2773 53.5153 12.696 53.5153 14.552V23H50.4433ZM72.61 23V0.599998H81.346C83.3087 0.599998 84.9833 0.909332 86.37 1.528C87.7567 2.14667 88.8233 3.04267 89.57 4.216C90.3167 5.38933 90.69 6.78667 90.69 8.408C90.69 10.0293 90.3167 11.4267 89.57 12.6C88.8233 13.752 87.7567 14.648 86.37 15.288C84.9833 15.9067 83.3087 16.216 81.346 16.216H74.37L75.81 14.712V23H72.61ZM75.81 15.032L74.37 13.432H81.25C83.298 13.432 84.8447 12.9947 85.89 12.12C86.9567 11.2453 87.49 10.008 87.49 8.408C87.49 6.808 86.9567 5.57067 85.89 4.696C84.8447 3.82133 83.298 3.384 81.25 3.384H74.37L75.81 1.784V15.032ZM105.315 23V19.416L105.155 18.744V12.632C105.155 11.3307 104.771 10.328 104.003 9.624C103.256 8.89867 102.126 8.536 100.611 8.536C99.6083 8.536 98.627 8.70667 97.667 9.048C96.707 9.368 95.8963 9.80533 95.235 10.36L93.955 8.056C94.8297 7.352 95.875 6.81867 97.091 6.456C98.3283 6.072 99.619 5.88 100.963 5.88C103.288 5.88 105.08 6.44533 106.339 7.576C107.598 8.70667 108.227 10.4347 108.227 12.76V23H105.315ZM99.747 23.192C98.4883 23.192 97.379 22.9787 96.419 22.552C95.4803 22.1253 94.755 21.5387 94.243 20.792C93.731 20.024 93.475 19.16 93.475 18.2C93.475 17.2827 93.6883 16.4507 94.115 15.704C94.563 14.9573 95.2777 14.36 96.259 13.912C97.2617 13.464 98.6057 13.24 100.291 13.24H105.667V15.448H100.419C98.883 15.448 97.8483 15.704 97.315 16.216C96.7817 16.728 96.515 17.3467 96.515 18.072C96.515 18.904 96.8457 19.576 97.507 20.088C98.1683 20.5787 99.0857 20.824 100.259 20.824C101.411 20.824 102.414 20.568 103.267 20.056C104.142 19.544 104.771 18.7973 105.155 17.816L105.763 19.928C105.358 20.9307 104.643 21.7307 103.619 22.328C102.595 22.904 101.304 23.192 99.747 23.192ZM113.912 23V6.04H116.856V10.648L116.568 9.496C117.037 8.32267 117.827 7.42667 118.936 6.808C120.045 6.18933 121.411 5.88 123.032 5.88V8.856C122.904 8.83467 122.776 8.824 122.648 8.824C122.541 8.824 122.435 8.824 122.328 8.824C120.685 8.824 119.384 9.31467 118.424 10.296C117.464 11.2773 116.984 12.696 116.984 14.552V23H113.912ZM133.33 23.192C131.623 23.192 130.3 22.7333 129.362 21.816C128.423 20.8987 127.954 19.5867 127.954 17.88V2.328H131.026V17.752C131.026 18.6693 131.25 19.3733 131.698 19.864C132.167 20.3547 132.828 20.6 133.682 20.6C134.642 20.6 135.442 20.3333 136.082 19.8L137.042 22.008C136.572 22.4133 136.007 22.712 135.346 22.904C134.706 23.096 134.034 23.192 133.33 23.192ZM125.074 8.568V6.04H135.89V8.568H125.074ZM149.812 5.88C151.198 5.88 152.414 6.14667 153.46 6.68C154.526 7.21333 155.358 8.024 155.956 9.112C156.553 10.2 156.852 11.576 156.852 13.24V23H153.78V13.592C153.78 11.9493 153.374 10.712 152.564 9.88C151.774 9.048 150.654 8.632 149.204 8.632C148.116 8.632 147.166 8.84533 146.356 9.272C145.545 9.69867 144.916 10.328 144.468 11.16C144.041 11.992 143.828 13.0267 143.828 14.264V23H140.756V6.04H143.7V10.616L143.22 9.4C143.774 8.29067 144.628 7.42667 145.78 6.808C146.932 6.18933 148.276 5.88 149.812 5.88ZM170.089 23.192C168.276 23.192 166.676 22.8187 165.289 22.072C163.924 21.3253 162.857 20.3013 162.089 19C161.342 17.6987 160.969 16.2053 160.969 14.52C160.969 12.8347 161.332 11.3413 162.057 10.04C162.804 8.73867 163.817 7.72533 165.097 7C166.398 6.25333 167.86 5.88 169.481 5.88C171.124 5.88 172.574 6.24267 173.833 6.968C175.092 7.69333 176.073 8.71733 176.777 10.04C177.502 11.3413 177.865 12.8667 177.865 14.616C177.865 14.744 177.854 14.8933 177.833 15.064C177.833 15.2347 177.822 15.3947 177.801 15.544H163.369V13.336H176.201L174.953 14.104C174.974 13.016 174.75 12.0453 174.281 11.192C173.812 10.3387 173.161 9.67733 172.329 9.208C171.518 8.71733 170.569 8.472 169.481 8.472C168.414 8.472 167.465 8.71733 166.633 9.208C165.801 9.67733 165.15 10.3493 164.681 11.224C164.212 12.0773 163.977 13.0587 163.977 14.168V14.68C163.977 15.8107 164.233 16.824 164.745 17.72C165.278 18.5947 166.014 19.2773 166.953 19.768C167.892 20.2587 168.969 20.504 170.185 20.504C171.188 20.504 172.094 20.3333 172.905 19.992C173.737 19.6507 174.462 19.1387 175.081 18.456L176.777 20.44C176.009 21.336 175.049 22.0187 173.897 22.488C172.766 22.9573 171.497 23.192 170.089 23.192ZM182.131 23V6.04H185.075V10.648L184.787 9.496C185.256 8.32267 186.045 7.42667 187.155 6.808C188.264 6.18933 189.629 5.88 191.251 5.88V8.856C191.123 8.83467 190.995 8.824 190.867 8.824C190.76 8.824 190.653 8.824 190.547 8.824C188.904 8.824 187.603 9.31467 186.643 10.296C185.683 11.2773 185.203 12.696 185.203 14.552V23H182.131ZM200.089 23.192C198.681 23.192 197.337 23 196.057 22.616C194.798 22.232 193.806 21.7627 193.081 21.208L194.361 18.776C195.086 19.2667 195.982 19.6827 197.049 20.024C198.115 20.3653 199.203 20.536 200.312 20.536C201.742 20.536 202.766 20.3333 203.385 19.928C204.025 19.5227 204.345 18.9573 204.345 18.232C204.345 17.6987 204.153 17.2827 203.769 16.984C203.385 16.6853 202.873 16.4613 202.233 16.312C201.614 16.1627 200.921 16.0347 200.153 15.928C199.385 15.8 198.617 15.6507 197.849 15.48C197.081 15.288 196.377 15.032 195.737 14.712C195.097 14.3707 194.585 13.912 194.201 13.336C193.817 12.7387 193.625 11.9493 193.625 10.968C193.625 9.944 193.913 9.048 194.489 8.28C195.065 7.512 195.875 6.92533 196.921 6.52C197.987 6.09333 199.246 5.88 200.697 5.88C201.806 5.88 202.926 6.01867 204.057 6.296C205.209 6.552 206.147 6.92533 206.873 7.416L205.561 9.848C204.793 9.336 203.993 8.984 203.161 8.792C202.329 8.6 201.497 8.504 200.665 8.504C199.321 8.504 198.318 8.728 197.657 9.176C196.995 9.60267 196.665 10.1573 196.665 10.84C196.665 11.416 196.857 11.864 197.241 12.184C197.646 12.4827 198.158 12.7173 198.777 12.888C199.417 13.0587 200.121 13.208 200.889 13.336C201.657 13.4427 202.425 13.592 203.193 13.784C203.961 13.9547 204.654 14.2 205.273 14.52C205.913 14.84 206.425 15.288 206.809 15.864C207.214 16.44 207.417 17.208 207.417 18.168C207.417 19.192 207.118 20.0773 206.521 20.824C205.923 21.5707 205.081 22.1573 203.993 22.584C202.905 22.9893 201.603 23.192 200.089 23.192ZM211.992 10.264C211.394 10.264 210.882 10.0613 210.456 9.656C210.029 9.22933 209.816 8.696 209.816 8.056C209.816 7.416 210.029 6.89333 210.456 6.488C210.882 6.08267 211.394 5.88 211.992 5.88C212.568 5.88 213.058 6.08267 213.464 6.488C213.89 6.89333 214.104 7.416 214.104 8.056C214.104 8.696 213.89 9.22933 213.464 9.656C213.058 10.0613 212.568 10.264 211.992 10.264ZM211.992 23.192C211.394 23.192 210.882 22.9893 210.456 22.584C210.029 22.1573 209.816 21.624 209.816 20.984C209.816 20.344 210.029 19.8213 210.456 19.416C210.882 19.0107 211.394 18.808 211.992 18.808C212.568 18.808 213.058 19.0107 213.464 19.416C213.89 19.8213 214.104 20.344 214.104 20.984C214.104 21.624 213.89 22.1573 213.464 22.584C213.058 22.9893 212.568 23.192 211.992 23.192Z" fill="#FF4040"/>
</svg>
