<svg width="129" height="128" viewBox="0 0 129 128" fill="none" xmlns="http://www.w3.org/2000/svg">
<path d="M89.6732 78.0642C84.852 78.0642 79.9838 77.1002 75.3433 75.1212C75.0979 75.0168 74.9044 74.82 74.8052 74.574C74.7059 74.3281 74.7092 74.0531 74.8142 73.8095C75.0347 73.3022 75.6248 73.072 76.138 73.2865C89.0672 78.7982 103.867 75.9602 113.842 66.0612C120.323 59.6292 123.894 51.0975 123.894 42.0352C123.894 32.9755 120.324 24.4432 113.843 18.0135C107.36 11.5815 98.7601 8.03924 89.6296 8.03924C80.4988 8.03924 71.8989 11.5815 65.4179 18.0135C55.4325 27.9215 52.5784 42.615 58.1488 55.4487C58.2469 55.6909 58.2456 55.9615 58.1454 56.2028C58.0451 56.4441 57.8537 56.6369 57.6121 56.7401C57.3705 56.8433 57.0978 56.8487 56.8523 56.7551C56.6067 56.6615 56.4078 56.4764 56.2979 56.2392C50.4 42.6492 53.4214 27.09 63.9936 16.6005C70.8566 9.79099 79.9599 6.04074 89.6296 6.04074C99.2993 6.04074 108.404 9.79099 115.267 16.6005C122.128 23.4082 125.908 32.4417 125.908 42.0365C125.908 51.6312 122.128 60.665 115.265 67.4745C108.285 74.4027 99.0713 78.0642 89.6732 78.0642ZM51.1772 93.9277C51.045 93.9278 50.914 93.902 50.7919 93.8517C50.6697 93.8015 50.5587 93.7278 50.4652 93.635L37.6464 80.9135C37.5528 80.8208 37.4785 80.7106 37.4279 80.5894C37.3773 80.4682 37.3512 80.3382 37.3513 80.207V74.555C37.3512 74.4238 37.3773 74.2938 37.4279 74.1726C37.4785 74.0513 37.5528 73.9412 37.6464 73.8485L53.3133 58.303C53.4068 58.2102 53.5178 58.1366 53.64 58.0864C53.7621 58.0361 53.8931 58.0103 54.0253 58.0103C54.1576 58.0103 54.2885 58.0361 54.4107 58.0864C54.5328 58.1366 54.6439 58.2102 54.7373 58.303L73.2524 76.6747C73.346 76.7675 73.4202 76.8776 73.4709 76.9988C73.5216 77.12 73.5477 77.25 73.5477 77.3812C73.5477 77.5125 73.5216 77.6424 73.4709 77.7637C73.4202 77.8849 73.346 77.995 73.2524 78.0877L57.5837 93.6312C57.3952 93.8185 57.1394 93.9238 56.8727 93.924L51.178 93.928L51.1772 93.9277ZM39.3654 79.7935L51.5942 91.9292L56.4547 91.9252L71.1168 77.381L54.0256 60.4225L39.3657 74.9687V79.7935H39.3654Z" fill="url(#paint0_linear_18_238)"/>
<path d="M63.9962 86.8625C63.7555 86.8634 63.5226 86.7774 63.3411 86.6205L43.4008 69.66C43.3002 69.5749 43.2176 69.4709 43.1576 69.3541C43.0977 69.2372 43.0616 69.1097 43.0514 68.9789C43.0413 68.8482 43.0572 68.7167 43.0984 68.5921C43.1396 68.4675 43.2052 68.3522 43.2914 68.2528C43.3774 68.1531 43.4824 68.0713 43.6003 68.012C43.7182 67.9526 43.8468 67.917 43.9786 67.907C44.1104 67.897 44.2429 67.9129 44.3686 67.9538C44.4942 67.9947 44.6104 68.0597 44.7107 68.1453L64.651 85.1058C64.7516 85.1909 64.8342 85.2949 64.8941 85.4118C64.954 85.5286 64.9901 85.6561 65.0003 85.7869C65.0104 85.9176 64.9945 86.0491 64.9533 86.1737C64.9121 86.2983 64.8466 86.4136 64.7604 86.513C64.6663 86.623 64.5492 86.7113 64.4172 86.7716C64.2852 86.832 64.1415 86.863 63.9962 86.8625ZM68.2686 82.6235C68.0278 82.6244 67.795 82.5383 67.6135 82.3813L47.6729 65.4198C47.5724 65.3345 47.4897 65.2305 47.4298 65.1135C47.3699 64.9965 47.3338 64.8689 47.3237 64.7381C47.3136 64.6073 47.3296 64.4758 47.3708 64.3511C47.412 64.2264 47.4776 64.111 47.5638 64.0115C47.6497 63.9118 47.7546 63.8298 47.8725 63.7703C47.9903 63.7109 48.1189 63.6751 48.2507 63.665C48.3826 63.6549 48.5151 63.6708 48.6408 63.7116C48.7665 63.7524 48.8828 63.8175 48.9831 63.903L68.9234 80.8665C69.0237 80.9518 69.1061 81.0558 69.1659 81.1727C69.2257 81.2896 69.2616 81.417 69.2717 81.5477C69.2817 81.6784 69.2657 81.8098 69.2245 81.9343C69.1834 82.0589 69.1178 82.1741 69.0317 82.2735C68.9381 82.3837 68.8212 82.4722 68.6893 82.5327C68.5575 82.5931 68.4138 82.6242 68.2686 82.6235ZM59.7228 91.1018C59.4821 91.1026 59.2493 91.0166 59.0677 90.8598L39.1274 73.899C39.0269 73.8139 38.9443 73.7099 38.8844 73.593C38.8245 73.4761 38.7884 73.3486 38.7783 73.2179C38.7682 73.0871 38.7841 72.9557 38.8253 72.8311C38.8665 72.7065 38.9321 72.5912 39.0183 72.4918C39.1043 72.3921 39.2093 72.3103 39.3272 72.251C39.4451 72.1916 39.5737 72.156 39.7055 72.146C39.8373 72.136 39.9699 72.152 40.0955 72.1929C40.2211 72.2338 40.3373 72.2989 40.4376 72.3845L60.3779 89.345C60.4784 89.4302 60.561 89.5342 60.6209 89.651C60.6808 89.7679 60.7169 89.8954 60.727 90.0262C60.7371 90.1569 60.7212 90.2884 60.68 90.413C60.6388 90.5376 60.5732 90.6529 60.487 90.7523C60.393 90.8622 60.2759 90.9505 60.1439 91.0109C60.0119 91.0713 59.8682 91.1023 59.7228 91.1018ZM47.4212 93.3188C45.4494 93.3188 43.3605 92.2378 41.2065 90.0985C35.5761 84.5048 38.9238 81.058 39.0695 80.9135C39.258 80.7305 39.5113 80.6283 39.775 80.6287C40.0387 80.6291 40.2918 80.7321 40.4797 80.9156C40.6677 81.0992 40.7755 81.3486 40.7801 81.6102C40.7847 81.8718 40.6857 82.1248 40.5043 82.3148C40.3993 82.43 38.5129 84.5945 42.6306 88.6853C46.779 92.8035 48.9634 90.8788 49.0539 90.797C49.454 90.4263 50.0884 90.434 50.4711 90.8283C50.8515 91.2223 50.8536 91.835 50.4653 92.2218C50.365 92.321 49.4376 93.1973 47.7724 93.3068C47.6563 93.315 47.5394 93.3188 47.4212 93.3188Z" fill="url(#paint1_linear_18_238)"/>
<path d="M64.7001 104.518C64.5998 104.518 64.4985 104.503 64.3993 104.471C64.2241 104.417 64.0672 104.316 63.9456 104.18C63.8239 104.044 63.7421 103.877 63.7089 103.698C62.8621 99.0648 60.6169 92.528 58.2781 92.5028C58.1457 92.5014 58.015 92.4741 57.8933 92.4226C57.7716 92.371 57.6613 92.2962 57.5688 92.2023C57.4762 92.1084 57.4033 91.9974 57.354 91.8755C57.3048 91.7536 57.2803 91.6233 57.2818 91.492C57.2866 90.9395 57.7507 90.4535 58.2997 90.5043C62.2423 90.5473 64.4229 97.6948 65.2972 101.454C76.9899 88.7733 70.3693 79.4773 70.2985 79.3815C70.1405 79.1677 70.0745 78.9005 70.115 78.6384C70.1555 78.3764 70.2991 78.141 70.5144 77.984C70.9631 77.6543 71.5925 77.7558 71.9228 78.1985C72.0055 78.3118 80.098 89.6572 65.4124 104.225C65.319 104.318 65.208 104.392 65.0858 104.442C64.9635 104.492 64.8324 104.518 64.7001 104.518ZM39.7756 74.1333C39.5106 74.1333 39.2562 74.0296 39.0676 73.8448C38.879 73.6599 38.7715 73.4088 38.7683 73.1458C38.7439 70.8253 32.1573 68.5983 27.4879 67.759C27.307 67.7263 27.1387 67.6452 27.001 67.5243C26.8633 67.4035 26.7615 67.2476 26.7067 67.0735C26.6519 66.8994 26.6461 66.7138 26.69 66.5367C26.7339 66.3596 26.8258 66.1978 26.9558 66.0688C41.6373 51.498 53.0745 59.5245 53.1873 59.6065C53.4018 59.763 53.5449 59.9974 53.5855 60.2584C53.6261 60.5194 53.5607 60.7857 53.4038 60.999C53.2467 61.2128 53.0106 61.3562 52.7472 61.3977C52.4838 61.4392 52.2145 61.3755 51.9984 61.2205C51.6048 60.9395 42.4526 54.6305 29.7469 66.182C33.5363 67.0485 40.7414 69.213 40.7827 73.1223C40.7843 73.2536 40.7598 73.3839 40.7106 73.5058C40.6613 73.6277 40.5884 73.7388 40.4958 73.8327C40.4033 73.9266 40.293 74.0015 40.1713 74.0531C40.0496 74.1046 39.9188 74.1319 39.7865 74.1333H39.7756Z" fill="url(#paint2_linear_18_238)"/>
<path d="M54.0253 60.0087C53.8928 60.009 53.7615 59.9832 53.6391 59.9328C53.5167 59.8824 53.4056 59.8083 53.3123 59.715C53.2188 59.6221 53.1447 59.5119 53.0942 59.3906C53.0438 59.2693 53.0179 59.1393 53.0181 59.0081C53.0183 58.8769 53.0445 58.7469 53.0953 58.6258C53.1462 58.5046 53.2206 58.3946 53.3143 58.302L56.5126 55.1362C56.9069 54.7477 57.5443 54.7457 57.9366 55.1382C58.03 55.2311 58.104 55.3414 58.1545 55.4627C58.2049 55.584 58.2308 55.7139 58.2306 55.8452C58.2304 55.9764 58.2042 56.1063 58.1534 56.2274C58.1026 56.3486 58.0282 56.4586 57.9346 56.5512L54.7363 59.717C54.6429 59.8096 54.5321 59.8831 54.4101 59.9332C54.2881 59.9832 54.1573 60.0089 54.0253 60.0087ZM72.5403 78.3802C72.4081 78.3804 72.2772 78.3546 72.1551 78.3043C72.033 78.2541 71.9221 78.1804 71.8288 78.0875C71.7352 77.9948 71.661 77.8846 71.6103 77.7634C71.5597 77.6422 71.5336 77.5122 71.5336 77.381C71.5336 77.2498 71.5597 77.1198 71.6103 76.9986C71.661 76.8774 71.7352 76.7672 71.8288 76.6745L75.0309 73.501C75.2197 73.3136 75.4758 73.2084 75.7429 73.2084C76.0099 73.2084 76.2661 73.3136 76.4549 73.501C76.6437 73.6884 76.7498 73.9425 76.7498 74.2075C76.7498 74.4725 76.6437 74.7266 76.4549 74.914L73.2523 78.0875C73.159 78.1805 73.048 78.2542 72.9258 78.3045C72.8036 78.3547 72.6726 78.3805 72.5403 78.3802ZM62.5698 62.8347C62.3706 62.8348 62.1758 62.7763 62.0101 62.6665C61.8445 62.5567 61.7154 62.4006 61.6391 62.218C61.5629 62.0354 61.543 61.8345 61.5819 61.6406C61.6208 61.4467 61.7168 61.2687 61.8578 61.129L68.9784 54.0617C69.1673 53.8744 69.4234 53.7691 69.6905 53.7691C69.9575 53.7691 70.2137 53.8744 70.4025 54.0617C70.5913 54.2491 70.6974 54.5033 70.6974 54.7682C70.6974 55.0332 70.5913 55.2874 70.4025 55.4747L63.2818 62.542C63.1884 62.635 63.0775 62.7087 62.9553 62.759C62.8331 62.8092 62.702 62.835 62.5698 62.8347ZM69.6907 69.902C69.5585 69.9022 69.4275 69.8764 69.3053 69.8262C69.1831 69.7759 69.0721 69.7022 68.9787 69.6092C68.8851 69.5165 68.8109 69.4064 68.7602 69.2852C68.7096 69.1639 68.6835 69.034 68.6835 68.9027C68.6835 68.7715 68.7096 68.6416 68.7602 68.5203C68.8109 68.3991 68.8851 68.289 68.9787 68.1962L76.1009 61.1287C76.1944 61.036 76.3054 60.9624 76.4276 60.9122C76.5498 60.8619 76.6807 60.8361 76.8129 60.8361C76.9452 60.8361 77.0761 60.8619 77.1983 60.9122C77.3204 60.9624 77.4315 61.036 77.525 61.1287C77.6185 61.2215 77.6926 61.3317 77.7432 61.4529C77.7938 61.5741 77.8199 61.704 77.8199 61.8352C77.8199 61.9665 77.7938 62.0964 77.7432 62.2176C77.6926 62.3388 77.6185 62.449 77.525 62.5417L70.4027 69.6092C70.3093 69.7021 70.1983 69.7758 70.0761 69.8261C69.954 69.8763 69.823 69.9021 69.6907 69.902Z" fill="url(#paint3_linear_18_238)"/>
<path d="M76.093 56.4682C76.0574 56.4682 76.0202 56.4662 75.9831 56.4625L69.5805 55.7617C69.315 55.7326 69.072 55.6001 68.9049 55.3934C68.7378 55.1866 68.6603 54.9224 68.6893 54.659C68.7503 54.1117 69.2517 53.7222 69.8004 53.775L76.2031 54.4757C76.4686 54.5048 76.7116 54.6373 76.8787 54.8441C77.0458 55.0509 77.1233 55.315 77.0942 55.5785C77.0668 55.823 76.9495 56.0489 76.7648 56.213C76.5801 56.3772 76.3409 56.468 76.093 56.4682Z" fill="url(#paint4_linear_18_238)"/>
<path d="M76.8128 62.8347C76.5651 62.8347 76.3261 62.7442 76.1414 62.5804C75.9568 62.4166 75.8394 62.191 75.8118 61.9467L75.0919 55.5802C75.0623 55.3168 75.1394 55.0525 75.3061 54.8454C75.4728 54.6383 75.7156 54.5053 75.9811 54.4757C76.5376 54.421 77.0332 54.8105 77.0942 55.3577L77.814 61.7242C77.8296 61.864 77.8153 62.0054 77.7721 62.1393C77.7289 62.2732 77.6578 62.3966 77.5633 62.5013C77.4688 62.6061 77.3532 62.69 77.2238 62.7474C77.0945 62.8049 76.9545 62.8346 76.8128 62.8347ZM72.5976 52.883C72.3984 52.8831 72.2036 52.8245 72.038 52.7148C71.8723 52.605 71.7432 52.4489 71.667 52.2663C71.5907 52.0837 71.5708 51.8827 71.6097 51.6888C71.6486 51.495 71.7446 51.3169 71.8856 51.1772L81.7974 41.3442C81.9872 41.1614 82.2418 41.06 82.5064 41.0619C82.7709 41.0638 83.024 41.169 83.2111 41.3546C83.3981 41.5402 83.504 41.7913 83.506 42.0538C83.5079 42.3163 83.4057 42.5689 83.2214 42.7572L73.3096 52.59C73.2163 52.6831 73.1054 52.7569 72.9831 52.8072C72.8609 52.8575 72.7299 52.8832 72.5976 52.883Z" fill="url(#paint5_linear_18_238)"/>
<path d="M82.5093 43.05C82.3101 43.0501 82.1153 42.9915 81.9497 42.8818C81.784 42.772 81.6549 42.6159 81.5787 42.4333C81.5024 42.2507 81.4825 42.0497 81.5214 41.8559C81.5604 41.662 81.6564 41.484 81.7973 41.3443C82.0787 41.0664 82.3019 40.7359 82.4538 40.3719C82.6058 40.008 82.6836 39.6177 82.6826 39.2238C82.6826 38.4235 82.3677 37.6713 81.7973 37.106C80.6567 35.973 78.666 35.9703 77.5249 37.105C77.336 37.2922 77.0801 37.3974 76.8131 37.3976C76.5462 37.3978 76.29 37.2929 76.1009 37.106C75.912 36.9185 75.8059 36.6642 75.8059 36.399C75.8059 36.1339 75.912 35.8796 76.1009 35.692C76.5672 35.2264 77.1221 34.8573 77.7332 34.6061C78.3444 34.3548 78.9997 34.2264 79.6612 34.2283C81.0067 34.2283 82.2694 34.7485 83.2216 35.692C84.1737 36.6348 84.6968 37.8885 84.6968 39.2235C84.6968 40.5585 84.1737 41.8135 83.2216 42.757C83.1282 42.85 83.0172 42.9238 82.8949 42.9741C82.7727 43.0243 82.6416 43.0502 82.5093 43.05Z" fill="url(#paint6_linear_18_238)"/>
<path d="M76.8128 43.05C76.5458 43.0502 76.2898 42.9452 76.1007 42.7582C75.1491 41.8137 74.6235 40.5587 74.6235 39.2247C74.6235 37.8907 75.1491 36.6357 76.1007 35.6912C76.1938 35.5958 76.305 35.5197 76.428 35.4674C76.551 35.4151 76.6833 35.3876 76.8171 35.3865C76.9509 35.3854 77.0836 35.4108 77.2074 35.4612C77.3313 35.5116 77.4437 35.5859 77.5383 35.6799C77.6328 35.7738 77.7076 35.8855 77.7582 36.0085C77.8088 36.1314 77.8342 36.2631 77.8329 36.3959C77.8317 36.5286 77.8038 36.6598 77.7509 36.7818C77.6979 36.9038 77.6211 37.0141 77.5248 37.1062C76.9544 37.6722 76.6379 38.4247 76.6379 39.225C76.6379 40.0252 76.9544 40.7775 77.5248 41.3435C77.6655 41.4833 77.7613 41.6614 77.8001 41.8552C77.8388 42.0491 77.8189 42.2499 77.7427 42.4325C77.6665 42.6151 77.5375 42.7712 77.372 42.8811C77.2065 42.991 77.0119 43.0498 76.8128 43.05ZM79.72 59.9502C79.5208 59.9503 79.3261 59.8918 79.1604 59.782C78.9948 59.6722 78.8656 59.5161 78.7894 59.3335C78.7132 59.1509 78.6933 58.95 78.7322 58.7561C78.7711 58.5622 78.8671 58.3842 79.008 58.2445L88.9178 48.4097C89.0113 48.317 89.1224 48.2434 89.2445 48.1932C89.3667 48.1429 89.4976 48.1171 89.6299 48.1171C89.7621 48.1171 89.893 48.1429 90.0152 48.1932C90.1374 48.2434 90.2484 48.317 90.3419 48.4097C90.4354 48.5025 90.5096 48.6127 90.5602 48.7339C90.6108 48.8551 90.6368 48.985 90.6368 49.1162C90.6368 49.2475 90.6108 49.3774 90.5602 49.4986C90.5096 49.6198 90.4354 49.73 90.3419 49.8227L80.4321 59.6575C80.3387 59.7504 80.2277 59.8241 80.1055 59.8744C79.9833 59.9246 79.8523 59.9504 79.72 59.9502Z" fill="url(#paint7_linear_18_238)"/>
<path d="M95.3277 55.7675C95.1285 55.7676 94.9337 55.709 94.768 55.5992C94.6024 55.4895 94.4733 55.3334 94.397 55.1508C94.3208 54.9681 94.3009 54.7672 94.3398 54.5733C94.3787 54.3795 94.4747 54.2014 94.6156 54.0617C95.7943 52.8937 95.7943 50.9917 94.6136 49.8225C93.473 48.6905 91.4844 48.6905 90.3418 49.8225C90.1529 50.0099 89.8968 50.1151 89.6297 50.1151C89.3627 50.1151 89.1066 50.0099 88.9177 49.8225C88.7289 49.6351 88.6228 49.381 88.6228 49.116C88.6228 48.851 88.7289 48.5969 88.9177 48.4095C90.8807 46.4615 94.077 46.4615 96.0399 48.4095C98.0014 50.3582 98.0014 53.528 96.0399 55.4747C95.9465 55.5677 95.8355 55.6415 95.7133 55.6917C95.591 55.742 95.46 55.7677 95.3277 55.7675Z" fill="url(#paint8_linear_18_238)"/>
<path d="M92.4782 56.9368C91.817 56.9377 91.1621 56.809 90.5511 56.5582C89.9401 56.3073 89.3851 55.9392 88.9178 55.475C88.8242 55.3823 88.75 55.2721 88.6993 55.1509C88.6487 55.0297 88.6226 54.8997 88.6226 54.7685C88.6226 54.6373 88.6487 54.5073 88.6993 54.3861C88.75 54.2649 88.8242 54.1547 88.9178 54.062C89.0113 53.9692 89.1223 53.8955 89.2444 53.8452C89.3666 53.795 89.4976 53.7691 89.6298 53.7691C89.7621 53.7691 89.8931 53.795 90.0152 53.8452C90.1374 53.8955 90.2484 53.9692 90.3419 54.062C91.52 55.231 93.4376 55.231 94.6157 54.062C94.7092 53.9692 94.8202 53.8955 94.9424 53.8452C95.0645 53.795 95.1955 53.7691 95.3278 53.7691C95.46 53.7691 95.591 53.795 95.7131 53.8452C95.8353 53.8955 95.9463 53.9692 96.0398 54.062C96.1334 54.1547 96.2076 54.2649 96.2582 54.3861C96.3089 54.5073 96.335 54.6373 96.335 54.7685C96.335 54.8997 96.3089 55.0297 96.2582 55.1509C96.2076 55.2721 96.1334 55.3823 96.0398 55.475C95.5724 55.9394 95.0171 56.3076 94.4059 56.5584C93.7947 56.8093 93.1396 56.9378 92.4782 56.9368ZM83.9334 50.1153C83.8012 50.1154 83.6702 50.0896 83.548 50.0394C83.4258 49.9892 83.3148 49.9155 83.2214 49.8225L81.7974 48.4095C81.7039 48.3167 81.6297 48.2066 81.5791 48.0854C81.5285 47.9641 81.5024 47.8342 81.5024 47.703C81.5024 47.5718 81.5285 47.4419 81.5791 47.3206C81.6297 47.1994 81.7039 47.0893 81.7974 46.9965C81.8909 46.9037 82.0019 46.8301 82.124 46.7799C82.2462 46.7297 82.3772 46.7039 82.5094 46.7039C82.6416 46.7039 82.7726 46.7297 82.8947 46.7799C83.0169 46.8301 83.1279 46.9037 83.2214 46.9965L84.6454 48.4095C84.7864 48.5492 84.8824 48.7272 84.9213 48.9211C84.9602 49.115 84.9403 49.3159 84.8641 49.4985C84.7878 49.6812 84.6587 49.8372 84.4931 49.947C84.3274 50.0568 84.1326 50.1153 83.9334 50.1153ZM73.2524 23.9583C73.0532 23.9583 72.8584 23.8998 72.6928 23.79C72.5271 23.6802 72.398 23.5242 72.3218 23.3415C72.2455 23.1589 72.2256 22.958 72.2645 22.7641C72.3034 22.5702 72.3994 22.3922 72.5404 22.2525C77.108 17.7185 83.1781 15.2213 89.6298 15.2213C96.0811 15.2213 102.152 17.7185 106.721 22.2525C106.814 22.3453 106.889 22.4554 106.939 22.5766C106.99 22.6979 107.016 22.8278 107.016 22.959C107.016 23.0902 106.99 23.2201 106.939 23.3414C106.889 23.4626 106.814 23.5727 106.721 23.6655C106.627 23.7584 106.516 23.832 106.394 23.8823C106.272 23.9325 106.141 23.9584 106.009 23.9584C105.877 23.9584 105.746 23.9325 105.623 23.8823C105.501 23.832 105.39 23.7584 105.297 23.6655C101.109 19.5093 95.5444 17.22 89.6298 17.22C83.7167 17.22 78.1521 19.5093 73.9644 23.6655C73.871 23.7585 73.76 23.8322 73.6379 23.8824C73.5157 23.9327 73.3847 23.9584 73.2524 23.9583Z" fill="url(#paint9_linear_18_238)"/>
<path d="M20.8543 111.681C20.3478 111.681 20.0284 111.468 19.8492 111.291C17.5736 109.032 29.692 95.8738 29.8198 95.7468C31.3403 94.2363 33.9936 94.2363 35.5162 95.7468C37.0856 97.304 37.0856 99.8415 35.5162 101.399C35.4129 101.501 23.8235 111.681 20.8543 111.681ZM32.6681 96.5745C32.4035 96.5735 32.1413 96.6248 31.8968 96.7253C31.6523 96.8258 31.4304 96.9736 31.2441 97.16C29.7875 98.6043 23.566 106.208 21.888 109.269C24.9732 107.606 32.6366 101.43 34.0921 99.9863C34.876 99.2075 34.876 97.939 34.0921 97.16C33.9057 96.9736 33.6838 96.8259 33.4394 96.7254C33.1949 96.6248 32.9327 96.5736 32.6681 96.5745Z" fill="url(#paint10_linear_18_238)"/>
<path d="M16.9105 117.903C15.7233 117.903 14.7951 117.581 14.1529 116.943C12.2172 115.024 13.1577 110.707 17.0247 103.745C19.9151 98.5418 23.6987 93.3423 25.5467 91.5078C27.4487 89.6183 29.9773 88.58 32.6672 88.58C35.358 88.58 37.8866 89.6183 39.7886 91.5078C43.7148 95.4033 43.7148 101.743 39.7886 105.638C36.708 108.695 23.1822 117.903 16.9105 117.903ZM32.6669 90.5785C30.515 90.5785 28.4921 91.41 26.9705 92.9208C25.2121 94.6655 21.5054 99.818 18.7888 104.709C15.0861 111.376 14.7437 114.704 15.5767 115.529C15.8286 115.779 16.2769 115.904 16.9103 115.904C22.1965 115.904 35.1401 107.426 38.3641 104.225C41.5054 101.108 41.5054 96.0373 38.3641 92.9205C36.8428 91.4103 34.8199 90.5785 32.6669 90.5785Z" fill="url(#paint11_linear_18_238)"/>
<path d="M104.819 113.964C104.262 113.964 103.8 113.517 103.8 112.965C103.8 112.413 104.24 111.966 104.799 111.966H104.819C105.086 111.966 105.342 112.071 105.53 112.259C105.719 112.446 105.825 112.7 105.826 112.965C105.825 113.23 105.719 113.484 105.53 113.671C105.342 113.859 105.086 113.964 104.819 113.964Z" fill="url(#paint12_linear_18_238)"/>
<path d="M22.2359 2.04425C21.6803 2.04425 21.219 1.59725 21.219 1.045C21.219 0.492746 21.6597 0.0457458 22.2162 0.0457458H22.2359C22.7927 0.0457458 23.2432 0.492746 23.2432 1.045C23.2432 1.59725 22.7927 2.04425 22.2359 2.04425Z" fill="url(#paint13_linear_18_238)"/>
<path d="M60.5057 6.04151C59.9501 6.04151 59.4888 5.59451 59.4888 5.04201C59.4888 4.48976 59.9294 4.04276 60.486 4.04276H60.5057C60.6379 4.04266 60.7689 4.06844 60.8912 4.11862C61.0134 4.1688 61.1244 4.2424 61.218 4.33521C61.3115 4.42802 61.3857 4.53821 61.4363 4.65949C61.4868 4.78077 61.5128 4.91075 61.5127 5.04201C61.5128 5.17327 61.4868 5.30326 61.4363 5.42456C61.3857 5.54585 61.3115 5.65606 61.218 5.74889C61.1245 5.84172 61.0134 5.91534 60.8912 5.96555C60.7689 6.01576 60.6379 6.04157 60.5057 6.04151Z" fill="url(#paint14_linear_18_238)"/>
<path d="M4.10844 26.027C3.55263 26.027 3.09155 25.58 3.09155 25.0278C3.09155 24.4755 3.53222 24.0285 4.08878 24.0285H4.10844C4.2407 24.0284 4.37169 24.0542 4.4939 24.1044C4.61611 24.1546 4.72715 24.2282 4.82068 24.321C4.91421 24.4138 4.98838 24.524 5.03897 24.6453C5.08956 24.7665 5.11556 24.8965 5.11549 25.0278C5.11556 25.159 5.08956 25.289 5.03897 25.4102C4.98838 25.5315 4.91421 25.6417 4.82068 25.7345C4.72715 25.8273 4.61611 25.9009 4.4939 25.9511C4.37169 26.0013 4.2407 26.0271 4.10844 26.027Z" fill="url(#paint15_linear_18_238)"/>
<path d="M18.2076 83.9857C17.6517 83.9857 17.1907 83.5388 17.1907 82.9863C17.1907 82.434 17.6313 81.987 18.1879 81.987H18.2076C18.3398 81.9869 18.4708 82.0127 18.593 82.0629C18.7152 82.1131 18.8263 82.1867 18.9198 82.2795C19.0133 82.3723 19.0875 82.4825 19.1381 82.6038C19.1887 82.725 19.2147 82.855 19.2146 82.9863C19.2147 83.1175 19.1887 83.2475 19.1382 83.3688C19.0876 83.4901 19.0134 83.6003 18.9199 83.6931C18.8264 83.786 18.7153 83.8596 18.5931 83.9098C18.4708 83.96 18.3398 83.9858 18.2076 83.9857Z" fill="url(#paint16_linear_18_238)"/>
<path d="M68.4569 125.956C67.9003 125.956 67.4382 125.509 67.4382 124.956C67.4382 124.404 67.8787 123.957 68.4372 123.957H68.4569C68.7239 123.957 68.98 124.063 69.1689 124.25C69.3578 124.437 69.464 124.691 69.4642 124.956C69.464 125.221 69.3578 125.476 69.1689 125.663C68.98 125.85 68.7239 125.956 68.4569 125.956Z" fill="url(#paint17_linear_18_238)"/>
<path d="M116.904 127.954C116.347 127.954 115.885 127.507 115.885 126.955C115.885 126.403 116.325 125.956 116.884 125.956H116.904C117.458 125.956 117.911 126.403 117.911 126.955C117.911 127.507 117.458 127.954 116.904 127.954Z" fill="url(#paint18_linear_18_238)"/>
<path d="M86.691 89.9815C86.1345 89.9815 85.6719 89.5345 85.6719 88.9822C85.6719 88.4297 86.1128 87.983 86.6714 87.983H86.691C86.9581 87.9831 87.2142 88.0884 87.4031 88.2758C87.5919 88.4632 87.6981 88.7172 87.6983 88.9822C87.6981 89.2472 87.5918 89.5013 87.403 89.6886C87.2141 89.876 86.9581 89.9813 86.691 89.9815Z" fill="url(#paint19_linear_18_238)"/>
<path d="M120.932 83.9857C120.376 83.9857 119.914 83.5388 119.914 82.9863C119.914 82.434 120.354 81.987 120.913 81.987H120.932C121.199 81.9872 121.455 82.0925 121.644 82.2799C121.833 82.4672 121.939 82.7213 121.94 82.9863C121.939 83.2513 121.833 83.5054 121.644 83.6928C121.455 83.8802 121.199 83.9855 120.932 83.9857Z" fill="url(#paint20_linear_18_238)"/>
<path d="M100.791 107.969C100.234 107.969 99.7715 107.522 99.7715 106.969C99.7715 106.417 100.212 105.97 100.771 105.97H100.791C101.058 105.97 101.314 106.076 101.502 106.263C101.691 106.45 101.797 106.704 101.797 106.969C101.797 107.234 101.691 107.488 101.502 107.676C101.314 107.863 101.058 107.968 100.791 107.969Z" fill="url(#paint21_linear_18_238)"/>
<path d="M105.765 117.961C100.212 117.961 95.6938 113.478 95.6938 107.969C95.6938 102.459 100.212 97.9755 105.765 97.9755C111.317 97.9755 115.836 102.459 115.836 107.969C115.836 113.478 111.317 117.961 105.765 117.961ZM105.765 99.9742C101.321 99.9742 97.708 103.561 97.708 107.969C97.708 112.375 101.321 115.963 105.765 115.963C110.208 115.963 113.822 112.375 113.822 107.969C113.822 103.561 110.208 99.9742 105.765 99.9742Z" fill="url(#paint22_linear_18_238)"/>
<path d="M108.786 107.969C107.12 107.969 105.765 106.624 105.765 104.971C105.765 103.318 107.12 101.973 108.786 101.973C110.452 101.973 111.807 103.318 111.807 104.971C111.807 106.624 110.452 107.969 108.786 107.969ZM108.786 103.971C108.23 103.971 107.779 104.42 107.779 104.971C107.779 105.521 108.23 105.97 108.786 105.97C109.343 105.97 109.793 105.521 109.793 104.971C109.793 104.706 109.687 104.452 109.498 104.264C109.309 104.077 109.053 103.972 108.786 103.971Z" fill="url(#paint23_linear_18_238)"/>
<path d="M80.5876 115.963C80.4553 115.963 80.3244 115.937 80.2021 115.887C80.0799 115.837 79.9688 115.763 79.8753 115.67C79.7817 115.578 79.7075 115.468 79.6569 115.346C79.6063 115.225 79.5803 115.095 79.5803 114.964V106.969C79.5803 106.417 80.0311 105.97 80.5876 105.97C81.1442 105.97 81.5944 106.417 81.5944 106.969V114.964C81.5945 115.095 81.5685 115.225 81.5179 115.346C81.4674 115.467 81.3932 115.578 81.2997 115.67C81.2062 115.763 81.0952 115.837 80.973 115.887C80.8508 115.937 80.7199 115.963 80.5876 115.963Z" fill="url(#paint24_linear_18_238)"/>
<path d="M82.6019 111.966H78.5737C78.4414 111.966 78.3104 111.94 78.1882 111.89C78.066 111.84 77.9549 111.766 77.8614 111.673C77.7678 111.58 77.6936 111.47 77.643 111.349C77.5924 111.228 77.5664 111.098 77.5664 110.967C77.5663 110.835 77.5924 110.705 77.643 110.584C77.6936 110.463 77.7678 110.353 77.8613 110.26C77.9549 110.167 78.0659 110.093 78.1882 110.043C78.3104 109.993 78.4414 109.967 78.5737 109.967H82.6019C82.7342 109.967 82.8652 109.993 82.9874 110.043C83.1096 110.093 83.2206 110.167 83.3141 110.26C83.4076 110.353 83.4818 110.463 83.5323 110.584C83.5829 110.705 83.6089 110.835 83.6088 110.967C83.6089 111.098 83.5829 111.228 83.5323 111.349C83.4818 111.47 83.4076 111.58 83.3141 111.673C83.2206 111.766 83.1096 111.84 82.9874 111.89C82.8652 111.94 82.7342 111.966 82.6019 111.966Z" fill="url(#paint25_linear_18_238)"/>
<path d="M46.3462 123.957C46.2139 123.957 46.0829 123.931 45.9607 123.881C45.8385 123.831 45.7275 123.758 45.6339 123.665C45.5404 123.572 45.4662 123.462 45.4156 123.34C45.365 123.219 45.339 123.089 45.3391 122.958V114.963C45.339 114.832 45.365 114.702 45.4156 114.581C45.4661 114.46 45.5403 114.349 45.6339 114.257C45.7274 114.164 45.8384 114.09 45.9607 114.04C46.0829 113.99 46.2139 113.964 46.3462 113.964C46.4785 113.964 46.6095 113.99 46.7317 114.04C46.8539 114.09 46.965 114.164 47.0586 114.257C47.1521 114.349 47.2263 114.46 47.2769 114.581C47.3275 114.702 47.3535 114.832 47.3535 114.963V122.958C47.3535 123.089 47.3275 123.219 47.2769 123.34C47.2262 123.462 47.152 123.572 47.0585 123.665C46.965 123.758 46.8539 123.831 46.7317 123.881C46.6094 123.932 46.4784 123.957 46.3462 123.957Z" fill="url(#paint26_linear_18_238)"/>
<path d="M48.3605 119.96H44.332C44.1997 119.96 44.0687 119.934 43.9465 119.884C43.8243 119.834 43.7132 119.76 43.6197 119.668C43.5262 119.575 43.452 119.465 43.4014 119.343C43.3508 119.222 43.3249 119.092 43.325 118.961C43.3249 118.829 43.3509 118.7 43.4015 118.578C43.4521 118.457 43.5262 118.347 43.6198 118.254C43.7133 118.161 43.8243 118.088 43.9465 118.037C44.0688 117.987 44.1997 117.961 44.332 117.961H48.3605C48.4928 117.961 48.6237 117.987 48.7459 118.037C48.8682 118.088 48.9792 118.161 49.0727 118.254C49.1663 118.347 49.2404 118.457 49.291 118.578C49.3416 118.7 49.3676 118.829 49.3675 118.961C49.3676 119.092 49.3417 119.222 49.2911 119.343C49.2405 119.465 49.1663 119.575 49.0728 119.668C48.9793 119.76 48.8682 119.834 48.746 119.884C48.6238 119.934 48.4928 119.96 48.3605 119.96Z" fill="url(#paint27_linear_18_238)"/>
<path d="M46.3462 18.0328C46.2139 18.0329 46.0829 18.0071 45.9607 17.9569C45.8384 17.9067 45.7274 17.8331 45.6339 17.7403C45.5403 17.6475 45.4661 17.5373 45.4156 17.416C45.365 17.2947 45.339 17.1648 45.3391 17.0335V9.03926C45.339 8.908 45.365 8.77801 45.4156 8.65671C45.4661 8.53542 45.5403 8.42521 45.6338 8.33238C45.7274 8.23955 45.8384 8.16593 45.9606 8.11572C46.0829 8.06551 46.2139 8.0397 46.3462 8.03976C46.4785 8.03967 46.6095 8.06545 46.7318 8.11565C46.854 8.16584 46.9651 8.23946 47.0587 8.33229C47.1522 8.42512 47.2264 8.53535 47.277 8.65666C47.3276 8.77797 47.3536 8.90798 47.3535 9.03926V17.0335C47.3535 17.1648 47.3275 17.2948 47.2769 17.416C47.2263 17.5373 47.1521 17.6475 47.0586 17.7403C46.965 17.8331 46.8539 17.9067 46.7317 17.9569C46.6095 18.0071 46.4785 18.0329 46.3462 18.0328Z" fill="url(#paint28_linear_18_238)"/>
<path d="M48.3605 14.0358H44.332C44.1997 14.0358 44.0688 14.01 43.9465 13.9598C43.8243 13.9096 43.7133 13.836 43.6198 13.7432C43.5262 13.6504 43.4521 13.5403 43.4015 13.419C43.3509 13.2977 43.3249 13.1678 43.325 13.0365C43.3249 12.9053 43.3509 12.7753 43.4015 12.654C43.4521 12.5328 43.5262 12.4226 43.6198 12.3298C43.7133 12.237 43.8243 12.1634 43.9465 12.1132C44.0688 12.063 44.1997 12.0372 44.332 12.0373H48.3605C48.4928 12.0372 48.6237 12.063 48.7459 12.1132C48.8682 12.1634 48.9792 12.237 49.0727 12.3298C49.1663 12.4226 49.2404 12.5328 49.291 12.654C49.3416 12.7753 49.3676 12.9053 49.3675 13.0365C49.3676 13.1678 49.3416 13.2977 49.291 13.419C49.2404 13.5403 49.1663 13.6504 49.0727 13.7432C48.9792 13.836 48.8682 13.9096 48.7459 13.9598C48.6237 14.01 48.4928 14.0358 48.3605 14.0358Z" fill="url(#paint29_linear_18_238)"/>
<path d="M10.091 64C9.95877 64.0001 9.82779 63.9743 9.70558 63.9241C9.58337 63.8739 9.47232 63.8003 9.3788 63.7075C9.28527 63.6147 9.21109 63.5045 9.16051 63.3832C9.10992 63.262 9.08392 63.132 9.08398 63.0008V55.0063C9.08398 54.454 9.53448 54.007 10.091 54.007C10.6476 54.007 11.0981 54.454 11.0981 55.0063V63.0008C11.0982 63.132 11.0722 63.262 11.0216 63.3832C10.971 63.5045 10.8968 63.6147 10.8033 63.7075C10.7098 63.8003 10.5987 63.8739 10.4765 63.9241C10.3543 63.9743 10.2233 64.0001 10.091 64Z" fill="url(#paint30_linear_18_238)"/>
<path d="M12.1051 60.003H8.07689C7.52032 60.003 7.06958 59.556 7.06958 59.0035C7.06958 58.451 7.52007 58.0042 8.07689 58.0042H12.1054C12.6619 58.0042 13.1124 58.4512 13.1124 59.0035C13.1124 59.5557 12.6617 60.003 12.1051 60.003Z" fill="url(#paint31_linear_18_238)"/>
<path d="M28.2188 42.0155C26.3355 42.0155 24.5653 41.2875 23.2345 39.9663C21.9026 38.645 21.1692 36.8883 21.1692 35.0198C21.1692 33.1518 21.9029 31.3953 23.2345 30.075C25.8958 27.4325 30.5416 27.4325 33.203 30.075C34.5348 31.3953 35.2682 33.152 35.2682 35.0198C35.2682 36.8885 34.5345 38.645 33.203 39.9663C31.8722 41.2875 30.1022 42.0155 28.2188 42.0155ZM28.2188 30.0243C27.5573 30.0226 26.9021 30.1512 26.291 30.4024C25.6798 30.6537 25.125 31.0226 24.6585 31.488C24.1895 31.9507 23.8176 32.5011 23.5644 33.1073C23.3112 33.7135 23.1816 34.3635 23.1833 35.0198C23.1833 36.3548 23.7076 37.6095 24.6585 38.5533C26.5607 40.4408 29.8769 40.4408 31.7789 38.5533C32.2481 38.0903 32.62 37.5397 32.8733 36.9331C33.1265 36.3266 33.2559 35.6763 33.2541 35.0198C33.2541 33.6858 32.7301 32.4315 31.7789 31.488C31.3125 31.0227 30.7577 30.6537 30.1466 30.4024C29.5355 30.1512 28.8803 30.0227 28.2188 30.0243Z" fill="url(#paint32_linear_18_238)"/>
<path d="M23.015 41.84C22.5469 41.84 22.1347 41.7023 21.8091 41.3793C21.7156 41.2865 21.6414 41.1763 21.5908 41.0551C21.5402 40.9339 21.5142 40.804 21.5142 40.6728C21.5142 40.5415 21.5402 40.4116 21.5908 40.2904C21.6414 40.1692 21.7156 40.059 21.8091 39.9663C21.9757 39.8013 22.1952 39.6992 22.4296 39.6779C22.664 39.6565 22.8985 39.7171 23.0926 39.8493C23.7378 39.8123 26.0281 38.606 28.9306 35.7273C31.8318 32.8475 33.0475 30.5738 33.0848 29.9335C32.9515 29.741 32.8903 29.5082 32.9119 29.2756C32.9334 29.043 33.0363 28.8252 33.2027 28.66C33.2962 28.5672 33.4072 28.4936 33.5294 28.4434C33.6516 28.3932 33.7825 28.3673 33.9147 28.3673C34.047 28.3673 34.1779 28.3932 34.3001 28.4434C34.4223 28.4936 34.5333 28.5672 34.6268 28.66C36.6598 30.677 31.4247 36.0785 30.3546 37.1403C29.4559 38.0323 25.4718 41.84 23.015 41.84Z" fill="url(#paint33_linear_18_238)"/>
<defs>
<linearGradient id="paint0_linear_18_238" x1="81.6298" y1="6.04074" x2="81.6298" y2="93.928" gradientUnits="userSpaceOnUse">
<stop stop-color="#F65B35"/>
<stop offset="1" stop-color="#413ADA"/>
</linearGradient>
<linearGradient id="paint1_linear_18_238" x1="53.6121" y1="63.662" x2="53.6121" y2="93.3188" gradientUnits="userSpaceOnUse">
<stop stop-color="#F65B35"/>
<stop offset="1" stop-color="#413ADA"/>
</linearGradient>
<linearGradient id="paint2_linear_18_238" x1="50.441" y1="57.3277" x2="50.441" y2="104.518" gradientUnits="userSpaceOnUse">
<stop stop-color="#F65B35"/>
<stop offset="1" stop-color="#413ADA"/>
</linearGradient>
<linearGradient id="paint3_linear_18_238" x1="65.419" y1="53.7691" x2="65.419" y2="78.3802" gradientUnits="userSpaceOnUse">
<stop stop-color="#F65B35"/>
<stop offset="1" stop-color="#413ADA"/>
</linearGradient>
<linearGradient id="paint4_linear_18_238" x1="72.8918" y1="53.7702" x2="72.8918" y2="56.4682" gradientUnits="userSpaceOnUse">
<stop stop-color="#F65B35"/>
<stop offset="1" stop-color="#413ADA"/>
</linearGradient>
<linearGradient id="paint5_linear_18_238" x1="77.5482" y1="41.0619" x2="77.5482" y2="62.8347" gradientUnits="userSpaceOnUse">
<stop stop-color="#F65B35"/>
<stop offset="1" stop-color="#413ADA"/>
</linearGradient>
<linearGradient id="paint6_linear_18_238" x1="80.2513" y1="34.2282" x2="80.2513" y2="43.05" gradientUnits="userSpaceOnUse">
<stop stop-color="#F65B35"/>
<stop offset="1" stop-color="#413ADA"/>
</linearGradient>
<linearGradient id="paint7_linear_18_238" x1="82.6302" y1="35.3865" x2="82.6302" y2="59.9502" gradientUnits="userSpaceOnUse">
<stop stop-color="#F65B35"/>
<stop offset="1" stop-color="#413ADA"/>
</linearGradient>
<linearGradient id="paint8_linear_18_238" x1="93.0669" y1="46.9485" x2="93.0669" y2="55.7675" gradientUnits="userSpaceOnUse">
<stop stop-color="#F65B35"/>
<stop offset="1" stop-color="#413ADA"/>
</linearGradient>
<linearGradient id="paint9_linear_18_238" x1="89.6305" y1="15.2213" x2="89.6305" y2="56.9368" gradientUnits="userSpaceOnUse">
<stop stop-color="#F65B35"/>
<stop offset="1" stop-color="#413ADA"/>
</linearGradient>
<linearGradient id="paint10_linear_18_238" x1="28.129" y1="94.6139" x2="28.129" y2="111.681" gradientUnits="userSpaceOnUse">
<stop stop-color="#F65B35"/>
<stop offset="1" stop-color="#413ADA"/>
</linearGradient>
<linearGradient id="paint11_linear_18_238" x1="27.9555" y1="88.58" x2="27.9555" y2="117.903" gradientUnits="userSpaceOnUse">
<stop stop-color="#F65B35"/>
<stop offset="1" stop-color="#413ADA"/>
</linearGradient>
<linearGradient id="paint12_linear_18_238" x1="104.813" y1="111.966" x2="104.813" y2="113.964" gradientUnits="userSpaceOnUse">
<stop stop-color="#F65B35"/>
<stop offset="1" stop-color="#413ADA"/>
</linearGradient>
<linearGradient id="paint13_linear_18_238" x1="22.2311" y1="0.0457458" x2="22.2311" y2="2.04425" gradientUnits="userSpaceOnUse">
<stop stop-color="#F65B35"/>
<stop offset="1" stop-color="#413ADA"/>
</linearGradient>
<linearGradient id="paint14_linear_18_238" x1="60.5007" y1="4.04276" x2="60.5007" y2="6.04151" gradientUnits="userSpaceOnUse">
<stop stop-color="#F65B35"/>
<stop offset="1" stop-color="#413ADA"/>
</linearGradient>
<linearGradient id="paint15_linear_18_238" x1="4.10352" y1="24.0285" x2="4.10352" y2="26.027" gradientUnits="userSpaceOnUse">
<stop stop-color="#F65B35"/>
<stop offset="1" stop-color="#413ADA"/>
</linearGradient>
<linearGradient id="paint16_linear_18_238" x1="18.2026" y1="81.987" x2="18.2026" y2="83.9857" gradientUnits="userSpaceOnUse">
<stop stop-color="#F65B35"/>
<stop offset="1" stop-color="#413ADA"/>
</linearGradient>
<linearGradient id="paint17_linear_18_238" x1="68.4512" y1="123.957" x2="68.4512" y2="125.956" gradientUnits="userSpaceOnUse">
<stop stop-color="#F65B35"/>
<stop offset="1" stop-color="#413ADA"/>
</linearGradient>
<linearGradient id="paint18_linear_18_238" x1="116.898" y1="125.956" x2="116.898" y2="127.954" gradientUnits="userSpaceOnUse">
<stop stop-color="#F65B35"/>
<stop offset="1" stop-color="#413ADA"/>
</linearGradient>
<linearGradient id="paint19_linear_18_238" x1="86.6851" y1="87.983" x2="86.6851" y2="89.9815" gradientUnits="userSpaceOnUse">
<stop stop-color="#F65B35"/>
<stop offset="1" stop-color="#413ADA"/>
</linearGradient>
<linearGradient id="paint20_linear_18_238" x1="120.927" y1="81.987" x2="120.927" y2="83.9857" gradientUnits="userSpaceOnUse">
<stop stop-color="#F65B35"/>
<stop offset="1" stop-color="#413ADA"/>
</linearGradient>
<linearGradient id="paint21_linear_18_238" x1="100.784" y1="105.97" x2="100.784" y2="107.969" gradientUnits="userSpaceOnUse">
<stop stop-color="#F65B35"/>
<stop offset="1" stop-color="#413ADA"/>
</linearGradient>
<linearGradient id="paint22_linear_18_238" x1="105.765" y1="97.9755" x2="105.765" y2="117.961" gradientUnits="userSpaceOnUse">
<stop stop-color="#F65B35"/>
<stop offset="1" stop-color="#413ADA"/>
</linearGradient>
<linearGradient id="paint23_linear_18_238" x1="108.786" y1="101.973" x2="108.786" y2="107.969" gradientUnits="userSpaceOnUse">
<stop stop-color="#F65B35"/>
<stop offset="1" stop-color="#413ADA"/>
</linearGradient>
<linearGradient id="paint24_linear_18_238" x1="80.5874" y1="105.97" x2="80.5874" y2="115.963" gradientUnits="userSpaceOnUse">
<stop stop-color="#F65B35"/>
<stop offset="1" stop-color="#413ADA"/>
</linearGradient>
<linearGradient id="paint25_linear_18_238" x1="80.5876" y1="109.967" x2="80.5876" y2="111.966" gradientUnits="userSpaceOnUse">
<stop stop-color="#F65B35"/>
<stop offset="1" stop-color="#413ADA"/>
</linearGradient>
<linearGradient id="paint26_linear_18_238" x1="46.3463" y1="113.964" x2="46.3463" y2="123.957" gradientUnits="userSpaceOnUse">
<stop stop-color="#F65B35"/>
<stop offset="1" stop-color="#413ADA"/>
</linearGradient>
<linearGradient id="paint27_linear_18_238" x1="46.3462" y1="117.961" x2="46.3462" y2="119.96" gradientUnits="userSpaceOnUse">
<stop stop-color="#F65B35"/>
<stop offset="1" stop-color="#413ADA"/>
</linearGradient>
<linearGradient id="paint28_linear_18_238" x1="46.3463" y1="8.03976" x2="46.3463" y2="18.0328" gradientUnits="userSpaceOnUse">
<stop stop-color="#F65B35"/>
<stop offset="1" stop-color="#413ADA"/>
</linearGradient>
<linearGradient id="paint29_linear_18_238" x1="46.3462" y1="12.0373" x2="46.3462" y2="14.0358" gradientUnits="userSpaceOnUse">
<stop stop-color="#F65B35"/>
<stop offset="1" stop-color="#413ADA"/>
</linearGradient>
<linearGradient id="paint30_linear_18_238" x1="10.091" y1="54.007" x2="10.091" y2="64" gradientUnits="userSpaceOnUse">
<stop stop-color="#F65B35"/>
<stop offset="1" stop-color="#413ADA"/>
</linearGradient>
<linearGradient id="paint31_linear_18_238" x1="10.091" y1="58.0042" x2="10.091" y2="60.003" gradientUnits="userSpaceOnUse">
<stop stop-color="#F65B35"/>
<stop offset="1" stop-color="#413ADA"/>
</linearGradient>
<linearGradient id="paint32_linear_18_238" x1="28.2187" y1="28.0931" x2="28.2187" y2="42.0155" gradientUnits="userSpaceOnUse">
<stop stop-color="#F65B35"/>
<stop offset="1" stop-color="#413ADA"/>
</linearGradient>
<linearGradient id="paint33_linear_18_238" x1="28.3027" y1="28.3673" x2="28.3027" y2="41.84" gradientUnits="userSpaceOnUse">
<stop stop-color="#F65B35"/>
<stop offset="1" stop-color="#413ADA"/>
</linearGradient>
</defs>
</svg>
