<svg width="664" height="184" viewBox="0 0 664 184" fill="none" xmlns="http://www.w3.org/2000/svg">
<g clip-path="url(#clip0_1_4)">
<path d="M65.1053 97.6401H46.5244V121.86H65.1053V97.6401Z" fill="#413ADA"/>
<path d="M99.6554 97.6401H71.2583V121.86H99.6554V97.6401Z" fill="#0EC167"/>
<path d="M123.183 98.26H103.053V121.23H123.183V98.26Z" fill="#F8C853"/>
<path d="M115.68 8.52996C115.533 12.3821 114.508 16.1654 112.669 19.643C110.829 23.1206 108.215 26.2176 104.989 28.74C104.292 29.31 103.717 30.22 102.577 29C101.437 27.78 102.367 27.47 103.108 26.84C116.078 15.84 116.078 -1.22004 103.108 -12.08C102.367 -12.7 101.515 -13.08 102.577 -14.25C103.639 -15.42 104.27 -14.57 104.989 -14.01C111.652 -8.80004 115.68 -0.730043 115.68 8.52996Z" fill="#0EC167"/>
<path d="M52.3674 7.53011C52.363 3.46044 53.3157 -0.563631 55.1626 -4.2754C57.0094 -7.98717 59.7082 -11.3019 63.08 -13.9999C63.7882 -14.5799 64.3748 -15.4299 65.5036 -14.2099C66.6324 -12.9899 65.6474 -12.6599 64.9281 -12.0499C52.0133 -1.17989 52.0133 16.0001 64.8506 26.7501C65.7028 27.4601 66.5328 27.9001 65.3819 29.0701C64.2309 30.2401 63.589 29.1401 62.9804 28.6501C59.6668 26.0024 57.0087 22.7527 55.1799 19.1134C53.3512 15.4741 52.3928 11.527 52.3674 7.53011Z" fill="#0EC167"/>
<path d="M61.5418 5.75995C61.6303 1.41995 64.0539 -3.55004 68.8236 -7.59004C69.4876 -8.16004 70.041 -8.90005 71.037 -7.77005C71.7895 -6.90005 71.6567 -6.50005 70.8267 -5.77005C62.1062 2.22995 62.1394 12.36 70.9374 20.52C71.9112 21.42 71.5128 21.81 70.9374 22.52C70.0963 23.61 69.5319 22.83 68.9232 22.37C64.3859 19 61.5307 13.11 61.5418 5.75995Z" fill="#413ADA"/>
<path d="M106.55 7.40997C106.546 10.2401 105.884 13.0378 104.606 15.6219C103.329 18.2059 101.465 20.5186 99.1352 22.41C98.5376 22.9 97.9621 23.67 97.121 22.59C96.5456 21.86 96.1361 21.45 97.121 20.59C105.974 12.42 105.974 2.40998 97.2317 -5.68002C96.2025 -6.63002 96.5124 -7.09003 97.2317 -7.89003C98.1945 -9.00003 98.7036 -8.01004 99.2237 -7.57004C101.527 -5.66827 103.368 -3.35455 104.629 -0.775758C105.89 1.80304 106.544 4.59059 106.55 7.40997Z" fill="#413ADA"/>
<path d="M70.2734 7.24006C70.351 3.95962 71.8396 0.835488 74.4234 -1.46995C74.8992 -1.88995 75.4194 -2.73995 76.2051 -1.73995C76.692 -1.09995 77.4556 -0.739943 76.5039 0.350057C71.867 5.46006 71.9002 9.00005 76.6035 14.51C77.4667 15.51 76.6035 15.85 76.2605 16.43C75.5743 17.43 75.021 16.7301 74.5008 16.2701C73.1555 15.1025 72.0869 13.7 71.3602 12.1476C70.6334 10.5953 70.2637 8.92557 70.2734 7.24006Z" fill="#F8C853"/>
<path d="M94.8523 7.29995C94.8923 6.06391 94.6463 4.83392 94.1298 3.68879C93.6134 2.54365 92.838 1.50861 91.8532 0.649941C90.7465 -0.350059 90.9347 -0.960057 91.8532 -1.77006C93.0705 -2.83006 93.4579 -1.52005 93.9448 -1.06005C96.4114 1.26487 97.7635 4.37513 97.7075 7.59544C97.6516 10.8157 96.1921 13.8861 93.646 16.1399C93.2033 16.5199 92.7496 17.5399 91.8753 16.5499C91.2777 15.8799 90.3703 15.36 91.5987 14.32C92.6756 13.4356 93.525 12.3488 94.0871 11.136C94.6492 9.92318 94.9104 8.61379 94.8523 7.29995Z" fill="#F8C853"/>
<path d="M130.255 24.3899C124.412 33.3899 118.867 36.3899 107.181 36.5299C88.9539 36.6999 70.7161 36.5999 52.4893 36.5999C48.7682 36.4292 45.0453 36.9044 41.5222 37.9999C37.0955 39.5799 35.8339 43.0499 35.2031 46.8999C34.7605 49.6299 36.5754 50.8999 38.8551 52.0499C48.3061 56.8499 48.6602 71.5499 39.4859 76.9099C34.849 79.6299 33.853 83.1899 36.6307 87.5499C37.2788 88.5813 38.1044 89.5129 39.0765 90.3099C41.2224 91.9702 43.9047 92.9594 46.7235 93.1299L49.3242 93.2999C72.0551 93.2999 94.7861 93.4799 117.506 93.1299C123.836 93.0299 127.466 91.7399 129.414 88.5899C130.653 86.6399 131.273 83.9299 131.516 80.3299C131.605 78.9299 131.594 77.4999 131.616 76.0899C131.992 63.0299 130.664 49.9199 133.497 36.8999C134.033 34.7286 134.019 32.4761 133.458 30.3101C132.896 28.1441 131.802 26.1205 130.255 24.3899ZM59.6937 53.9999C59.6937 49.5999 62.4825 47.4499 67.0641 47.4299C83.5091 47.4299 99.9653 47.5199 116.41 47.5899C121.457 47.5899 124.091 50.0699 124.157 54.4599C124.279 61.7199 124.257 68.9699 123.98 76.2199C123.803 80.4899 120.859 82.4199 116.178 82.3999C108.144 82.3499 100.109 82.3999 92.0858 82.3999C84.0625 82.3999 76.017 82.5699 67.9826 82.3999C61.3426 82.2199 59.6051 80.6799 59.4944 74.7699C59.3838 67.7899 59.6162 60.8799 59.6937 53.9999Z" fill="url(#paint0_linear_1_4)"/>
<path d="M42.4961 64.8199C42.4961 71.6199 39.7848 75.7699 35.2253 75.8199C30.6659 75.8699 27.7553 71.5799 27.6668 64.9999C27.5783 58.4199 30.854 53.5899 35.4688 53.5599C39.6409 53.4899 42.4519 57.9999 42.4961 64.8199Z" fill="url(#paint1_linear_1_4)"/>
<path d="M109.615 62.3701C112.006 62.5801 114.474 63.0701 116.156 65.0601C117.373 66.5101 118.546 68.3801 116.742 69.7801C114.938 71.1801 113.898 69.2601 112.836 68.0401C110.822 65.7501 108.763 65.8101 106.528 68.0401C105.421 69.1301 104.314 71.8101 102.101 69.5901C100.098 67.5901 102.256 66.0001 103.639 64.5901C105.234 63.1736 107.379 62.3768 109.615 62.3701Z" fill="url(#paint2_linear_1_4)"/>
<path d="M78.9607 62.62C81.2122 62.7217 83.3434 63.5689 84.9477 65C86.3643 66.37 87.4156 68.1 85.6117 69.67C83.3984 71.59 82.7676 69.17 81.7827 68.11C79.5029 65.64 77.356 65.57 75.0431 68.11C74.0692 69.17 73.0732 71.47 71.0259 69.71C69.2773 68.21 70.5611 66.41 71.7895 64.99C73.3609 63.19 75.5853 62.61 78.9607 62.62Z" fill="url(#paint3_linear_1_4)"/>
<path d="M159.904 161.45H150.881L176.979 90.3736H185.864L211.962 161.45H202.938L181.699 101.618H181.144L159.904 161.45ZM163.236 133.686H199.607V141.321H163.236V133.686ZM276.887 112.585H268.28C267.771 110.109 266.88 107.934 265.608 106.06C264.358 104.186 262.831 102.613 261.026 101.34C259.245 100.045 257.267 99.073 255.092 98.4252C252.917 97.7774 250.65 97.4535 248.29 97.4535C243.986 97.4535 240.088 98.5409 236.594 100.716C233.123 102.891 230.359 106.095 228.299 110.329C226.263 114.563 225.245 119.757 225.245 125.912C225.245 132.066 226.263 137.26 228.299 141.494C230.359 145.728 233.123 148.933 236.594 151.108C240.088 153.283 243.986 154.37 248.29 154.37C250.65 154.37 252.917 154.046 255.092 153.398C257.267 152.75 259.245 151.79 261.026 150.518C262.831 149.222 264.358 147.637 265.608 145.763C266.88 143.866 267.771 141.691 268.28 139.239H276.887C276.239 142.871 275.059 146.122 273.347 148.991C271.635 151.86 269.506 154.301 266.961 156.314C264.416 158.303 261.559 159.819 258.389 160.86C255.242 161.901 251.876 162.422 248.29 162.422C242.228 162.422 236.837 160.941 232.117 157.979C227.397 155.018 223.684 150.807 220.977 145.347C218.27 139.886 216.916 133.408 216.916 125.912C216.916 118.415 218.27 111.937 220.977 106.477C223.684 101.017 227.397 96.8056 232.117 93.8441C236.837 90.8826 242.228 89.4018 248.29 89.4018C251.876 89.4018 255.242 89.9224 258.389 90.9636C261.559 92.0047 264.416 93.5318 266.961 95.5447C269.506 97.5344 271.635 99.9638 273.347 102.833C275.059 105.679 276.239 108.929 276.887 112.585ZM293.71 161.45H284.687L310.785 90.3736H319.67L345.768 161.45H336.745L315.505 101.618H314.95L293.71 161.45ZM297.042 133.686H333.413V141.321H297.042V133.686ZM378.773 161.45H356.839V90.3736H379.744C386.639 90.3736 392.539 91.7965 397.444 94.6423C402.349 97.465 406.109 101.526 408.723 106.824C411.338 112.099 412.645 118.415 412.645 125.773C412.645 133.177 411.326 139.551 408.689 144.896C406.051 150.217 402.21 154.312 397.166 157.181C392.123 160.027 385.991 161.45 378.773 161.45ZM365.446 153.815H378.217C384.094 153.815 388.964 152.681 392.828 150.414C396.692 148.146 399.573 144.919 401.47 140.731C403.367 136.543 404.316 131.557 404.316 125.773C404.316 120.035 403.379 115.095 401.505 110.954C399.631 106.789 396.831 103.596 393.106 101.375C389.381 99.1309 384.742 98.0087 379.189 98.0087H365.446V153.815ZM427.082 161.45V90.3736H469.978V98.0087H435.689V122.025H467.757V129.66H435.689V153.815H470.533V161.45H427.082ZM485.491 90.3736H495.764L519.919 149.373H520.752L544.907 90.3736H555.18V161.45H547.128V107.449H546.434L524.222 161.45H516.448L494.237 107.449H493.543V161.45H485.491V90.3736ZM581.044 90.3736V161.45H572.437V90.3736H581.044ZM601.216 161.45H592.193L618.291 90.3736H627.176L653.274 161.45H644.251L623.011 101.618H622.456L601.216 161.45ZM604.548 133.686H640.919V141.321H604.548V133.686Z" fill="#413ADA"/>
<path d="M181.915 46.0945C181.626 43.6598 180.457 41.7697 178.407 40.4242C176.357 39.0787 173.842 38.4059 170.862 38.4059C168.684 38.4059 166.778 38.7583 165.144 39.4631C163.526 40.1679 162.261 41.137 161.348 42.3704C160.451 43.6037 160.002 45.0053 160.002 46.5751C160.002 47.8886 160.315 49.0178 160.939 49.9629C161.58 50.8919 162.397 51.6688 163.39 52.2935C164.383 52.9022 165.424 53.4068 166.514 53.8072C167.603 54.1916 168.604 54.504 169.517 54.7443L174.515 56.0898C175.796 56.4261 177.222 56.8907 178.791 57.4833C180.377 58.076 181.891 58.8849 183.332 59.9101C184.79 60.9192 185.991 62.2167 186.936 63.8024C187.882 65.3882 188.354 67.3344 188.354 69.641C188.354 72.3 187.657 74.7027 186.264 76.8491C184.886 78.9955 182.868 80.7014 180.209 81.9668C177.566 83.2323 174.354 83.865 170.574 83.865C167.05 83.865 163.999 83.2963 161.42 82.1591C158.857 81.0218 156.839 79.436 155.365 77.4017C153.907 75.3674 153.082 73.0048 152.89 70.3137H159.041C159.201 72.1718 159.826 73.7096 160.915 74.9269C162.02 76.1283 163.414 77.0253 165.096 77.618C166.794 78.1946 168.62 78.4829 170.574 78.4829C172.849 78.4829 174.891 78.1145 176.701 77.3777C178.511 76.6248 179.945 75.5837 181.002 74.2542C182.059 72.9087 182.588 71.3389 182.588 69.5449C182.588 67.911 182.131 66.5816 181.218 65.5564C180.305 64.5313 179.104 63.6983 177.614 63.0576C176.124 62.4169 174.515 61.8562 172.785 61.3757L166.73 59.6458C162.885 58.5405 159.842 56.9628 157.6 54.9124C155.357 52.8621 154.236 50.1791 154.236 46.8634C154.236 44.1083 154.981 41.7056 156.47 39.6553C157.976 37.589 159.994 35.9872 162.525 34.8499C165.072 33.6966 167.915 33.12 171.055 33.12C174.226 33.12 177.045 33.6886 179.512 34.8259C181.979 35.9471 183.933 37.4849 185.375 39.4391C186.832 41.3933 187.601 43.6118 187.681 46.0945H181.915ZM195.46 39.0787V33.7927H232.365V39.0787H216.892V83H210.933V39.0787H195.46ZM241.562 83V33.7927H271.259V39.0787H247.521V55.7053H269.721V60.9913H247.521V77.7141H271.644V83H241.562ZM281.999 33.7927H289.111L305.834 74.6386H306.411L323.133 33.7927H330.245V83H324.671V45.614H324.191L308.813 83H303.431L288.054 45.614H287.574V83H281.999V33.7927Z" fill="#F8C853"/>
<path d="M370.16 83L356.705 33.7927H362.76L373.044 73.8697H373.524L384 33.7927H390.727L401.203 73.8697H401.684L411.967 33.7927H418.022L404.567 83H398.416L387.556 43.7879H387.171L376.311 83H370.16ZM431.405 33.7927V83H425.446V33.7927H431.405ZM441.719 83V78.6751L468.244 39.0787H441.43V33.7927H475.356V38.1176L448.831 77.7141H475.645V83H441.719ZM487.658 83H481.411L499.48 33.7927H505.63L523.699 83H517.452L502.747 41.5775H502.363L487.658 83ZM489.965 63.7784H515.145V69.0643H489.965V63.7784ZM531.363 83V33.7927H547.99C551.834 33.7927 554.99 34.4495 557.457 35.7629C559.923 37.0604 561.749 38.8464 562.935 41.121C564.12 43.3955 564.713 45.9824 564.713 48.8817C564.713 51.7809 564.12 54.3518 562.935 56.5943C561.749 58.8369 559.931 60.5988 557.481 61.8803C555.03 63.1457 551.898 63.7784 548.086 63.7784H534.631V58.3964H547.894C550.521 58.3964 552.635 58.0119 554.237 57.2431C555.855 56.4742 557.024 55.385 557.745 53.9754C558.482 52.5498 558.85 50.8519 558.85 48.8817C558.85 46.9115 558.482 45.1895 557.745 43.7159C557.008 42.2422 555.831 41.1049 554.213 40.304C552.595 39.4871 550.457 39.0787 547.798 39.0787H537.322V83H531.363ZM554.525 60.8952L566.635 83H559.715L547.798 60.8952H554.525ZM589.827 83H574.642V33.7927H590.5C595.273 33.7927 599.358 34.7778 602.754 36.748C606.149 38.7022 608.752 41.5134 610.562 45.1815C612.372 48.8336 613.277 53.2065 613.277 58.3003C613.277 63.426 612.364 67.839 610.538 71.5391C608.712 75.2233 606.053 78.0584 602.561 80.0447C599.069 82.0149 594.825 83 589.827 83ZM580.601 77.7141H589.443C593.511 77.7141 596.883 76.9292 599.558 75.3594C602.233 73.7897 604.227 71.5551 605.541 68.6559C606.854 65.7566 607.511 62.3048 607.511 58.3003C607.511 54.3278 606.862 50.9079 605.565 48.0407C604.267 45.1575 602.329 42.947 599.75 41.4093C597.171 39.8555 593.96 39.0787 590.115 39.0787H580.601V77.7141ZM650.183 46.0945C649.895 43.6598 648.725 41.7697 646.675 40.4242C644.625 39.0787 642.11 38.4059 639.13 38.4059C636.952 38.4059 635.046 38.7583 633.412 39.4631C631.794 40.1679 630.529 41.137 629.616 42.3704C628.719 43.6037 628.27 45.0053 628.27 46.5751C628.27 47.8886 628.583 49.0178 629.207 49.9629C629.848 50.8919 630.665 51.6688 631.658 52.2935C632.651 52.9022 633.692 53.4068 634.782 53.8072C635.871 54.1916 636.872 54.504 637.785 54.7443L642.783 56.0898C644.064 56.4261 645.49 56.8907 647.059 57.4833C648.645 58.076 650.159 58.8849 651.6 59.9101C653.058 60.9192 654.259 62.2167 655.204 63.8024C656.15 65.3882 656.622 67.3344 656.622 69.641C656.622 72.3 655.925 74.7027 654.532 76.8491C653.154 78.9955 651.136 80.7014 648.477 81.9668C645.834 83.2323 642.622 83.865 638.842 83.865C635.318 83.865 632.267 83.2963 629.688 82.1591C627.125 81.0218 625.107 79.436 623.633 77.4017C622.175 75.3674 621.35 73.0048 621.158 70.3137H627.309C627.469 72.1718 628.094 73.7096 629.183 74.9269C630.288 76.1283 631.682 77.0253 633.364 77.618C635.062 78.1946 636.888 78.4829 638.842 78.4829C641.117 78.4829 643.159 78.1145 644.969 77.3777C646.779 76.6248 648.213 75.5837 649.27 74.2542C650.327 72.9087 650.856 71.3389 650.856 69.5449C650.856 67.911 650.399 66.5816 649.486 65.5564C648.573 64.5313 647.372 63.6983 645.882 63.0576C644.392 62.4169 642.783 61.8562 641.053 61.3757L634.998 59.6458C631.153 58.5405 628.11 56.9628 625.868 54.9124C623.625 52.8621 622.504 50.1791 622.504 46.8634C622.504 44.1083 623.249 41.7056 624.738 39.6553C626.244 37.589 628.262 35.9872 630.793 34.8499C633.34 33.6966 636.183 33.12 639.323 33.12C642.494 33.12 645.313 33.6886 647.78 34.8259C650.247 35.9471 652.201 37.4849 653.643 39.4391C655.1 41.3933 655.869 43.6118 655.949 46.0945H650.183Z" fill="#0EC167"/>
<path d="M94.9851 38.27C93.5686 37.96 92.7718 37.68 92.4951 36.27C92.3152 35.1468 91.8114 34.0861 91.0344 33.1945C90.2574 32.3028 89.2346 31.6115 88.0685 31.19C87.4677 31.0017 86.9602 30.6272 86.6361 30.1329C86.3119 29.6386 86.1921 29.0565 86.2978 28.49C86.379 24.6633 86.379 20.8366 86.2978 17.0099C86.1727 16.3071 86.3009 15.5865 86.6636 14.9545C87.0262 14.3225 87.6041 13.8126 88.3119 13.4999C89.7026 12.7974 90.7673 11.6664 91.3118 10.3134C91.8563 8.96038 91.8442 7.47559 91.2778 6.12995C90.8162 4.81674 89.9006 3.67194 88.6656 2.86377C87.4306 2.05559 85.9412 1.62664 84.4165 1.63995C82.8849 1.65011 81.3967 2.10035 80.1672 2.92553C78.9377 3.75071 78.0306 4.90801 77.5773 6.22995C77.0697 7.58817 77.1013 9.06373 77.6668 10.4032C78.2322 11.7426 79.2962 12.8623 80.6759 13.57C81.3417 13.8525 81.8892 14.3209 82.2379 14.9061C82.5866 15.4913 82.718 16.1622 82.6126 16.82C82.513 20.55 82.513 24.2899 82.6126 28.0099C82.6126 29.6299 82.3249 30.6399 80.3993 31.3699C79.2966 31.8149 78.3389 32.5084 77.618 33.384C76.8971 34.2595 76.4372 35.2877 76.2825 36.3699C76.0501 37.6999 75.4082 37.99 74.0691 38.27C70.9832 38.884 67.9646 39.7475 65.0498 40.85H103.783C100.944 39.7492 97.9988 38.8856 94.9851 38.27ZM80.9415 8.12995C80.8828 7.68728 80.9383 7.23833 81.1036 6.81823C81.2688 6.39814 81.5394 6.01829 81.8941 5.7084C82.2488 5.39851 82.6781 5.167 83.1483 5.03195C83.6185 4.8969 84.117 4.86198 84.6046 4.92994C86.8179 4.99994 87.825 6.22995 87.9246 8.15995C87.9334 8.57642 87.8462 8.98998 87.6684 9.37429C87.4906 9.75861 87.2262 10.1053 86.8921 10.3922C86.5579 10.6791 86.1612 10.9 85.7274 11.0408C85.2936 11.1816 84.832 11.2392 84.3722 11.21C83.9113 11.2554 83.4451 11.2071 83.0075 11.0687C82.5699 10.9302 82.1721 10.7052 81.8433 10.4099C81.5144 10.1146 81.2627 9.75668 81.1067 9.36219C80.9507 8.96771 80.8943 8.54669 80.9415 8.12995Z" fill="url(#paint4_linear_1_4)"/>
<path d="M129.79 91.4299H129.48C127.499 94.5799 123.947 95.8699 117.572 95.9599C94.8524 96.3099 72.1215 96.1199 49.3905 96.1299L46.7677 95.9999C43.9506 95.8309 41.2689 94.8454 39.1207 93.1899V105.5C39.1207 112.06 39.1207 118.63 39.1207 125.18C39.0654 126.929 39.7187 128.636 40.9577 129.98C51.626 142.307 62.2574 154.64 72.8519 166.98C76.4907 165.362 80.4893 164.514 84.5447 164.5C88.6 164.487 92.6056 165.307 96.2579 166.9C106.705 154.693 117.196 142.503 127.731 130.33C129.236 128.675 130.023 126.581 129.945 124.44C129.79 113.44 129.823 102.42 129.79 91.4299ZM74.6668 99.2099C81.1629 99.3499 87.6701 99.3399 94.1773 99.2799C96.0033 99.2799 96.6895 99.8399 96.6895 101.49C96.6895 107.75 96.6895 114.04 96.6895 120.3C96.6895 121.98 96.1583 122.02 94.62 121.39C87.8583 118.63 81.008 118.39 74.2795 121.48C72.2875 122.41 72.1436 121.61 72.1768 120.16C72.1768 117.01 72.1768 113.87 72.1768 110.75C72.1768 107.63 72.2543 104.67 72.1768 101.63C72.0993 99.9299 72.5641 99.1699 74.6668 99.2099ZM47.9187 119.07C47.9961 116.07 47.9187 113 47.9187 109.96C47.9187 107.1 47.9961 104.28 47.9187 101.42C47.9187 99.84 48.3503 99.1 50.2869 99.17C53.9758 99.27 57.6647 99.27 61.3536 99.17C63.3124 99.1 63.6887 99.8899 63.6665 101.46C63.5891 106.85 63.5891 112.23 63.6665 117.63C63.6665 119.16 63.4341 120.16 61.3536 119.7C57.61 119.011 53.7263 119.31 50.1652 120.56C48.2617 121.11 47.8965 120.64 47.9187 119.07ZM94.7085 155.52C93.8343 156.52 92.9489 156.34 91.8644 155.99C87.0992 154.531 81.9319 154.549 77.1789 156.04C76.1497 156.34 75.2312 156.76 74.3127 155.66C66.8427 146.93 59.3505 138.23 51.7477 129.39C56.7831 126.75 61.1655 127.72 65.2933 130.5C67.3075 131.83 69.1003 134.31 71.1365 134.43C72.8629 134.54 74.7221 131.9 76.6699 130.71C82.5352 127.17 89.2969 127.89 95.2951 132.98C97.3424 134.73 98.4823 134.87 100.397 132.98C102.405 131.034 104.871 129.52 107.612 128.55C110.766 127.44 113.644 127.72 116.997 129.55C109.582 138.21 102.153 146.867 94.7085 155.52ZM118.646 120.37C114.905 119.37 111.087 118.66 107.17 119.57C105.842 119.88 105.443 119.28 105.443 118.16C105.443 112.48 105.443 106.813 105.443 101.16C105.443 99.7599 106.174 99.2599 107.657 99.2699C111.353 99.3299 115.016 99.3399 118.723 99.2699C120.439 99.2099 120.937 99.8399 120.937 101.32C120.859 104.25 120.937 107.19 120.937 110.12C120.937 113.05 120.859 115.98 121.003 118.91C120.948 120.6 120.372 120.84 118.646 120.37Z" fill="url(#paint5_linear_1_4)"/>
<path d="M96.2136 166.89C92.9305 170.71 89.6585 174.53 86.3975 178.35C84.9588 180.05 84.3391 180.51 82.6016 178.47C79.348 174.64 76.0834 170.79 72.8076 166.97C76.4464 165.352 80.4451 164.504 84.5004 164.49C88.5558 164.477 92.5614 165.297 96.2136 166.89Z" fill="#F8C853"/>
</g>
<defs>
<linearGradient id="paint0_linear_1_4" x1="133.862" y1="58.8799" x2="35.0924" y2="58.8799" gradientUnits="userSpaceOnUse">
<stop offset="0.03" stop-color="#FF4040"/>
<stop offset="1" stop-color="#ED1566"/>
</linearGradient>
<linearGradient id="paint1_linear_1_4" x1="42.4961" y1="64.6699" x2="27.6557" y2="64.6699" gradientUnits="userSpaceOnUse">
<stop stop-color="#FF4040"/>
<stop offset="0.61" stop-color="#ED1566"/>
</linearGradient>
<linearGradient id="paint2_linear_1_4" x1="117.672" y1="66.3901" x2="101.282" y2="66.3901" gradientUnits="userSpaceOnUse">
<stop offset="0.03" stop-color="#FF4040"/>
<stop offset="1" stop-color="#ED1566"/>
</linearGradient>
<linearGradient id="paint3_linear_1_4" x1="86.5635" y1="66.52" x2="70.1737" y2="66.52" gradientUnits="userSpaceOnUse">
<stop offset="0.03" stop-color="#FF4040"/>
<stop offset="1" stop-color="#ED1566"/>
</linearGradient>
<linearGradient id="paint4_linear_1_4" x1="103.739" y1="21.19" x2="65.0277" y2="21.19" gradientUnits="userSpaceOnUse">
<stop offset="0.03" stop-color="#FF4040"/>
<stop offset="1" stop-color="#ED1566"/>
</linearGradient>
<linearGradient id="paint5_linear_1_4" x1="129.889" y1="129.2" x2="39.0764" y2="129.2" gradientUnits="userSpaceOnUse">
<stop offset="0.03" stop-color="#FF4040"/>
<stop offset="1" stop-color="#ED1566"/>
</linearGradient>
<clipPath id="clip0_1_4">
<rect width="664" height="184" fill="white"/>
</clipPath>
</defs>
</svg>
