<svg width="815" height="418" viewBox="0 0 815 418" fill="none" xmlns="http://www.w3.org/2000/svg">
<path opacity="0.6" d="M814.515 227.078L814.515 174.259C819.026 102.856 791.587 82.3151 752.786 54.9276C721.746 33.0176 641.087 19.063 604.638 14.8245C515.866 5.36926 305.519 -9.23741 174.301 7.97758C43.0839 25.1926 26.7274 42.8089 13.8069 82.5905C7.7608 112.623 -13.9815 288.817 13.8069 371.407C32.7413 413.954 119.71 400.439 227.034 412.452C320.385 422.901 446.759 416.039 524.949 412.452C551.404 411.148 639.998 404.174 733.12 379.916C826.242 355.659 813.927 249.248 814.515 227.078Z" fill="#413ADB"/>
</svg>
