<svg width="320" height="255" viewBox="0 0 320 255" fill="none" xmlns="http://www.w3.org/2000/svg">
<path opacity="0.6" d="M319.809 138.528L319.809 106.306C321.581 62.7469 310.807 50.2161 295.573 33.5084C283.385 20.1423 251.715 11.6293 237.404 9.04364C202.549 3.27551 119.958 -5.63526 68.4373 4.86671C16.9164 15.3687 10.4942 26.1155 5.42114 50.3842C3.04718 68.7057 -5.48966 176.192 5.42113 226.576C12.8555 252.532 47.0028 244.287 89.1421 251.616C125.795 257.99 175.415 253.803 206.115 251.616C216.502 250.82 251.287 246.565 287.851 231.767C324.414 216.969 319.579 152.053 319.809 138.528Z" fill="#413ADB"/>
</svg>
