<svg width="1920" height="249" viewBox="0 0 1920 249" fill="none" xmlns="http://www.w3.org/2000/svg">
<path d="M61.8865 108.922C51.7411 76.1041 16.4016 64.5644 0 62.8968V249H1920V78.9057C1906.3 47.8885 1865.22 58.3944 1862.68 63.3971C1842.39 50.9903 1827.51 66.232 1822.61 75.4038C1812.46 62.8969 1810.43 76.9046 1795.72 82.908C1768.83 29.8786 1710.5 81.9074 1694.27 100.418C1680.88 82.8079 1653.85 91.7462 1642.02 98.4165C1635.09 85.7429 1606 57.794 1545.13 47.3883C1484.26 36.9825 1443 66.0653 1429.98 81.9074C1432.18 70.2343 1428.97 44.1865 1398.53 33.3805C1360.49 19.873 1321.43 42.3855 1318.89 46.888C1316.35 38.8836 1294.54 36.3822 1290.48 36.3822C1278.31 12.7691 1249.9 3.19709 1237.22 1.36273C1228.77 -1.13865 1201.91 -1.9391 1162.15 14.8702C1112.43 35.8819 1120.04 83.4082 1119.54 88.411C1077.94 73.4027 1057.65 103.92 1051.56 110.423C1026.2 86.9101 975.472 106.921 970.906 110.423C972.428 95.4149 952.645 90.4121 942.499 88.411C946.152 72.4021 942.33 57.0603 939.963 51.3905C939.456 49.7229 935.905 43.4861 925.76 31.8796C915.614 20.2732 891.435 23.0414 880.613 25.8763C880.444 20.54 874.526 10.5678 852.206 13.3694C824.307 16.8713 818.219 49.8896 820.248 62.8968C809.596 61.8963 799.45 73.4026 795.9 76.4043C791.842 49.5895 770.875 39.217 760.898 37.3827C748.893 35.048 718.389 35.5817 692.417 56.3932C666.445 77.2047 671.112 107.421 676.692 119.928C657.923 116.927 649.3 126.932 646.256 131.435C638.546 117.827 617.004 121.763 607.197 125.431C605.675 115.759 593.805 99.5171 558.499 111.924C514.367 127.433 520.962 165.454 522.991 173.458C516.904 162.652 492.047 163.619 480.38 165.454C429.654 174.959 412.407 213.981 410.378 217.482C408.755 205.076 392.793 184.631 385.015 175.959C377.913 166.621 352.854 147.344 309.432 144.942C255.155 141.941 217.617 168.956 215.588 170.957C208.283 167.355 198.341 175.126 194.283 179.461C188.026 174.625 168.108 166.154 138.484 170.957C101.453 176.96 96.3805 221.485 95.366 226.988C91.84 206.123 63.8049 215.35 60.4324 216.46L60.3646 216.482C67.2634 197.672 51.7411 192.302 43.1177 191.968C53.6011 177.961 72.0317 141.741 61.8865 108.922Z" fill="white"/>
</svg>
