<svg width="197" height="60" viewBox="0 0 197 60" fill="none" xmlns="http://www.w3.org/2000/svg">
<path d="M12.34 34.6584H6.6228V42.1107H12.34V34.6584Z" fill="#413ADA"/>
<path d="M22.9708 34.6584H14.2333V42.1107H22.9708V34.6584Z" fill="#F65B35"/>
<path d="M30.2102 34.8492H24.0162V41.9169H30.2102V34.8492Z" fill="#F8C853"/>
<path d="M27.9015 7.24C27.8564 8.42527 27.5409 9.58938 26.9749 10.6594C26.4089 11.7294 25.6045 12.6823 24.6121 13.4585C24.3976 13.6338 24.2205 13.9138 23.8698 13.5385C23.5191 13.1631 23.8051 13.0677 24.0332 12.8738C28.024 9.48923 28.024 4.24 24.0332 0.898457C23.8051 0.707688 23.5429 0.590766 23.8698 0.230766C24.1967 -0.129234 24.3908 0.132306 24.6121 0.304614C26.662 1.90769 27.9015 4.39077 27.9015 7.24Z" fill="#F65B35"/>
<path d="M8.42078 6.93232C8.41941 5.68012 8.71257 4.44194 9.28082 3.29986C9.84908 2.15777 10.6795 1.13786 11.7169 0.307707C11.9349 0.129246 12.1153 -0.132295 12.4627 0.24309C12.81 0.618474 12.5069 0.720014 12.2856 0.907706C8.31182 4.25232 8.31182 9.53848 12.2618 12.8462C12.524 13.0646 12.7793 13.2 12.4252 13.56C12.0711 13.92 11.8736 13.5816 11.6863 13.4308C10.6667 12.6161 9.84887 11.6162 9.28616 10.4964C8.72346 9.37662 8.42858 8.16213 8.42078 6.93232Z" fill="#F65B35"/>
<path d="M11.2437 6.38772C11.2709 5.05234 12.0166 3.52311 13.4842 2.28003C13.6885 2.10465 13.8588 1.87696 14.1653 2.22465C14.3968 2.49234 14.3559 2.61542 14.1006 2.84003C11.4173 5.30157 11.4275 8.4185 14.1346 10.9293C14.4343 11.2062 14.3117 11.3262 14.1346 11.5447C13.8758 11.88 13.7022 11.64 13.5149 11.4985C12.1188 10.4616 11.2403 8.64926 11.2437 6.38772Z" fill="#413ADA"/>
<path d="M25.0923 6.89542C25.091 7.76622 24.8873 8.62707 24.4943 9.42216C24.1012 10.2172 23.5277 10.9288 22.8108 11.5108C22.627 11.6616 22.4499 11.8985 22.1911 11.5662C22.014 11.3416 21.888 11.2154 22.1911 10.9508C24.9152 8.43696 24.9152 5.35696 22.2252 2.86773C21.9085 2.57542 22.0038 2.43388 22.2252 2.18773C22.5214 1.84619 22.678 2.1508 22.8381 2.28619C23.5468 2.87135 24.1132 3.58326 24.5013 4.37674C24.8893 5.17021 25.0906 6.02792 25.0923 6.89542Z" fill="#413ADA"/>
<path d="M13.9302 6.84313C13.9541 5.83377 14.4121 4.8725 15.2072 4.16313C15.3536 4.0339 15.5136 3.77236 15.7554 4.08005C15.9052 4.27697 16.1402 4.38775 15.8473 4.72313C14.4206 6.29544 14.4308 7.38467 15.878 9.08005C16.1436 9.38774 15.878 9.49236 15.7724 9.67082C15.5613 9.97851 15.391 9.76313 15.231 9.62159C14.817 9.26236 14.4882 8.8308 14.2646 8.35315C14.041 7.8755 13.9272 7.36175 13.9302 6.84313Z" fill="#F8C853"/>
<path d="M21.493 6.86154C21.5053 6.48122 21.4296 6.10276 21.2707 5.75042C21.1118 5.39807 20.8732 5.07959 20.5702 4.81539C20.2297 4.50769 20.2876 4.32 20.5702 4.07077C20.9448 3.74462 21.064 4.1477 21.2138 4.28923C21.9727 5.0046 22.3888 5.9616 22.3715 6.95246C22.3543 7.94332 21.9053 8.88806 21.1218 9.58154C20.9856 9.69846 20.846 10.0123 20.577 9.7077C20.3931 9.50154 20.1139 9.34154 20.4919 9.02154C20.8232 8.74945 21.0846 8.41505 21.2576 8.04187C21.4305 7.66869 21.5109 7.2658 21.493 6.86154Z" fill="#F8C853"/>
<path d="M32.386 12.12C30.5881 14.8892 28.8821 15.8123 25.2863 15.8554C19.6781 15.9077 14.0664 15.8769 8.45818 15.8769C7.31322 15.8244 6.16774 15.9706 5.08369 16.3077C3.72164 16.7938 3.33346 17.8615 3.13936 19.0461C3.00316 19.8861 3.5616 20.2769 4.26306 20.6308C7.17104 22.1077 7.28 26.6308 4.45715 28.28C3.0304 29.1169 2.72394 30.2123 3.57863 31.5538C3.77803 31.8712 4.03205 32.1579 4.33116 32.4031C4.99145 32.9139 5.81678 33.2183 6.6841 33.2708L7.48431 33.3231C14.4784 33.3231 21.4726 33.3785 28.4633 33.2708C30.411 33.24 31.5279 32.8431 32.1272 31.8738C32.5086 31.2738 32.6993 30.44 32.7742 29.3323C32.8014 28.9015 32.798 28.4615 32.8048 28.0277C32.9206 24.0092 32.512 19.9754 33.3837 15.9692C33.5485 15.3011 33.5443 14.6081 33.3716 13.9416C33.1989 13.2751 32.862 12.6525 32.386 12.12ZM10.6749 21.2308C10.6749 19.8769 11.533 19.2154 12.9427 19.2092C18.0027 19.2092 23.0662 19.2369 28.1262 19.2585C29.6789 19.2585 30.4894 20.0215 30.5098 21.3723C30.5472 23.6061 30.5404 25.8369 30.4553 28.0677C30.4008 29.3815 29.4951 29.9754 28.0547 29.9692C25.5826 29.9538 23.1104 29.9692 20.6417 29.9692C18.173 29.9692 15.6975 30.0215 13.2254 29.9692C11.1823 29.9138 10.6477 29.44 10.6136 27.6215C10.5796 25.4738 10.6511 23.3477 10.6749 21.2308Z" fill="url(#paint0_linear_1_25)"/>
<path d="M5.38336 24.56C5.38336 26.6523 4.5491 27.9292 3.14619 27.9446C1.74328 27.96 0.847726 26.64 0.820485 24.6153C0.793244 22.5907 1.80116 21.1046 3.2211 21.0953C4.50483 21.0738 5.36974 22.4615 5.38336 24.56Z" fill="url(#paint1_linear_1_25)"/>
<path d="M26.0354 23.8062C26.771 23.8708 27.5303 24.0215 28.0479 24.6338C28.4224 25.08 28.7834 25.6554 28.2283 26.0862C27.6733 26.5169 27.3532 25.9262 27.0263 25.5508C26.4066 24.8462 25.7733 24.8646 25.0854 25.5508C24.7449 25.8862 24.4044 26.7108 23.7234 26.0277C23.107 25.4123 23.771 24.9231 24.1967 24.4892C24.6874 24.0534 25.3473 23.8082 26.0354 23.8062Z" fill="url(#paint2_linear_1_25)"/>
<path d="M16.6033 23.8831C17.2961 23.9144 17.9518 24.1751 18.4455 24.6154C18.8813 25.0369 19.2048 25.5693 18.6498 26.0523C17.9687 26.6431 17.7747 25.8985 17.4716 25.5723C16.7701 24.8123 16.1095 24.7908 15.3979 25.5723C15.0982 25.8985 14.7918 26.6062 14.1618 26.0646C13.6238 25.6031 14.0188 25.0492 14.3968 24.6123C14.8803 24.0585 15.5647 23.88 16.6033 23.8831Z" fill="url(#paint3_linear_1_25)"/>
<path d="M41.509 54.2923H38.7325L46.7628 32.4226H49.4965L57.5268 54.2923H54.7504L48.2151 35.8825H48.0442L41.509 54.2923ZM42.5341 45.7495H53.7252V48.0987H42.5341V45.7495Z" fill="#413ADA"/>
<path d="M77.5037 39.2569H74.8554C74.6988 38.4952 74.4247 37.826 74.0331 37.2494C73.6487 36.6727 73.1788 36.1886 72.6236 35.7971C72.0754 35.3984 71.4667 35.0994 70.7975 34.9001C70.1283 34.7007 69.4307 34.6011 68.7045 34.6011C67.3804 34.6011 66.1808 34.9357 65.1059 35.6049C64.038 36.274 63.1873 37.26 62.5537 38.5628C61.9272 39.8656 61.614 41.4638 61.614 43.3575C61.614 45.2511 61.9272 46.8494 62.5537 48.1521C63.1873 49.4549 64.038 50.4409 65.1059 51.1101C66.1808 51.7793 67.3804 52.1139 68.7045 52.1139C69.4307 52.1139 70.1283 52.0142 70.7975 51.8149C71.4667 51.6155 72.0754 51.3201 72.6236 50.9286C73.1788 50.5299 73.6487 50.0422 74.0331 49.4656C74.4247 48.8818 74.6988 48.2127 74.8554 47.458H77.5037C77.3043 48.5757 76.9413 49.5759 76.4144 50.4587C75.8876 51.3415 75.2327 52.0925 74.4496 52.7119C73.6665 53.3241 72.7873 53.7904 71.812 54.1108C70.8438 54.4311 69.808 54.5913 68.7045 54.5913C66.8394 54.5913 65.1806 54.1357 63.7283 53.2244C62.2761 52.3132 61.1335 51.0176 60.3005 49.3375C59.4676 47.6574 59.0511 45.664 59.0511 43.3575C59.0511 41.0509 59.4676 39.0576 60.3005 37.3775C61.1335 35.6974 62.2761 34.4017 63.7283 33.4905C65.1806 32.5793 66.8394 32.1237 68.7045 32.1237C69.808 32.1237 70.8438 32.2838 71.812 32.6042C72.7873 32.9245 73.6665 33.3944 74.4496 34.0138C75.2327 34.626 75.8876 35.3735 76.4144 36.2562C76.9413 37.1319 77.3043 38.1321 77.5037 39.2569Z" fill="#413ADA"/>
<path d="M82.6801 54.2923H79.9037L87.9339 32.4226H90.6676L98.6979 54.2923H95.9215L89.3862 35.8825H89.2153L82.6801 54.2923ZM83.7052 45.7495H94.8963V48.0987H83.7052V45.7495Z" fill="#413ADA"/>
<path d="M108.853 54.2923H102.104V32.4226H109.152C111.274 32.4226 113.089 32.8605 114.598 33.7361C116.107 34.6046 117.264 35.854 118.069 37.4843C118.873 39.1074 119.275 41.0509 119.275 43.3148C119.275 45.5929 118.87 47.5541 118.058 49.1986C117.247 50.836 116.065 52.0961 114.513 52.9788C112.961 53.8545 111.074 54.2923 108.853 54.2923ZM104.753 51.943H108.682C110.491 51.943 111.989 51.5942 113.178 50.8965C114.367 50.1989 115.253 49.2058 115.837 47.9172C116.421 46.6287 116.713 45.0945 116.713 43.3148C116.713 41.5492 116.424 40.0293 115.848 38.755C115.271 37.4736 114.41 36.4912 113.263 35.8077C112.117 35.1172 110.69 34.7719 108.981 34.7719H104.753V51.943Z" fill="#413ADA"/>
<path d="M123.718 54.2923V32.4226H136.916V34.7719H126.366V42.1615H136.233V44.5108H126.366V51.943H137.087V54.2923H123.718Z" fill="#413ADA"/>
<path d="M141.69 32.4226H144.851L152.283 50.5762H152.539L159.971 32.4226H163.132V54.2923H160.655V37.6765H160.441L153.607 54.2923H151.215L144.381 37.6765H144.167V54.2923H141.69V32.4226Z" fill="#413ADA"/>
<path d="M171.09 32.4226V54.2923H168.442V32.4226H171.09Z" fill="#413ADA"/>
<path d="M177.297 54.2923H174.521L182.551 32.4226H185.285L193.315 54.2923H190.539L184.003 35.8825H183.833L177.297 54.2923ZM178.322 45.7495H189.514V48.0987H178.322V45.7495Z" fill="#413ADA"/>
<path d="M48.2815 18.7983C48.1928 18.0492 47.833 17.4676 47.2022 17.0536C46.5713 16.6396 45.7975 16.4326 44.8808 16.4326C44.2105 16.4326 43.624 16.541 43.1213 16.7579C42.6235 16.9747 42.2341 17.2729 41.9532 17.6524C41.6772 18.0319 41.5392 18.4632 41.5392 18.9462C41.5392 19.3503 41.6353 19.6978 41.8275 19.9886C42.0247 20.2744 42.276 20.5135 42.5816 20.7057C42.8872 20.893 43.2075 21.0482 43.5427 21.1715C43.8778 21.2897 44.1859 21.3859 44.4668 21.4598L46.0045 21.8738C46.3988 21.9773 46.8374 22.1202 47.3205 22.3026C47.8084 22.4849 48.2741 22.7338 48.7177 23.0493C49.1662 23.3598 49.5359 23.759 49.8267 24.2469C50.1174 24.7348 50.2628 25.3337 50.2628 26.0434C50.2628 26.8615 50.0484 27.6008 49.6197 28.2613C49.1958 28.9217 48.5748 29.4466 47.7566 29.836C46.9434 30.2253 45.9552 30.42 44.7921 30.42C43.7078 30.42 42.7689 30.245 41.9754 29.8951C41.1868 29.5452 40.5658 29.0572 40.1124 28.4313C39.6639 27.8054 39.41 27.0784 39.3509 26.2504H41.2435C41.2928 26.8221 41.485 27.2953 41.8201 27.6698C42.1602 28.0395 42.589 28.3155 43.1065 28.4978C43.6289 28.6753 44.1908 28.764 44.7921 28.764C45.4919 28.764 46.1203 28.6506 46.6773 28.4239C47.2342 28.1923 47.6753 27.8719 48.0006 27.4628C48.3259 27.0488 48.4885 26.5658 48.4885 26.0138C48.4885 25.5111 48.3481 25.102 48.0671 24.7866C47.7862 24.4712 47.4166 24.2149 46.9582 24.0177C46.4998 23.8206 46.0045 23.6481 45.4722 23.5002L43.6092 22.9679C42.4263 22.6279 41.4899 22.1424 40.7999 21.5115C40.1099 20.8807 39.7649 20.0551 39.7649 19.0349C39.7649 18.1872 39.9941 17.4479 40.4524 16.817C40.9157 16.1812 41.5367 15.6884 42.3154 15.3384C43.0991 14.9836 43.9739 14.8062 44.9399 14.8062C45.9158 14.8062 46.7832 14.9811 47.5422 15.331C48.3012 15.6761 48.9025 16.1492 49.3461 16.7505C49.7946 17.3518 50.0312 18.0344 50.0558 18.7983H48.2815Z" fill="#F8C853"/>
<path d="M52.4493 16.6396V15.0132H63.8048V16.6396H59.0438V30.1539H57.2103V16.6396H52.4493Z" fill="#F8C853"/>
<path d="M66.6345 30.1539V15.0132H75.7721V16.6396H68.4679V21.7555H75.299V23.3819H68.4679V28.5274H75.8904V30.1539H66.6345Z" fill="#F8C853"/>
<path d="M79.0767 15.0132H81.265L86.4105 27.5811H86.5879L91.7334 15.0132H93.9217V30.1539H92.2066V18.6505H92.0587L87.3272 30.1539H85.6712L80.9398 18.6505H80.7919V30.1539H79.0767V15.0132Z" fill="#F8C853"/>
<path d="M106.203 30.1539L102.063 15.0132H103.926L107.09 27.3445H107.238L110.462 15.0132H112.532L115.755 27.3445H115.903L119.067 15.0132H120.93L116.79 30.1539H114.897L111.556 18.0886H111.437L108.096 30.1539H106.203Z" fill="#F8C853"/>
<path d="M125.048 15.0132V30.1539H123.214V15.0132H125.048Z" fill="#F8C853"/>
<path d="M128.221 30.1539V28.8231L136.383 16.6396H128.132V15.0132H138.571V16.3439L130.409 28.5274H138.66V30.1539H128.221Z" fill="#F8C853"/>
<path d="M142.356 30.1539H140.434L145.994 15.0132H147.886L153.446 30.1539H151.524L146.999 17.4085H146.881L142.356 30.1539ZM143.066 24.2395H150.814V25.866H143.066V24.2395Z" fill="#F8C853"/>
<path d="M155.804 30.1539V15.0132H160.92C162.103 15.0132 163.074 15.2152 163.833 15.6194C164.592 16.0186 165.154 16.5681 165.518 17.268C165.883 17.9679 166.066 18.7638 166.066 19.6559C166.066 20.548 165.883 21.339 165.518 22.029C165.154 22.719 164.594 23.2612 163.84 23.6555C163.086 24.0448 162.123 24.2395 160.95 24.2395H156.81V22.5835H160.89C161.699 22.5835 162.349 22.4652 162.842 22.2286C163.34 21.9921 163.7 21.6569 163.922 21.2232C164.148 20.7846 164.262 20.2621 164.262 19.6559C164.262 19.0497 164.148 18.5199 163.922 18.0664C163.695 17.613 163.333 17.2631 162.835 17.0166C162.337 16.7653 161.679 16.6396 160.861 16.6396H157.638V30.1539H155.804ZM162.931 23.3524L166.657 30.1539H164.528L160.861 23.3524H162.931Z" fill="#F8C853"/>
<path d="M173.793 30.1539H169.121V15.0132H174C175.469 15.0132 176.726 15.3163 177.77 15.9225C178.815 16.5238 179.616 17.3887 180.173 18.5174C180.73 19.6411 181.008 20.9866 181.008 22.5539C181.008 24.1311 180.728 25.4889 180.166 26.6274C179.604 27.761 178.786 28.6334 177.711 29.2445C176.637 29.8507 175.331 30.1539 173.793 30.1539ZM170.954 28.5274H173.675C174.927 28.5274 175.964 28.2859 176.787 27.8029C177.61 27.3199 178.224 26.6324 178.628 25.7403C179.032 24.8482 179.234 23.7861 179.234 22.5539C179.234 21.3316 179.035 20.2794 178.635 19.3972C178.236 18.51 177.64 17.8299 176.846 17.3567C176.053 16.8786 175.065 16.6396 173.882 16.6396H170.954V28.5274Z" fill="#F8C853"/>
<path d="M192.364 18.7983C192.275 18.0492 191.915 17.4676 191.285 17.0536C190.654 16.6396 189.88 16.4326 188.963 16.4326C188.293 16.4326 187.706 16.541 187.204 16.7579C186.706 16.9747 186.317 17.2729 186.036 17.6524C185.76 18.0319 185.622 18.4632 185.622 18.9462C185.622 19.3503 185.718 19.6978 185.91 19.9886C186.107 20.2744 186.358 20.5135 186.664 20.7057C186.97 20.893 187.29 21.0482 187.625 21.1715C187.96 21.2897 188.268 21.3859 188.549 21.4598L190.087 21.8738C190.481 21.9773 190.92 22.1202 191.403 22.3026C191.891 22.4849 192.357 22.7338 192.8 23.0493C193.249 23.3598 193.618 23.759 193.909 24.2469C194.2 24.7348 194.345 25.3337 194.345 26.0434C194.345 26.8615 194.131 27.6008 193.702 28.2613C193.278 28.9217 192.657 29.4466 191.839 29.836C191.026 30.2253 190.038 30.42 188.875 30.42C187.79 30.42 186.851 30.245 186.058 29.8951C185.269 29.5452 184.648 29.0572 184.195 28.4313C183.746 27.8054 183.492 27.0784 183.433 26.2504H185.326C185.375 26.8221 185.567 27.2953 185.903 27.6698C186.243 28.0395 186.671 28.3155 187.189 28.4978C187.711 28.6753 188.273 28.764 188.875 28.764C189.574 28.764 190.203 28.6506 190.76 28.4239C191.317 28.1923 191.758 27.8719 192.083 27.4628C192.408 27.0488 192.571 26.5658 192.571 26.0138C192.571 25.5111 192.431 25.102 192.15 24.7866C191.869 24.4712 191.499 24.2149 191.041 24.0177C190.582 23.8206 190.087 23.6481 189.555 23.5002L187.692 22.9679C186.509 22.6279 185.572 22.1424 184.882 21.5115C184.192 20.8807 183.847 20.0551 183.847 19.0349C183.847 18.1872 184.077 17.4479 184.535 16.817C184.998 16.1812 185.619 15.6884 186.398 15.3384C187.182 14.9836 188.056 14.8062 189.022 14.8062C189.998 14.8062 190.866 14.9811 191.625 15.331C192.384 15.6761 192.985 16.1492 193.429 16.7505C193.877 17.3518 194.114 18.0344 194.138 18.7983H192.364Z" fill="#F8C853"/>
<path d="M21.5339 16.3907C21.098 16.2954 20.8528 16.2092 20.7677 15.7754C20.7123 15.4298 20.5573 15.1034 20.3183 14.829C20.0792 14.5547 19.7645 14.342 19.4057 14.2123C19.2208 14.1544 19.0647 14.0391 18.9649 13.887C18.8652 13.7349 18.8283 13.5558 18.8608 13.3815C18.8858 12.2041 18.8858 11.0266 18.8608 9.84919C18.8224 9.63293 18.8618 9.4112 18.9734 9.21674C19.085 9.02228 19.2628 8.86538 19.4806 8.7692C19.9085 8.55302 20.2361 8.20502 20.4036 7.78871C20.5711 7.37241 20.5674 6.91555 20.3932 6.50151C20.2511 6.09744 19.9694 5.74519 19.5894 5.49652C19.2094 5.24785 18.7511 5.11587 18.282 5.11997C17.8107 5.12309 17.3528 5.26163 16.9745 5.51553C16.5962 5.76943 16.3171 6.12552 16.1776 6.53227C16.0214 6.95019 16.0312 7.40421 16.2051 7.81634C16.3791 8.22847 16.7065 8.573 17.131 8.79074C17.3359 8.87768 17.5044 9.0218 17.6117 9.20186C17.7189 9.38191 17.7594 9.58835 17.7269 9.79074C17.6963 10.9384 17.6963 12.0892 17.7269 13.2338C17.7269 13.7323 17.6384 14.043 17.0459 14.2677C16.7066 14.4046 16.4119 14.618 16.1901 14.8874C15.9683 15.1567 15.8268 15.4731 15.7792 15.8061C15.7077 16.2153 15.5102 16.3046 15.0982 16.3907C14.1487 16.5797 13.2199 16.8454 12.323 17.1846H24.2409C23.3673 16.8459 22.4611 16.5802 21.5339 16.3907ZM17.2128 7.11689C17.1947 6.98068 17.2118 6.84254 17.2626 6.71328C17.3135 6.58402 17.3967 6.46715 17.5059 6.3718C17.615 6.27645 17.7471 6.20521 17.8918 6.16366C18.0365 6.1221 18.1898 6.11136 18.3399 6.13227C19.0209 6.15381 19.3308 6.53227 19.3614 7.12612C19.3641 7.25426 19.3373 7.38151 19.2826 7.49976C19.2279 7.61802 19.1465 7.72468 19.0437 7.81296C18.9409 7.90124 18.8188 7.9692 18.6853 8.01252C18.5518 8.05585 18.4098 8.07358 18.2684 8.06458C18.1265 8.07856 17.9831 8.0637 17.8484 8.02111C17.7138 7.97852 17.5914 7.90926 17.4902 7.81841C17.389 7.72756 17.3116 7.61742 17.2636 7.49604C17.2156 7.37466 17.1982 7.24512 17.2128 7.11689Z" fill="url(#paint4_linear_1_25)"/>
<path d="M32.2431 32.7477H32.1477C31.5382 33.7169 30.4452 34.1138 28.4838 34.1415C21.4931 34.2492 14.499 34.1908 7.50483 34.1938L6.69781 34.1538C5.831 34.1018 5.00586 33.7986 4.34487 33.2892V37.0769C4.34487 39.0954 4.34487 41.1169 4.34487 43.1323C4.32786 43.6704 4.52886 44.1956 4.91012 44.6092C8.19266 48.402 11.4639 52.1969 14.7237 55.9938C15.8433 55.4961 17.0737 55.2352 18.3215 55.2309C19.5693 55.2266 20.8018 55.4791 21.9255 55.9692C25.14 52.2133 28.368 48.4626 31.6097 44.7169C32.0728 44.2076 32.3148 43.5634 32.2908 42.9046C32.2431 39.52 32.2533 36.1292 32.2431 32.7477ZM15.2821 35.1415C17.281 35.1846 19.2832 35.1815 21.2854 35.1631C21.8472 35.1631 22.0583 35.3354 22.0583 35.8431C22.0583 37.7692 22.0583 39.7046 22.0583 41.6308C22.0583 42.1477 21.8949 42.16 21.4216 41.9661C19.3411 41.1169 17.2333 41.0431 15.163 41.9938C14.55 42.28 14.5058 42.0338 14.516 41.5877C14.516 40.6185 14.516 39.6523 14.516 38.6923C14.516 37.7323 14.5398 36.8215 14.516 35.8861C14.4922 35.3631 14.6352 35.1292 15.2821 35.1415ZM7.05195 41.2523C7.07578 40.3292 7.05195 39.3846 7.05195 38.4492C7.05195 37.5692 7.07578 36.7015 7.05195 35.8215C7.05195 35.3354 7.18475 35.1077 7.78064 35.1292C8.91569 35.16 10.0507 35.16 11.1858 35.1292C11.7885 35.1077 11.9043 35.3508 11.8974 35.8338C11.8736 37.4923 11.8736 39.1477 11.8974 40.8092C11.8974 41.28 11.8259 41.5877 11.1858 41.4461C10.0339 41.2342 8.83889 41.3261 7.74319 41.7108C7.15751 41.88 7.04514 41.7354 7.05195 41.2523ZM21.4488 52.4677C21.1798 52.7754 20.9074 52.72 20.5737 52.6123C19.1075 52.1634 17.5175 52.1688 16.0551 52.6277C15.7384 52.72 15.4558 52.8492 15.1732 52.5108C12.8747 49.8246 10.5694 47.1477 8.23012 44.4277C9.77945 43.6154 11.1279 43.9138 12.398 44.7692C13.0177 45.1785 13.5694 45.9415 14.1959 45.9785C14.7271 46.0123 15.2992 45.2 15.8985 44.8338C17.7032 43.7446 19.7837 43.9661 21.6293 45.5323C22.2592 46.0708 22.61 46.1138 23.1991 45.5323C23.8169 44.9336 24.5756 44.4678 25.4192 44.1692C26.3897 43.8277 27.275 43.9138 28.3068 44.4769C26.0253 47.1415 23.7393 49.8051 21.4488 52.4677ZM28.8141 41.6523C27.6632 41.3446 26.4884 41.1261 25.283 41.4061C24.8744 41.5015 24.7518 41.3169 24.7518 40.9723C24.7518 39.2246 24.7518 37.481 24.7518 35.7415C24.7518 35.3108 24.9765 35.1569 25.4328 35.16C26.5701 35.1784 27.6972 35.1815 28.838 35.16C29.3658 35.1415 29.519 35.3354 29.519 35.7908C29.4951 36.6923 29.519 37.5969 29.519 38.4985C29.519 39.4 29.4951 40.3015 29.5394 41.2031C29.5224 41.7231 29.3453 41.7969 28.8141 41.6523Z" fill="url(#paint5_linear_1_25)"/>
<path d="M21.9119 55.9662C20.9017 57.1416 19.895 58.3169 18.8916 59.4923C18.4489 60.0154 18.2582 60.1569 17.7236 59.5292C16.7225 58.3508 15.718 57.1662 14.7101 55.9908C15.8297 55.493 17.0601 55.2321 18.3079 55.2278C19.5557 55.2236 20.7882 55.4761 21.9119 55.9662Z" fill="#F8C853"/>
<defs>
<linearGradient id="paint0_linear_1_25" x1="33.4961" y1="22.7323" x2="3.10531" y2="22.7323" gradientUnits="userSpaceOnUse">
<stop offset="0.03" stop-color="#FF4040"/>
<stop offset="1" stop-color="#ED1566"/>
</linearGradient>
<linearGradient id="paint1_linear_1_25" x1="5.38336" y1="24.5138" x2="0.81708" y2="24.5138" gradientUnits="userSpaceOnUse">
<stop stop-color="#FF4040"/>
<stop offset="0.61" stop-color="#ED1566"/>
</linearGradient>
<linearGradient id="paint2_linear_1_25" x1="28.5144" y1="25.0431" x2="23.4714" y2="25.0431" gradientUnits="userSpaceOnUse">
<stop offset="0.03" stop-color="#FF4040"/>
<stop offset="1" stop-color="#ED1566"/>
</linearGradient>
<linearGradient id="paint3_linear_1_25" x1="18.9426" y1="25.0831" x2="13.8996" y2="25.0831" gradientUnits="userSpaceOnUse">
<stop offset="0.03" stop-color="#FF4040"/>
<stop offset="1" stop-color="#ED1566"/>
</linearGradient>
<linearGradient id="paint4_linear_1_25" x1="24.2273" y1="11.1354" x2="12.3162" y2="11.1354" gradientUnits="userSpaceOnUse">
<stop offset="0.03" stop-color="#FF4040"/>
<stop offset="1" stop-color="#ED1566"/>
</linearGradient>
<linearGradient id="paint5_linear_1_25" x1="32.2737" y1="44.3692" x2="4.33125" y2="44.3692" gradientUnits="userSpaceOnUse">
<stop offset="0.03" stop-color="#FF4040"/>
<stop offset="1" stop-color="#ED1566"/>
</linearGradient>
</defs>
</svg>
