<svg width="360" height="80" viewBox="0 0 360 80" fill="none" xmlns="http://www.w3.org/2000/svg">
<path d="M-224.706 79.9906C-247.953 79.9906 -252 0 -252 0H612C612 0 608.458 79.9906 586.197 79.9906C572.333 79.9906 569.277 60.0415 555.415 59.8795C541.945 59.8795 535.837 80.2892 519.414 79.9906C505.552 79.7387 502.494 60.0415 488.631 59.8795C475.569 59.8795 469.25 80.285 453.056 79.9906C439.195 79.7387 436.136 60.0415 422.274 59.8795C408.158 59.7146 404.855 80.5041 390.746 79.9906C377.391 79.5046 374.807 60.4307 361.455 59.8795C347.239 59.2927 343.831 80.2263 329.607 79.9906C315.746 79.761 312.688 59.8795 298.825 59.8795C284.962 59.8795 283.852 79.9906 269.989 79.9906C256.125 79.9906 256.822 59.8795 241.32 59.8795C225.817 59.8795 228.426 79.9906 214.562 79.9906C200.698 79.9906 200.083 60.0415 186.221 59.8795C172.751 59.8795 166.643 80.2892 150.22 79.9906C136.358 79.7387 133.3 60.0415 119.437 59.8795C106.375 59.8795 100.057 80.285 83.8621 79.9906C70.0007 79.7387 66.9423 60.0415 53.0798 59.8795C38.9642 59.7146 35.6612 80.5041 21.552 79.9906C8.19745 79.5046 5.61346 60.4307 -7.73909 59.8795C-21.9551 59.2927 -25.3626 80.2263 -39.5865 79.9906C-53.4482 79.761 -56.5056 59.8795 -70.3687 59.8795C-84.2319 59.8795 -87.2878 79.9906 -101.151 79.9906C-115.014 79.9906 -118.07 59.9728 -131.933 59.8795C-145.941 59.7853 -149.135 80.1811 -163.142 79.9906C-176.86 79.8041 -179.78 60.0661 -193.498 59.8795C-207.504 59.689 -210.678 79.9906 -224.706 79.9906Z" fill="url(#paint0_linear_94_144)"/>
<defs>
<linearGradient id="paint0_linear_94_144" x1="-252" y1="54.5665" x2="612" y2="54.5665" gradientUnits="userSpaceOnUse">
<stop stop-color="#F65B35"/>
<stop offset="1" stop-color="#ED1566"/>
</linearGradient>
</defs>
</svg>
