<svg width="1920" height="112" viewBox="0 0 1920 112" fill="none" xmlns="http://www.w3.org/2000/svg">
<path d="M-255.414 111.979C-321.495 111.979 -333 0 -333 0H2123C2123 0 2112.93 111.979 2049.65 111.979C2010.24 111.979 2001.56 68.0551 1962.15 67.6984C1923.86 67.6984 1906.5 112.637 1859.81 111.979C1820.41 111.425 1811.72 68.0551 1772.31 67.6984C1735.18 67.6984 1717.22 112.628 1671.19 111.979C1631.78 111.425 1623.09 68.0551 1583.69 67.6984C1543.56 67.3352 1534.17 113.11 1494.06 111.979C1456.1 110.909 1448.76 68.912 1410.8 67.6984C1370.39 66.4064 1360.71 112.498 1320.27 111.979C1280.87 111.474 1272.18 67.6984 1232.77 67.6984C1193.36 67.6984 1190.21 111.979 1150.8 111.979C1111.39 111.979 1113.37 67.6984 1069.31 67.6984C1025.24 67.6984 1032.65 111.979 993.245 111.979C953.836 111.979 952.089 68.0551 912.684 67.6984C874.393 67.6984 857.032 112.637 810.347 111.979C770.944 111.425 762.25 68.0551 722.845 67.6984C685.714 67.6984 667.753 112.628 621.719 111.979C582.317 111.425 573.623 68.0551 534.218 67.6984C494.093 67.3352 484.703 113.11 444.597 111.979C406.635 110.909 399.29 68.912 361.334 67.6984C320.924 66.4064 311.238 112.498 270.805 111.979C231.402 111.474 222.711 67.6984 183.304 67.6984C143.896 67.6984 135.21 111.979 95.8023 111.979C56.3949 111.979 47.7076 67.9038 8.3009 67.6984C-31.5166 67.4909 -40.5963 112.399 -80.4116 111.979C-119.407 111.569 -127.707 68.1092 -166.702 67.6984C-206.517 67.279 -215.538 111.979 -255.414 111.979Z" fill="url(#paint0_linear_5_151)"/>
<defs>
<linearGradient id="paint0_linear_5_151" x1="-333" y1="56" x2="2123" y2="56" gradientUnits="userSpaceOnUse">
<stop stop-color="#F65B35"/>
<stop offset="1" stop-color="#ED1566"/>
</linearGradient>
</defs>
</svg>
