<svg width="99" height="147" viewBox="0 0 99 147" fill="none" xmlns="http://www.w3.org/2000/svg">
<g opacity="0.3">
<path d="M2.1264 27.8313C11.8651 30.614 21.8168 32.5225 31.8679 33.5475C33.6364 35.9403 37.3526 37.7795 42.0525 38.7154V43.0621C42.0525 43.8346 42.6788 44.4609 43.4514 44.4609H55.1328C55.9054 44.4609 56.5317 43.8346 56.5317 43.0621V38.7154C61.2313 37.7795 64.9474 35.9403 66.716 33.5475C76.767 32.5225 86.7187 30.614 96.4575 27.8313C96.932 27.6956 97.2999 27.3203 97.4262 26.843C97.5517 26.3659 97.4171 25.8578 97.0709 25.506C89.7774 18.0863 80.0418 13.656 69.6572 13.0307C69.419 13.0167 69.1812 13.0121 68.9441 13.0132C65.6234 5.18884 57.8554 0 49.2921 0C40.7288 0 32.9608 5.18849 29.6401 13.0125C29.4027 13.0118 29.1649 13.0167 28.9267 13.0307C18.5424 13.656 8.8068 18.0863 1.51298 25.506C1.16711 25.8578 1.03212 26.3659 1.15767 26.843C1.28392 27.3203 1.65148 27.6956 2.1264 27.8313ZM49.2918 31.6394C36.1334 31.6394 23.0356 30.1003 10.2526 27.0626H88.3316C75.5482 30.0999 62.4504 31.6394 49.2918 31.6394ZM53.7339 41.6632H44.8503V39.1508C46.2747 39.3137 47.7621 39.4005 49.2921 39.4005C50.8221 39.4005 52.3095 39.3137 53.7339 39.1508V41.6632ZM49.2921 36.6027C43.8322 36.6027 39.4576 35.4713 36.7133 33.9717C40.8949 34.2788 45.0902 34.4372 49.2918 34.4372C53.4937 34.4372 57.6889 34.2788 61.8706 33.9717C59.1263 35.4713 54.7516 36.6027 49.2921 36.6027ZM49.2921 2.79778C56.4733 2.79778 63.01 6.9969 66.0519 13.4003C65.5668 13.5301 65.0873 13.6885 64.6176 13.8833C59.7348 15.9092 54.5789 16.9364 49.2924 16.9364C44.006 16.9364 38.8497 15.9089 33.9669 13.8833C33.4972 13.6885 33.0181 13.5297 32.5327 13.4C35.5742 6.9969 42.1112 2.79778 49.2921 2.79778ZM29.0946 15.8236C30.3931 15.7449 31.6818 15.9648 32.894 16.4674C38.1185 18.635 43.6357 19.7345 49.2921 19.7345C54.9485 19.7345 60.4654 18.635 65.6899 16.4674C66.902 15.9645 68.1897 15.7459 69.4893 15.8236C77.5756 16.3104 85.2352 19.276 91.5068 24.2648H7.07742C13.3487 19.276 21.0083 16.3104 29.0946 15.8236Z" fill="url(#paint0_linear_18_276)"/>
<path d="M54.7656 8.32445C56.2729 8.95675 58.2939 10.1535 59.3648 12.2679C59.6113 12.7547 60.103 13.0349 60.6136 13.0349C60.8263 13.0349 61.0424 12.9859 61.2449 12.8834C61.9342 12.5344 62.2098 11.6926 61.8607 11.0033C60.4055 8.13035 57.7875 6.55765 55.8476 5.7442C55.1359 5.44553 54.3158 5.78057 54.0168 6.4933C53.7178 7.20569 54.0532 8.02544 54.7656 8.32445Z" fill="url(#paint1_linear_18_276)"/>
<path d="M98.461 145.028L54.6565 47.4168C54.34 46.7118 53.5115 46.3977 52.8075 46.7132C52.1025 47.0293 51.7877 47.8571 52.1039 48.5622L95.9084 146.173C96.1413 146.692 96.6512 147 97.1852 147C97.3769 147 97.5713 146.96 97.7574 146.877C98.4624 146.561 98.7772 145.733 98.461 145.028Z" fill="url(#paint2_linear_18_276)"/>
<path d="M45.7764 46.7132C45.0714 46.3977 44.2439 46.7118 43.9274 47.4168L0.122904 145.028C-0.193245 145.733 0.121505 146.561 0.826546 146.877C1.0126 146.96 1.20705 147 1.39869 147C1.93272 147 2.44262 146.692 2.67553 146.174L46.4801 48.5625C46.7962 47.8575 46.4814 47.0297 45.7764 46.7132Z" fill="url(#paint3_linear_18_276)"/>
<path d="M64.4621 102.865C61.1324 102.319 50.0179 100.123 46.7791 94.7472C46.7375 94.6783 46.6931 94.6122 46.649 94.5454C47.1522 94.1065 47.2855 93.3592 46.9274 92.7688L44.9707 89.5426C44.5576 88.8624 43.6571 88.6578 42.9888 89.1111C42.3607 89.537 42.2267 90.4135 42.6202 91.0622L43.2287 92.0655C42.923 91.9851 42.6111 91.9302 42.2956 91.8998L40.6072 89.1156C40.2284 88.491 39.4332 88.2102 38.7753 88.5277C38.0206 88.8922 37.7597 89.8154 38.1836 90.5149L39.323 92.3939C38.8306 92.6171 38.3672 92.9059 37.9503 93.2609C36.8756 94.1751 35.6834 95.1351 34.4059 96.115C34.18 96.2881 33.9929 96.5179 33.9023 96.7875C33.6795 97.4516 33.9618 98.1325 34.5199 98.4581C37.8643 100.409 39.0205 102.47 39.5615 105.228C39.5633 105.245 39.5685 105.262 39.5713 105.279C39.8053 106.493 39.9235 107.841 40.0567 109.375C40.0791 109.632 40.1018 109.892 40.1256 110.156C40.3396 112.54 39.9822 114.955 38.9887 117.132C38.0346 119.223 36.9183 120.358 36.8865 120.39C36.3364 120.928 36.3252 121.811 36.862 122.364C37.1362 122.646 37.5006 122.788 37.8654 122.788C38.2168 122.788 38.5683 122.656 38.84 122.392C38.9747 122.262 41.705 119.553 42.7405 114.641C43.3871 115.138 44.1922 115.712 45.1623 116.329C44.9875 118.852 43.2539 122.616 42.5352 123.965C42.1718 124.646 42.4299 125.494 43.1112 125.857C43.321 125.969 43.5462 126.022 43.7683 126.022C44.2684 126.022 44.7517 125.753 45.0035 125.282C45.2658 124.79 47.1522 121.177 47.7768 117.855C49.849 118.966 52.4016 120.119 55.4725 121.153C54.5261 122.961 52.5254 124.518 51.706 125.035C51.0527 125.446 50.8548 126.308 51.2643 126.962C51.5301 127.386 51.9858 127.619 52.4516 127.619C52.7051 127.619 52.9618 127.55 53.1927 127.405C53.3546 127.304 56.7647 125.137 58.1766 121.989C58.7116 122.141 59.2551 122.29 59.8171 122.433C60.1623 122.52 60.511 122.565 60.8533 122.565H60.854C61.0254 122.565 61.1922 122.552 61.3562 122.532C60.4277 126.205 58.5231 128.441 58.4976 128.471C57.9898 129.05 58.0465 129.932 58.6245 130.442C58.8907 130.676 59.2205 130.791 59.5492 130.791C59.9367 130.791 60.3228 130.631 60.5991 130.318C60.7239 130.176 63.5263 126.946 64.3999 121.659C64.4002 121.656 64.4009 121.653 64.4013 121.651C64.5079 120.996 64.7318 120.362 65.0997 119.81C66.4762 117.745 67.3715 114.871 67.9817 112.457C68.2118 111.546 68.6759 109.475 68.7228 109.275C69.0571 107.853 68.784 106.341 67.9737 105.129C67.17 103.923 65.8897 103.099 64.4621 102.865ZM64.004 115.756C63.3136 115.631 62.5946 115.429 61.8766 115.142C60.5242 114.604 59.3208 113.835 58.5756 113.031C57.9755 112.385 57.8849 111.943 57.9199 111.856C58.066 111.489 60.12 111.025 63.0524 112.196C63.7109 112.459 64.3254 112.776 64.8783 113.125C64.5817 114.143 64.2897 115.014 64.004 115.756ZM52.0134 102.222C53.4095 102.862 55.0371 103.476 56.9322 104.038C56.4479 104.779 55.6117 105.262 54.6772 105.262C53.1944 105.262 51.9879 104.055 51.9879 102.572C51.9879 102.454 51.9987 102.338 52.0134 102.222ZM44.1016 111.492C43.7939 111.492 43.4973 111.462 43.2161 111.404C43.1518 111.347 43.0916 111.293 43.0402 111.246C42.965 110.518 42.9038 109.816 42.844 109.132C42.7601 108.17 42.6789 107.244 42.5674 106.351C44.3387 106.845 46.8508 108.956 46.9861 109.776C46.9861 110.588 45.8016 111.492 44.1016 111.492ZM60.8547 119.766C60.7442 119.766 60.6271 119.751 60.5061 119.72C54.0054 118.071 49.4181 115.72 46.5308 113.866C48.4679 113.154 49.7839 111.611 49.7839 109.776C49.7839 108.044 47.9636 106.389 46.8784 105.557C46.2465 105.072 44.0582 103.516 42.0201 103.453C41.379 101.124 40.176 99.0443 37.623 97.1516C38.3749 96.5521 39.0908 95.9636 39.7633 95.3914C40.3117 94.9245 41.0118 94.6675 41.735 94.6675C42.2914 94.6675 42.8381 94.82 43.3161 95.1078C43.7407 95.3634 44.1097 95.7387 44.3828 96.1919C45.135 97.4404 46.6102 99.1761 49.4573 100.885C49.2828 101.426 49.1904 101.994 49.1904 102.572C49.1904 105.598 51.6521 108.06 54.6776 108.06C56.898 108.06 58.847 106.721 59.7038 104.772C61.0296 105.084 62.4586 105.372 64.0103 105.626C64.6856 105.737 65.2672 106.112 65.6484 106.682C66.0348 107.261 66.1597 107.954 66.0002 108.634C65.9512 108.842 65.6868 110.009 65.6148 110.313C65.1294 110.051 64.6188 109.809 64.09 109.598C59.9514 107.945 56.2639 108.459 55.3214 110.82C55.028 111.556 54.794 113.07 56.5252 114.935C57.5586 116.049 59.0918 117.046 60.8407 117.741C61.4695 117.993 62.106 118.195 62.7355 118.349C62.0193 119.427 61.3776 119.766 60.8547 119.766Z" fill="url(#paint4_linear_18_276)"/>
</g>
<defs>
<linearGradient id="paint0_linear_18_276" x1="49.292" y1="0" x2="49.292" y2="44.4609" gradientUnits="userSpaceOnUse">
<stop stop-color="#FF4040"/>
<stop offset="1" stop-color="#413ADA"/>
</linearGradient>
<linearGradient id="paint1_linear_18_276" x1="57.9597" y1="5.63501" x2="57.9597" y2="13.0349" gradientUnits="userSpaceOnUse">
<stop stop-color="#FF4040"/>
<stop offset="1" stop-color="#413ADA"/>
</linearGradient>
<linearGradient id="paint2_linear_18_276" x1="75.2824" y1="46.5906" x2="75.2824" y2="147" gradientUnits="userSpaceOnUse">
<stop stop-color="#FF4040"/>
<stop offset="1" stop-color="#413ADA"/>
</linearGradient>
<linearGradient id="paint3_linear_18_276" x1="23.3015" y1="46.5906" x2="23.3015" y2="147" gradientUnits="userSpaceOnUse">
<stop stop-color="#FF4040"/>
<stop offset="1" stop-color="#413ADA"/>
</linearGradient>
<linearGradient id="paint4_linear_18_276" x1="51.3441" y1="88.3961" x2="51.3441" y2="130.791" gradientUnits="userSpaceOnUse">
<stop stop-color="#FF4040"/>
<stop offset="1" stop-color="#413ADA"/>
</linearGradient>
</defs>
</svg>
