<svg width="1920" height="298" viewBox="0 0 1920 298" fill="none" xmlns="http://www.w3.org/2000/svg">
<path d="M61.8865 130.357C51.7411 91.0804 16.4016 77.2698 0 75.2741V298H1920V94.4334C1906.3 57.3124 1865.22 69.8856 1862.68 75.8729C1842.39 61.0245 1827.51 79.2656 1822.61 90.2423C1812.46 75.2741 1810.43 92.0385 1795.72 99.2232C1768.83 35.7583 1710.5 98.0257 1694.27 120.179C1680.88 99.1034 1653.85 109.801 1642.02 117.784C1635.09 102.616 1606 69.1672 1545.13 56.7137C1484.26 44.2602 1443 79.0661 1429.98 98.0257C1432.18 84.0555 1428.97 52.8818 1398.53 39.9494C1360.49 23.7838 1321.43 50.7264 1318.89 56.1149C1316.35 46.5353 1294.54 43.5417 1290.48 43.5417C1278.31 15.2819 1249.9 3.82624 1237.22 1.6309C1228.77 -1.36273 1201.91 -2.32069 1162.15 17.7965C1112.43 42.943 1120.04 99.8219 1119.54 105.809C1077.94 87.8474 1057.65 124.37 1051.56 132.153C1026.2 104.013 975.472 127.962 970.906 132.153C972.428 114.191 952.645 108.204 942.499 105.809C946.152 86.6499 942.33 68.289 939.963 61.5034C939.456 59.5077 935.905 52.0436 925.76 38.1531C915.614 24.2627 891.435 27.5757 880.613 30.9684C880.444 24.582 874.526 12.6474 852.206 16.0003C824.307 20.1914 818.219 59.7072 820.248 75.2741C809.596 74.0767 799.45 87.8473 795.9 91.4397C791.842 59.348 770.875 46.9344 760.898 44.7391C748.893 41.945 718.389 42.5837 692.417 67.4907C666.445 92.3976 671.112 128.561 676.692 143.529C657.923 139.936 649.3 151.911 646.256 157.299C638.546 141.014 617.004 145.724 607.197 150.115C605.675 138.539 593.805 119.101 558.499 133.949C514.367 152.51 520.962 198.013 522.991 207.592C516.904 194.66 492.047 195.817 480.38 198.013C429.654 209.389 412.407 256.089 410.378 260.28C408.755 245.432 392.793 220.964 385.015 210.586C377.913 199.41 352.854 176.339 309.432 173.465C255.155 169.873 217.617 202.204 215.588 204.599C208.283 200.288 198.341 209.588 194.283 214.777C188.026 208.989 168.108 198.851 138.484 204.599C101.453 211.783 96.3805 265.07 95.366 271.656C91.84 246.686 63.8049 257.728 60.4324 259.056L60.3646 259.083C67.2634 236.571 51.7411 230.144 43.1177 229.745C53.6011 212.981 72.0317 169.633 61.8865 130.357Z" fill="url(#paint0_linear_38_543)" fill-opacity="0.2"/>
<defs>
<linearGradient id="paint0_linear_38_543" x1="1920" y1="149" x2="0" y2="149" gradientUnits="userSpaceOnUse">
<stop stop-color="#413ADA"/>
<stop offset="0.61" stop-color="#ED1566"/>
<stop offset="1" stop-color="#0EC167"/>
</linearGradient>
</defs>
</svg>
