<svg width="83" height="83" viewBox="0 0 83 83" fill="none" xmlns="http://www.w3.org/2000/svg">
<path d="M29.3519 67.9316C29.1479 70.9415 29.8689 72.8008 31.9055 74.5166C36.9033 78.7272 67.0011 53.8437 67.0011 53.8437C67.0011 53.8437 29.8626 60.3958 29.3519 67.9316Z" fill="#F65B35"/>
<path d="M23.4162 37.1863C21.577 39.5415 21.1481 41.4407 21.8973 43.9129C23.7359 49.9797 62.6638 45.4176 62.6638 45.4176C62.6638 45.4176 28.0209 31.2899 23.4162 37.1863Z" fill="#F65B35"/>
<path d="M35.3045 11.5399C32.4186 12.3147 30.9334 13.5738 30.0446 15.9993C27.8634 21.9515 61.7035 41.7265 61.7035 41.7265C61.7035 41.7265 42.5301 9.60005 35.3045 11.5399Z" fill="#F65B35"/>
</svg>
