<svg width="56" height="62" viewBox="0 0 56 62" fill="none" xmlns="http://www.w3.org/2000/svg">
<path d="M17.744 3.05815C15.8286 0.727406 14.0288 -0.131545 11.3699 0.0160539C4.8449 0.378269 0 39.1287 0 39.1287C0 39.1287 22.5396 8.89356 17.744 3.05815Z" fill="#F65B35"/>
<path d="M43.1464 21.3669C42.8702 18.3915 41.8801 16.715 39.6396 15.4293C34.1413 12.2741 8.93466 42.2878 8.93466 42.2878C8.93466 42.2878 43.838 28.8162 43.1464 21.3669Z" fill="#F65B35"/>
<path d="M52.0792 48.1863C53.6486 45.6434 53.8662 43.7085 52.85 41.3336C50.3562 35.5054 12.1649 44.3159 12.1649 44.3159C12.1649 44.3159 48.1501 54.5528 52.0792 48.1863Z" fill="#F65B35"/>
</svg>
