<svg width="1920" height="349" viewBox="0 0 1920 349" fill="none" xmlns="http://www.w3.org/2000/svg">
<g filter="url(#filter0_d_22_29)">
<path d="M1858.11 166.078C1868.26 198.896 1903.6 210.436 1920 212.103V26H0V196.094C13.6962 227.111 54.7847 216.606 57.321 211.603C77.6116 224.01 92.4914 208.768 97.395 199.596C107.54 212.103 109.569 198.095 124.28 192.092C151.165 245.121 209.501 193.093 225.733 174.582C239.125 192.192 266.145 183.254 277.982 176.583C284.914 189.257 313.997 217.206 374.869 227.612C435.741 238.018 476.999 208.935 490.018 193.093C487.82 204.766 491.033 230.814 521.469 241.619C559.514 255.127 598.573 232.615 601.11 228.112C603.646 236.116 625.458 238.618 629.516 238.618C641.691 262.231 670.098 271.803 682.779 273.637C691.234 276.139 718.085 276.939 757.855 260.13C807.567 239.118 799.958 191.592 800.465 186.589C842.061 201.597 862.351 171.08 868.439 164.577C893.802 188.09 944.528 168.079 949.094 164.577C947.572 179.585 967.355 184.588 977.501 186.589C973.848 202.598 977.67 217.94 980.037 223.61C980.544 225.277 984.095 231.514 994.24 243.12C1004.39 254.727 1028.57 251.959 1039.39 249.124C1039.56 254.46 1045.47 264.432 1067.79 261.631C1095.69 258.129 1101.78 225.11 1099.75 212.103C1110.4 213.104 1120.55 201.597 1124.1 198.596C1128.16 225.411 1149.13 235.783 1159.1 237.617C1171.11 239.952 1201.61 239.418 1227.58 218.607C1253.55 197.795 1248.89 167.579 1243.31 155.072C1262.08 158.073 1270.7 148.068 1273.74 143.565C1281.45 157.173 1303 153.237 1312.8 149.569C1314.32 159.241 1326.19 175.483 1361.5 163.076C1405.63 147.567 1399.04 109.546 1397.01 101.542C1403.1 112.348 1427.95 111.381 1439.62 109.546C1490.35 100.041 1507.59 61.0194 1509.62 57.5175C1511.25 69.9244 1527.21 90.369 1534.99 99.0405C1542.09 108.379 1567.15 127.656 1610.57 130.058C1664.85 133.059 1702.38 106.044 1704.41 104.043C1711.72 107.645 1721.66 99.8743 1725.72 95.5386C1731.97 100.375 1751.89 108.846 1781.52 104.043C1818.55 98.04 1823.62 53.5153 1824.63 48.0122C1828.16 68.8767 1856.2 59.6503 1859.57 58.5403L1859.64 58.5181C1852.74 77.3285 1868.26 82.6981 1876.88 83.0316C1866.4 97.0394 1847.97 133.259 1858.11 166.078Z" fill="#FFF9EB"/>
</g>
<defs>
<filter id="filter0_d_22_29" x="-50" y="0" width="2020" height="349" filterUnits="userSpaceOnUse" color-interpolation-filters="sRGB">
<feFlood flood-opacity="0" result="BackgroundImageFix"/>
<feColorMatrix in="SourceAlpha" type="matrix" values="0 0 0 0 0 0 0 0 0 0 0 0 0 0 0 0 0 0 127 0" result="hardAlpha"/>
<feOffset dy="24"/>
<feGaussianBlur stdDeviation="25"/>
<feComposite in2="hardAlpha" operator="out"/>
<feColorMatrix type="matrix" values="0 0 0 0 0 0 0 0 0 0 0 0 0 0 0 0 0 0 0.1 0"/>
<feBlend mode="normal" in2="BackgroundImageFix" result="effect1_dropShadow_22_29"/>
<feBlend mode="normal" in="SourceGraphic" in2="effect1_dropShadow_22_29" result="shape"/>
</filter>
</defs>
</svg>
