<svg width="155" height="153" viewBox="0 0 155 153" fill="none" xmlns="http://www.w3.org/2000/svg">
<path d="M88.8638 2.19044C69.8021 1.75503 70.5848 13.5538 60.5 18.5C48.5344 24.3686 27.4047 10.5071 16.4365 28.1629C6.25004 44.5604 22.3852 52.1658 19.5 64.5081C15.7295 80.6375 -2.43013 77.7282 2.50008 96.1558C7.50859 114.876 18.1021 107.098 28.5 116.5C39.9989 126.898 23.0574 139.458 39.5 146.5C54.9431 153.114 61.0681 134.242 74 133.5C87.6834 132.715 87.3749 155.504 105.545 149.579C124.048 143.545 115.553 131.38 127.5 121.5C138.994 111.994 148.179 117.48 152 99.7455C155.529 83.3636 142.828 87.879 144 74.5C145.047 62.5513 153.859 60.7057 148.199 45.689C142.292 30.0181 128.861 34.5899 118.004 28.1629C108.338 22.4411 108.679 2.64306 88.8638 2.19044Z" stroke="#F65B35" stroke-width="3"/>
</svg>
