<svg width="1920" height="319" viewBox="0 0 1920 319" fill="none" xmlns="http://www.w3.org/2000/svg">
<path d="M2019.96 139.543C2031.93 97.4989 2073.64 82.715 2093 80.5786V319H-173V101.088C-156.836 61.3512 -108.343 74.8104 -105.349 81.2196C-81.4021 65.3249 -63.8409 84.8515 -58.0536 96.6016C-46.08 80.5787 -43.6853 98.5244 -26.3236 106.215C5.40634 38.2782 74.2544 104.934 93.4122 128.648C109.217 106.087 141.107 117.538 155.076 126.084C163.258 109.847 197.582 74.0414 269.424 60.7103C341.265 47.3792 389.958 84.6379 405.324 104.934C402.73 89.9788 406.521 56.6084 442.442 42.7646C487.343 25.4598 533.441 54.3011 536.435 60.0693C539.428 49.8147 565.171 46.6101 569.961 46.6101C584.329 16.3588 617.855 4.09587 632.822 1.74583C642.8 -1.45876 674.49 -2.48422 721.426 19.0506C780.097 45.9691 771.117 106.856 771.715 113.265C820.807 94.0379 844.754 133.134 851.938 141.466C881.872 111.343 941.74 136.979 947.128 141.466C945.332 122.238 968.681 115.829 980.654 113.265C976.344 92.7561 980.854 73.1013 983.648 65.8376C984.246 63.7012 988.437 55.7111 1000.41 40.8418C1012.38 25.9725 1040.92 29.5189 1053.69 33.1508C1053.89 26.3143 1060.88 13.5387 1087.22 17.1278C1120.15 21.6143 1127.33 63.9148 1124.94 80.5787C1137.51 79.2968 1149.48 94.0379 1153.67 97.8834C1158.46 63.5303 1183.21 50.2419 1194.98 47.8918C1209.15 44.9009 1245.15 45.5845 1275.8 72.2467C1306.46 98.9089 1300.95 137.62 1294.36 153.643C1316.51 149.798 1326.69 162.616 1330.28 168.384C1339.38 150.951 1364.81 155.993 1376.38 160.693C1378.18 148.302 1392.19 127.494 1433.85 143.389C1485.94 163.257 1478.16 211.967 1475.76 222.221C1482.95 208.378 1512.28 209.617 1526.05 211.967C1585.92 224.144 1606.27 274.136 1608.67 278.622C1610.58 262.727 1629.42 236.535 1638.6 225.426C1646.98 213.462 1676.56 188.766 1727.81 185.689C1791.86 181.844 1836.17 216.453 1838.56 219.017C1847.18 214.402 1858.92 224.358 1863.71 229.912C1871.09 223.717 1894.6 212.864 1929.56 219.017C1973.26 226.708 1979.25 283.749 1980.45 290.8C1984.61 264.07 2017.7 275.89 2021.68 277.312L2021.76 277.34C2013.62 253.242 2031.93 246.363 2042.11 245.935C2029.74 227.99 2007.99 181.587 2019.96 139.543Z" fill="#FFE1DB"/>
</svg>
