<svg width="1195" height="282" viewBox="0 0 1195 282" fill="none" xmlns="http://www.w3.org/2000/svg">
<path d="M73.0388 123.358C61.0652 86.1902 19.3572 73.1211 0 71.2325V282H2266V89.3631C2249.84 54.2352 2201.34 66.1334 2198.35 71.7992C2174.4 57.748 2156.84 75.0098 2151.05 85.3971C2139.08 71.2326 2136.69 87.0968 2119.32 93.8957C2087.59 33.8384 2018.75 92.7626 1999.59 113.726C1983.78 93.7824 1951.89 103.905 1937.92 111.46C1929.74 97.1064 1895.42 65.4535 1823.58 53.6686C1751.73 41.8838 1703.04 74.8209 1687.68 92.7626C1690.27 79.5424 1686.48 50.0425 1650.56 37.8044C1605.66 22.5068 1559.56 48.0028 1556.57 53.1021C1553.57 44.0368 1527.83 41.2039 1523.04 41.2039C1508.67 14.4614 1475.15 3.6208 1460.18 1.54334C1450.2 -1.28956 1418.51 -2.19608 1371.57 16.841C1312.9 40.6373 1321.88 94.4623 1321.28 100.128C1272.19 83.1307 1248.25 117.692 1241.06 125.058C1211.13 98.4284 1151.26 121.092 1145.87 125.058C1147.67 108.06 1124.32 102.394 1112.35 100.128C1116.66 81.9976 1112.15 64.6225 1109.35 58.2012C1108.75 56.3126 1104.56 49.2493 1092.59 36.1047C1080.62 22.96 1052.08 26.0951 1039.31 29.3057C1039.11 23.2622 1032.12 11.9684 1005.78 15.1412C972.853 19.1073 965.669 56.5015 968.064 71.2325C955.492 70.0994 943.518 83.1307 939.327 86.5302C934.538 56.1615 909.792 44.4145 898.018 42.337C883.85 39.693 847.849 40.2973 817.197 63.867C786.544 87.4367 792.052 121.658 798.638 135.823C776.487 132.423 766.309 143.755 762.717 148.854C753.617 133.443 728.193 137.9 716.619 142.055C714.823 131.101 700.814 112.706 659.146 126.757C607.06 144.321 614.843 187.381 617.238 196.447C610.054 184.208 580.718 185.304 566.949 187.381C507.081 198.146 486.726 242.339 484.331 246.305C482.416 232.254 463.577 209.1 454.397 199.279C446.016 188.703 416.441 166.871 365.194 164.151C301.135 160.752 256.833 191.347 254.439 193.614C245.818 189.534 234.083 198.335 229.294 203.245C221.91 197.769 198.402 188.174 163.439 193.614C119.736 200.413 113.749 250.838 112.552 257.07C108.39 233.441 75.3025 243.89 71.3225 245.147L71.2427 245.172C79.3848 223.869 61.0652 217.788 50.8877 217.41C63.2605 201.546 85.0125 160.525 73.0388 123.358Z" fill="#FFE1DB"/>
</svg>
