<svg width="860" height="577" viewBox="0 0 860 577" fill="none" xmlns="http://www.w3.org/2000/svg">
<path opacity="0.6" d="M1.51957 212.695L1.51957 297.201C-3.31116 411.44 26.072 444.303 67.6222 488.121C100.862 523.175 187.237 545.501 226.269 552.282C321.33 567.41 546.583 590.779 687.099 563.236C827.614 535.694 860.224 427.61 858.965 377.011C857.077 341.54 852.922 265.276 851.411 243.994C849.522 217.39 823.081 132.884 705.985 59.3334C612.308 0.492515 421.429 -2.7416 337.699 2.99638C309.369 5.08299 227.779 18.9585 128.059 57.7685C28.3384 96.5784 2.14912 177.224 1.51957 212.695Z" stroke="black" stroke-dasharray="8 8"/>
</svg>
