<svg width="858" height="575" viewBox="0 0 858 575" fill="none" xmlns="http://www.w3.org/2000/svg">
<path opacity="0.6" d="M0.519571 211.695L0.519574 296.201C-4.31116 410.44 25.072 443.303 66.6222 487.121C99.8624 522.175 186.237 544.501 225.269 551.282C320.33 566.41 545.583 589.779 686.099 562.236C826.614 534.694 859.224 426.61 857.965 376.011C856.077 340.54 851.922 264.276 850.411 242.994C848.522 216.39 822.081 131.884 704.985 58.3334C611.308 -0.507485 420.429 -3.7416 336.699 1.99638C308.369 4.08299 226.779 17.9585 127.059 56.7685C27.3384 95.5784 1.14912 176.224 0.519571 211.695Z" fill="#FFD3CA"/>
</svg>
