<svg width="1920" height="274" viewBox="0 0 1920 274" fill="none" xmlns="http://www.w3.org/2000/svg">
<path d="M1858.11 119.468C1868.26 83.4721 1903.6 70.8152 1920 68.9861V273.107H0V86.545C13.6962 52.5249 54.7847 64.0478 57.321 69.5349C77.6116 55.9269 92.4914 72.6443 97.395 82.704C107.54 68.9862 109.569 84.3501 124.28 90.9347C151.165 32.7712 209.501 89.8372 225.733 110.14C239.125 90.8249 266.145 100.629 277.982 107.945C284.914 94.044 313.997 63.3893 374.869 51.9761C435.741 40.5629 476.999 72.4614 490.018 89.8372C487.82 77.034 491.033 48.4644 521.469 36.6122C559.514 21.797 598.573 46.489 601.11 51.4274C603.646 42.648 625.458 39.9045 629.516 39.9045C641.691 14.0053 670.098 3.50661 682.779 1.49466C691.234 -1.24889 718.085 -2.12683 757.855 16.3099C807.567 39.3558 799.958 91.4833 800.465 96.9705C842.061 80.5091 862.351 113.981 868.439 121.114C893.802 95.3243 944.528 117.273 949.094 121.114C947.572 104.652 967.355 99.1653 977.501 96.9705C973.848 79.4117 977.67 62.5845 980.037 56.3658C980.544 54.5368 984.095 47.6962 994.24 34.9661C1004.39 22.236 1028.57 25.2722 1039.39 28.3815C1039.56 22.5286 1045.47 11.5909 1067.79 14.6637C1095.69 18.5047 1101.78 54.7197 1099.75 68.9862C1110.4 67.8887 1120.55 80.5091 1124.1 83.8014C1128.16 54.3904 1149.13 43.0138 1159.1 41.0019C1171.11 38.4412 1201.61 39.0265 1227.58 61.8529C1253.55 84.6793 1248.89 117.821 1243.31 131.539C1262.08 128.247 1270.7 139.221 1273.74 144.16C1281.45 129.235 1303 133.551 1312.8 137.575C1314.32 126.967 1326.19 109.152 1361.5 122.76C1405.63 139.77 1399.04 181.472 1397.01 190.251C1403.1 178.399 1427.95 179.46 1439.62 181.472C1490.35 191.898 1507.59 234.697 1509.62 238.538C1511.25 224.93 1527.21 202.506 1534.99 192.995C1542.09 182.752 1567.15 161.609 1610.57 158.975C1664.85 155.683 1702.38 185.313 1704.41 187.508C1711.72 183.557 1721.66 192.08 1725.72 196.836C1731.97 191.532 1751.89 182.24 1781.52 187.508C1818.55 194.092 1823.62 242.928 1824.63 248.963C1828.16 226.079 1856.2 236.199 1859.57 237.416L1859.64 237.441C1852.74 216.809 1868.26 210.919 1876.88 210.554C1866.4 195.19 1847.97 155.463 1858.11 119.468Z" fill="#EAE9FF"/>
</svg>
