<svg width="1920" height="214" viewBox="0 0 1920 214" fill="none" xmlns="http://www.w3.org/2000/svg">
<path d="M1858.11 120.388C1868.26 148.593 1903.6 158.511 1920 159.944V0H0V146.185C13.6962 172.843 54.7847 163.814 57.321 159.514C77.6116 170.177 92.4914 157.078 97.395 149.195C107.54 159.944 109.569 147.905 124.28 142.746C151.165 188.321 209.501 143.606 225.733 127.697C239.125 142.832 266.145 135.15 277.982 129.417C284.914 140.309 313.997 164.33 374.869 173.273C435.741 182.216 476.999 157.221 490.018 143.606C487.82 153.638 491.033 176.024 521.469 185.312C559.514 196.92 598.573 177.572 601.11 173.703C603.646 180.582 625.458 182.732 629.516 182.732C641.691 203.026 670.098 211.252 682.779 212.829C691.234 214.979 718.085 215.667 757.855 201.22C807.567 183.162 799.958 142.316 800.465 138.016C842.061 150.915 862.351 124.688 868.439 119.098C893.802 139.306 944.528 122.108 949.094 119.098C947.572 131.997 967.355 136.296 977.501 138.016C973.848 151.775 977.67 164.96 980.037 169.833C980.544 171.266 984.095 176.626 994.24 186.601C1004.39 196.576 1028.57 194.197 1039.39 191.761C1039.56 196.347 1045.47 204.918 1067.79 202.51C1095.69 199.5 1101.78 171.123 1099.75 159.944C1110.4 160.804 1120.55 150.915 1124.1 148.335C1128.16 171.381 1149.13 180.295 1159.1 181.872C1171.11 183.878 1201.61 183.42 1227.58 165.534C1253.55 147.647 1248.89 121.678 1243.31 110.929C1262.08 113.509 1270.7 104.91 1273.74 101.04C1281.45 112.735 1303 109.352 1312.8 106.199C1314.32 114.512 1326.19 128.471 1361.5 117.808C1405.63 104.48 1399.04 71.8029 1397.01 64.9236C1403.1 74.2106 1427.95 73.3794 1439.62 71.8029C1490.35 63.6337 1507.59 30.097 1509.62 27.0873C1511.25 37.7503 1527.21 55.3212 1534.99 62.7738C1542.09 70.7997 1567.15 87.3673 1610.57 89.4311C1664.85 92.0109 1702.38 68.7932 1704.41 67.0734C1711.72 70.1691 1721.66 63.4904 1725.72 59.7641C1731.97 63.9203 1751.89 71.201 1781.52 67.0734C1818.55 61.9139 1823.62 23.6477 1824.63 18.9182C1828.16 36.8499 1856.2 28.9203 1859.57 27.9664L1859.64 27.9473C1852.74 44.1136 1868.26 48.7285 1876.88 49.0152C1866.4 61.054 1847.97 92.1829 1858.11 120.388Z" fill="url(#paint0_linear_64_67)" fill-opacity="0.2"/>
<defs>
<linearGradient id="paint0_linear_64_67" x1="0" y1="107" x2="1920" y2="107" gradientUnits="userSpaceOnUse">
<stop stop-color="#413ADA"/>
<stop offset="0.61" stop-color="#ED1566"/>
<stop offset="1" stop-color="#0EC167"/>
</linearGradient>
</defs>
</svg>
