<svg width="1920" height="174" viewBox="0 0 1920 174" fill="none" xmlns="http://www.w3.org/2000/svg">
<path d="M61.8865 76.1144C51.7411 53.1812 16.4016 45.1173 0 43.952V174H1920V55.1389C1906.3 33.4643 1865.22 40.8057 1862.68 44.3016C1842.39 35.6317 1827.51 46.2826 1822.61 52.6918C1812.46 43.952 1810.43 53.7406 1795.72 57.9357C1768.83 20.879 1710.5 57.2365 1694.27 70.1714C1680.88 57.8658 1653.85 64.1118 1642.02 68.773C1635.09 59.9167 1606 40.3862 1545.13 33.1147C1484.26 25.8432 1443 46.1661 1429.98 57.2365C1432.18 49.0794 1428.97 30.8773 1398.53 23.3261C1360.49 13.8872 1321.43 29.6188 1318.89 32.7651C1316.35 27.1716 1294.54 25.4237 1290.48 25.4237C1278.31 8.92297 1249.9 2.23411 1237.22 0.952271C1228.77 -0.795686 1201.91 -1.35503 1162.15 10.3912C1112.43 25.0741 1120.04 58.2853 1119.54 61.7812C1077.94 51.2934 1057.65 72.6185 1051.56 77.1632C1026.2 60.7324 975.472 74.716 970.906 77.1632C972.428 66.6754 952.645 63.1795 942.499 61.7812C946.152 50.5942 942.33 39.8734 939.963 35.9114C939.456 34.7461 935.905 30.3879 925.76 22.2773C915.614 14.1668 891.435 16.1012 880.613 18.0822C880.444 14.3533 874.526 7.38474 852.206 9.34245C824.307 11.7896 818.219 34.8626 820.248 43.952C809.596 43.2528 799.45 51.2934 795.9 53.391C791.842 34.6529 770.875 27.4047 760.898 26.1228C748.893 24.4914 718.389 24.8643 692.417 39.4073C666.445 53.9503 671.112 75.0656 676.692 83.8054C657.923 81.7078 649.3 88.6997 646.256 91.846C638.546 82.3371 617.004 85.0872 607.197 87.6509C605.675 80.8921 593.805 69.5421 558.499 78.2119C514.367 89.0493 520.962 115.618 522.991 121.212C516.904 113.661 492.047 114.336 480.38 115.618C429.654 122.26 412.407 149.529 410.378 151.976C408.755 143.306 392.793 129.019 385.015 122.96C377.913 116.434 352.854 102.963 309.432 101.285C255.155 99.1874 217.617 118.065 215.588 119.464C208.283 116.947 198.341 122.377 194.283 125.407C188.026 122.027 168.108 116.108 138.484 119.464C101.453 123.659 96.3805 154.772 95.366 158.618C91.84 144.038 63.8047 150.485 60.4324 151.261L60.3646 151.277C67.2634 138.132 51.7411 134.38 43.1177 134.147C53.6011 124.358 72.0317 99.0476 61.8865 76.1144Z" fill="#FFF9EB"/>
</svg>
