<svg width="406" height="48" viewBox="0 0 406 48" fill="none" xmlns="http://www.w3.org/2000/svg">
<path d="M13.1839 47.6C10.5039 47.6 8.02391 47.08 5.74391 46.04C3.50391 45 1.66391 43.5 0.223906 41.54L4.66391 36.2C5.82391 37.8 7.08391 39 8.44391 39.8C9.84391 40.6 11.3639 41 13.0039 41C17.3639 41 19.5439 38.42 19.5439 33.26V11.54H4.60391V5H27.3439V32.84C27.3439 37.8 26.1239 41.5 23.6839 43.94C21.2839 46.38 17.7839 47.6 13.1839 47.6ZM51.9645 47.42C48.6845 47.42 45.7645 46.72 43.2045 45.32C40.6445 43.88 38.6245 41.92 37.1445 39.44C35.6645 36.96 34.9245 34.14 34.9245 30.98C34.9245 27.78 35.6645 24.96 37.1445 22.52C38.6245 20.04 40.6445 18.1 43.2045 16.7C45.7645 15.3 48.6845 14.6 51.9645 14.6C55.2845 14.6 58.2245 15.3 60.7845 16.7C63.3845 18.1 65.4045 20.02 66.8445 22.46C68.3245 24.9 69.0645 27.74 69.0645 30.98C69.0645 34.14 68.3245 36.96 66.8445 39.44C65.4045 41.92 63.3845 43.88 60.7845 45.32C58.2245 46.72 55.2845 47.42 51.9645 47.42ZM51.9645 41C53.8045 41 55.4445 40.6 56.8845 39.8C58.3245 39 59.4445 37.84 60.2445 36.32C61.0845 34.8 61.5045 33.02 61.5045 30.98C61.5045 28.9 61.0845 27.12 60.2445 25.64C59.4445 24.12 58.3245 22.96 56.8845 22.16C55.4445 21.36 53.8245 20.96 52.0245 20.96C50.1845 20.96 48.5445 21.36 47.1045 22.16C45.7045 22.96 44.5845 24.12 43.7445 25.64C42.9045 27.12 42.4845 28.9 42.4845 30.98C42.4845 33.02 42.9045 34.8 43.7445 36.32C44.5845 37.84 45.7045 39 47.1045 39.8C48.5445 40.6 50.1645 41 51.9645 41ZM76.2364 47V14.96H83.7364V47H76.2364ZM80.0164 9.68C78.6164 9.68 77.4564 9.24 76.5364 8.36C75.6564 7.48 75.2164 6.42 75.2164 5.18C75.2164 3.9 75.6564 2.84 76.5364 2C77.4564 1.12 78.6164 0.679999 80.0164 0.679999C81.4164 0.679999 82.5564 1.1 83.4364 1.94C84.3564 2.74 84.8164 3.76 84.8164 5C84.8164 6.32 84.3764 7.44 83.4964 8.36C82.6164 9.24 81.4564 9.68 80.0164 9.68ZM111.76 14.6C114.32 14.6 116.6 15.1 118.6 16.1C120.64 17.1 122.24 18.64 123.4 20.72C124.56 22.76 125.14 25.4 125.14 28.64V47H117.64V29.6C117.64 26.76 116.96 24.64 115.6 23.24C114.28 21.84 112.42 21.14 110.02 21.14C108.26 21.14 106.7 21.5 105.34 22.22C103.98 22.94 102.92 24.02 102.16 25.46C101.44 26.86 101.08 28.64 101.08 30.8V47H93.5802V14.96H100.72V23.6L99.4602 20.96C100.58 18.92 102.2 17.36 104.32 16.28C106.48 15.16 108.96 14.6 111.76 14.6ZM160.476 47V11.6H146.556V5H182.196V11.6H168.276V47H160.476ZM205.51 14.6C208.07 14.6 210.35 15.1 212.35 16.1C214.39 17.1 215.99 18.64 217.15 20.72C218.31 22.76 218.89 25.4 218.89 28.64V47H211.39V29.6C211.39 26.76 210.71 24.64 209.35 23.24C208.03 21.84 206.17 21.14 203.77 21.14C202.01 21.14 200.45 21.5 199.09 22.22C197.73 22.94 196.67 24.02 195.91 25.46C195.19 26.86 194.83 28.64 194.83 30.8V47H187.33V2.48H194.83V23.6L193.21 20.96C194.33 18.92 195.95 17.36 198.07 16.28C200.23 15.16 202.71 14.6 205.51 14.6ZM243.523 47.42C239.963 47.42 236.843 46.72 234.163 45.32C231.523 43.88 229.463 41.92 227.983 39.44C226.543 36.96 225.823 34.14 225.823 30.98C225.823 27.78 226.523 24.96 227.923 22.52C229.363 20.04 231.323 18.1 233.803 16.7C236.323 15.3 239.183 14.6 242.383 14.6C245.503 14.6 248.283 15.28 250.723 16.64C253.163 18 255.083 19.92 256.483 22.4C257.883 24.88 258.583 27.8 258.583 31.16C258.583 31.48 258.563 31.84 258.523 32.24C258.523 32.64 258.503 33.02 258.463 33.38H231.763V28.4H254.503L251.563 29.96C251.603 28.12 251.223 26.5 250.423 25.1C249.623 23.7 248.523 22.6 247.123 21.8C245.763 21 244.183 20.6 242.383 20.6C240.543 20.6 238.923 21 237.523 21.8C236.163 22.6 235.083 23.72 234.283 25.16C233.523 26.56 233.143 28.22 233.143 30.14V31.34C233.143 33.26 233.583 34.96 234.463 36.44C235.343 37.92 236.583 39.06 238.183 39.86C239.783 40.66 241.623 41.06 243.703 41.06C245.503 41.06 247.123 40.78 248.563 40.22C250.003 39.66 251.283 38.78 252.403 37.58L256.423 42.2C254.983 43.88 253.163 45.18 250.963 46.1C248.803 46.98 246.323 47.42 243.523 47.42ZM312.609 5H320.409V47H312.609V5ZM290.889 47H283.089V5H290.889V47ZM313.209 29H290.229V22.34H313.209V29ZM344.503 47.42C341.783 47.42 339.383 46.92 337.303 45.92C335.223 44.88 333.603 43.32 332.443 41.24C331.283 39.12 330.703 36.46 330.703 33.26V14.96H338.203V32.24C338.203 35.12 338.843 37.28 340.123 38.72C341.443 40.12 343.303 40.82 345.703 40.82C347.463 40.82 348.983 40.46 350.263 39.74C351.583 39.02 352.603 37.94 353.323 36.5C354.083 35.06 354.463 33.28 354.463 31.16V14.96H361.963V47H354.823V38.36L356.083 41C355.003 43.08 353.423 44.68 351.343 45.8C349.263 46.88 346.983 47.42 344.503 47.42ZM389.543 47.42C386.823 47.42 384.403 46.82 382.283 45.62C380.163 44.42 378.483 42.62 377.243 40.22C376.043 37.78 375.443 34.7 375.443 30.98C375.443 27.22 376.063 24.14 377.303 21.74C378.583 19.34 380.283 17.56 382.403 16.4C384.563 15.2 386.943 14.6 389.543 14.6C392.703 14.6 395.483 15.28 397.883 16.64C400.323 18 402.243 19.9 403.643 22.34C405.083 24.78 405.803 27.66 405.803 30.98C405.803 34.3 405.083 37.18 403.643 39.62C402.243 42.06 400.323 43.98 397.883 45.38C395.483 46.74 392.703 47.42 389.543 47.42ZM371.783 47V2.48H379.283V22.4L378.683 30.92L378.923 39.44V47H371.783ZM388.703 41C390.503 41 392.103 40.6 393.503 39.8C394.943 39 396.083 37.84 396.923 36.32C397.763 34.8 398.183 33.02 398.183 30.98C398.183 28.9 397.763 27.12 396.923 25.64C396.083 24.12 394.943 22.96 393.503 22.16C392.103 21.36 390.503 20.96 388.703 20.96C386.903 20.96 385.283 21.36 383.843 22.16C382.403 22.96 381.263 24.12 380.423 25.64C379.583 27.12 379.163 28.9 379.163 30.98C379.163 33.02 379.583 34.8 380.423 36.32C381.263 37.84 382.403 39 383.843 39.8C385.283 40.6 386.903 41 388.703 41Z" fill="url(#paint0_linear_75_119)"/>
<defs>
<linearGradient id="paint0_linear_75_119" x1="1" y1="26" x2="408" y2="26" gradientUnits="userSpaceOnUse">
<stop stop-color="#F65B35"/>
<stop offset="0.5" stop-color="white"/>
<stop offset="1" stop-color="#0EC167"/>
</linearGradient>
</defs>
</svg>
