<svg width="1309" height="615" viewBox="0 0 1309 615" fill="none" xmlns="http://www.w3.org/2000/svg">
<path d="M28.6951 104.015C5.68665 156.037 0.685126 302.08 0.685126 302.08C-6.34962 411.124 41.7154 538.977 102.223 580.802C150.629 614.262 333.488 592.943 390.328 599.416C528.762 613.855 937.479 625.706 1142.1 599.416C1346.73 573.125 1306.45 438.683 1304.61 390.385C1301.86 356.526 1295.81 283.73 1293.61 263.415C1290.86 238.021 1285.97 127.125 1244.14 52.9481C1206.63 -21.5051 657.313 2.60813 535.381 8.08524C494.126 10.0769 401.595 8.08525 251.277 8.08526C117.728 8.08526 51.7035 51.9935 28.6951 104.015Z" fill="#FF4040"/>
</svg>
