<svg width="1311" height="617" viewBox="0 0 1311 617" fill="none" xmlns="http://www.w3.org/2000/svg">
<path d="M29.6951 105.015C6.68665 157.037 1.68513 303.08 1.68513 303.08C-5.34962 412.124 42.7154 539.977 103.223 581.802C151.629 615.262 334.488 593.943 391.328 600.416C529.762 614.855 938.479 626.706 1143.1 600.416C1347.73 574.125 1307.45 439.683 1305.61 391.385C1302.86 357.526 1296.81 284.73 1294.61 264.415C1291.86 239.021 1286.97 128.125 1245.14 53.9481C1207.63 -20.5051 658.313 3.60813 536.381 9.08524C495.126 11.0769 402.595 9.08525 252.277 9.08526C118.728 9.08526 52.7035 52.9935 29.6951 105.015Z" stroke="black" stroke-dasharray="8 8"/>
</svg>
