<svg width="1920" height="249" viewBox="0 0 1920 249" fill="none" xmlns="http://www.w3.org/2000/svg">
<path d="M1858.11 140.078C1868.26 172.896 1903.6 184.436 1920 186.103V-1.52588e-05H0V170.094C13.6962 201.111 54.7847 190.606 57.321 185.603C77.6116 198.01 92.4914 182.768 97.395 173.596C107.54 186.103 109.569 172.095 124.28 166.092C151.165 219.121 209.501 167.093 225.733 148.582C239.125 166.192 266.145 157.254 277.982 150.583C284.914 163.257 313.997 191.206 374.869 201.612C435.741 212.018 476.999 182.935 490.018 167.093C487.82 178.766 491.033 204.814 521.469 215.619C559.514 229.127 598.573 206.615 601.11 202.112C603.646 210.116 625.458 212.618 629.516 212.618C641.691 236.231 670.098 245.803 682.779 247.637C691.234 250.139 718.085 250.939 757.855 234.13C807.567 213.118 799.958 165.592 800.465 160.589C842.061 175.597 862.351 145.08 868.439 138.577C893.802 162.09 944.528 142.079 949.094 138.577C947.572 153.585 967.355 158.588 977.501 160.589C973.848 176.598 977.67 191.94 980.037 197.61C980.544 199.277 984.095 205.514 994.24 217.12C1004.39 228.727 1028.57 225.959 1039.39 223.124C1039.56 228.46 1045.47 238.432 1067.79 235.631C1095.69 232.129 1101.78 199.11 1099.75 186.103C1110.4 187.104 1120.55 175.597 1124.1 172.596C1128.16 199.411 1149.13 209.783 1159.1 211.617C1171.11 213.952 1201.61 213.418 1227.58 192.607C1253.55 171.795 1248.89 141.579 1243.31 129.072C1262.08 132.073 1270.7 122.068 1273.74 117.565C1281.45 131.173 1303 127.237 1312.8 123.569C1314.32 133.241 1326.19 149.483 1361.5 137.076C1405.63 121.567 1399.04 83.5463 1397.01 75.5419C1403.1 86.3479 1427.95 85.3807 1439.62 83.5463C1490.35 74.0411 1507.59 35.0194 1509.62 31.5175C1511.25 43.9244 1527.21 64.369 1534.99 73.0405C1542.09 82.379 1567.15 101.656 1610.57 104.058C1664.85 107.059 1702.38 80.0444 1704.41 78.0433C1711.72 81.6453 1721.66 73.8743 1725.72 69.5386C1731.97 74.3746 1751.89 82.8459 1781.52 78.0433C1818.55 72.04 1823.62 27.5153 1824.63 22.0122C1828.16 42.8767 1856.2 33.6503 1859.57 32.5403L1859.64 32.5181C1852.74 51.3285 1868.26 56.6981 1876.88 57.0316C1866.4 71.0394 1847.97 107.259 1858.11 140.078Z" fill="#FFECE8"/>
</svg>
