<svg width="1920" height="400" viewBox="0 0 1920 400" fill="none" xmlns="http://www.w3.org/2000/svg">
<path d="M-99.9612 83.5508C-111.935 58.3771 -153.643 49.5253 -173 48.2461V191H2093V60.5261C2076.84 36.7338 2028.34 44.7925 2025.35 48.6299C2001.4 39.113 1983.84 50.8045 1978.05 57.8399C1966.08 48.2462 1963.69 58.9911 1946.32 63.5961C1914.59 22.9189 1845.75 62.8286 1826.59 77.0272C1810.78 63.5193 1778.89 70.3756 1764.92 75.4922C1756.74 65.7706 1722.42 44.332 1650.58 36.35C1578.73 28.3681 1530.04 50.6766 1514.68 62.8286C1517.27 53.8745 1513.48 33.8941 1477.56 25.6051C1432.66 15.244 1386.56 32.5126 1383.57 35.9663C1380.57 29.8263 1354.83 27.9076 1350.04 27.9076C1335.67 9.79475 1302.15 2.45239 1287.18 1.04531C1277.2 -0.873425 1245.51 -1.48742 1198.57 11.4065C1139.9 27.5238 1148.88 63.9798 1148.28 67.8173C1099.19 56.3048 1075.25 79.7134 1068.06 84.7021C1038.13 66.666 978.26 82.0159 972.872 84.7021C974.668 73.1897 951.319 69.3522 939.346 67.8173C943.656 55.5374 939.146 43.7691 936.352 39.42C935.754 38.1408 931.563 33.3568 919.589 24.4539C907.616 15.5509 879.078 17.6743 866.307 19.8489C866.107 15.7556 859.123 8.10624 832.781 10.2552C799.853 12.9415 792.669 38.2687 795.064 48.2462C782.492 47.4787 770.518 56.3048 766.327 58.6073C761.538 38.0385 736.792 30.0821 725.018 28.6751C710.85 26.8842 674.849 27.2936 644.197 43.2574C613.544 59.2213 619.052 82.3996 625.638 91.9933C603.487 89.6908 593.309 97.3657 589.717 100.819C580.617 90.3815 555.193 93.4004 543.619 96.2145C541.823 88.7954 527.814 76.3364 486.146 85.8533C434.06 97.7495 441.843 126.914 444.238 133.054C437.054 124.765 407.718 125.507 393.949 126.914C334.081 134.205 313.726 164.138 311.331 166.824C309.416 157.307 290.577 141.625 281.397 134.973C273.016 127.81 243.441 113.023 192.194 111.181C128.135 108.878 83.8333 129.6 81.4386 131.135C72.8175 128.372 61.0835 134.333 56.2941 137.659C48.9103 133.95 25.4021 127.451 -9.56079 131.135C-53.2642 135.74 -59.251 169.894 -60.4485 174.115C-64.6099 158.111 -97.697 165.188 -101.677 166.039L-101.757 166.056C-93.6152 151.628 -111.935 147.509 -122.112 147.253C-109.74 136.508 -87.9875 108.725 -99.9612 83.5508Z" fill="#413ADB"/>
<path d="M-632.233 296.327C-647.113 327.564 -698.944 338.547 -723 340.134V163H2093V324.897C2072.91 354.419 2012.65 344.42 2008.93 339.658C1979.17 351.467 1957.35 336.96 1950.15 328.23C1935.27 340.134 1932.3 326.802 1910.72 321.088C1871.29 371.561 1785.73 322.04 1761.92 304.422C1742.28 321.183 1702.65 312.675 1685.29 306.326C1675.13 318.389 1632.47 344.991 1543.19 354.896C1453.91 364.8 1393.4 337.119 1374.31 322.04C1377.53 333.151 1372.82 357.943 1328.18 368.228C1272.38 381.085 1215.09 359.657 1211.37 355.372C1207.65 362.99 1175.66 365.371 1169.71 365.371C1151.85 387.846 1110.19 396.957 1091.59 398.703C1079.19 401.084 1039.81 401.846 981.48 385.846C908.569 365.847 919.729 320.611 918.985 315.85C857.978 330.135 828.218 301.089 819.29 294.898C782.091 317.278 707.692 298.232 700.996 294.898C703.228 309.183 674.212 313.945 659.333 315.85C664.689 331.087 659.084 345.69 655.613 351.086C654.869 352.673 649.661 358.61 634.781 369.657C619.901 380.704 584.438 378.069 568.566 375.371C568.318 380.45 559.638 389.941 526.902 387.275C485.983 383.942 477.055 352.515 480.031 340.134C464.407 341.087 449.527 330.135 444.319 327.278C438.368 352.8 407.616 362.673 392.984 364.419C375.376 366.641 330.638 366.133 292.546 346.325C254.453 326.516 261.298 297.755 269.482 285.851C241.954 288.708 229.307 279.185 224.843 274.899C213.534 287.851 181.939 284.105 167.555 280.613C165.323 289.819 147.914 305.279 96.1324 293.47C31.4053 278.709 41.0771 242.52 44.0532 234.901C35.1252 245.187 -1.33057 244.266 -18.4424 242.52C-92.8413 233.473 -118.136 196.332 -121.113 192.999C-123.493 204.808 -146.904 224.267 -158.312 232.52C-168.728 241.409 -205.481 259.757 -269.166 262.043C-348.773 264.9 -403.828 239.187 -406.804 237.282C-417.518 240.711 -432.1 233.314 -438.052 229.187C-447.228 233.79 -476.442 241.853 -519.891 237.282C-574.202 231.568 -581.642 189.189 -583.13 183.951C-588.302 203.81 -629.42 195.029 -634.366 193.972L-634.465 193.951C-624.347 211.855 -647.113 216.966 -659.761 217.283C-644.385 230.616 -617.354 265.09 -632.233 296.327Z" fill="#413ADB"/>
</svg>
