<svg width="1920" height="285" viewBox="0 0 1920 285" fill="none" xmlns="http://www.w3.org/2000/svg">
<path d="M2019.96 160.702C2031.93 198.153 2073.64 211.322 2093 213.225V0.850525H-173V194.956C-156.836 230.351 -108.343 218.363 -105.349 212.654C-81.4021 226.812 -63.8409 209.418 -58.0536 198.952C-46.08 213.224 -43.6853 197.239 -26.3236 190.389C5.40634 250.904 74.2544 191.53 93.4122 170.407C109.217 190.503 141.107 180.303 155.076 172.691C163.258 187.153 197.582 219.048 269.424 230.922C341.265 242.797 389.958 209.609 405.324 191.53C402.73 204.851 406.521 234.576 442.442 246.907C487.343 262.322 533.441 236.631 536.435 231.493C539.428 240.628 565.171 243.482 569.961 243.482C584.329 270.428 617.855 281.352 632.822 283.445C642.8 286.299 674.49 287.213 721.426 268.031C780.097 244.053 771.117 189.818 771.715 184.109C820.807 201.236 844.754 166.411 851.938 158.989C881.872 185.821 941.74 162.985 947.128 158.989C945.332 176.116 968.681 181.825 980.654 184.109C976.344 202.377 980.854 219.885 983.648 226.355C984.246 228.258 988.437 235.375 1000.41 248.62C1012.38 261.865 1040.92 258.706 1053.69 255.471C1053.89 261.561 1060.88 272.94 1087.22 269.743C1120.15 265.747 1127.33 228.068 1124.94 213.224C1137.51 214.366 1149.48 201.236 1153.67 197.81C1158.46 228.41 1183.21 240.247 1194.98 242.34C1209.15 245.004 1245.15 244.396 1275.8 220.646C1306.46 196.897 1300.95 162.415 1294.36 148.142C1316.51 151.568 1326.69 140.15 1330.28 135.012C1339.38 150.54 1364.81 146.049 1376.38 141.862C1378.18 152.9 1392.19 171.435 1433.85 157.277C1485.94 139.579 1478.16 96.1905 1475.76 87.0561C1482.95 99.3875 1512.28 98.2838 1526.05 96.1905C1585.92 85.3434 1606.27 40.8134 1608.67 36.8171C1610.58 50.9754 1629.42 74.3061 1638.6 84.2016C1646.98 94.8584 1676.56 116.857 1727.81 119.597C1791.86 123.023 1836.17 92.1942 1838.56 89.9106C1847.18 94.0211 1858.92 85.1531 1863.71 80.2054C1871.09 85.724 1894.6 95.3912 1929.56 89.9106C1973.26 83.0598 1979.25 32.2499 1980.45 25.9701C1984.61 49.7798 2017.7 39.2509 2021.68 37.9843L2021.76 37.9589C2013.62 59.4247 2031.93 65.5523 2042.11 65.9329C2029.74 81.918 2007.99 123.251 2019.96 160.702Z" fill="#FFF1CF"/>
</svg>
