<svg width="1920" height="128" viewBox="0 0 1920 128" fill="none" xmlns="http://www.w3.org/2000/svg">
<path d="M-256.414 0.0234985C-322.495 0.0234985 -334 127.81 -334 127.81H2122C2122 127.81 2111.93 0.0234985 2048.65 0.0234985C2009.24 0.0234985 2000.56 50.1483 1961.15 50.5553C1922.86 50.5553 1905.5 -0.726639 1858.81 0.0234985C1819.41 0.656616 1810.72 50.1483 1771.31 50.5553C1734.18 50.5553 1716.22 -0.716171 1670.19 0.0234985C1630.78 0.656616 1622.09 50.1483 1582.69 50.5553C1542.56 50.9698 1533.17 -1.26663 1493.06 0.0234985C1455.1 1.24462 1447.76 49.1704 1409.8 50.5553C1369.39 52.0297 1359.71 -0.568604 1319.27 0.0234985C1279.87 0.600533 1271.18 50.5553 1231.77 50.5553C1192.36 50.5553 1189.21 0.0234985 1149.8 0.0234985C1110.39 0.0234985 1112.37 50.5553 1068.31 50.5553C1024.24 50.5553 1031.65 0.0234985 992.245 0.0234985C952.836 0.0234985 951.089 50.1483 911.684 50.5553C873.393 50.5553 856.032 -0.726639 809.347 0.0234985C769.944 0.656616 761.25 50.1483 721.845 50.5553C684.714 50.5553 666.753 -0.716171 620.719 0.0234985C581.317 0.656616 572.623 50.1483 533.218 50.5553C493.093 50.9698 483.703 -1.26663 443.597 0.0234985C405.635 1.24462 398.29 49.1704 360.334 50.5553C319.924 52.0297 310.238 -0.568604 269.805 0.0234985C230.402 0.600533 221.711 50.5553 182.304 50.5553C142.896 50.5553 134.21 0.0234985 94.8023 0.0234985C55.3949 0.0234985 46.7076 50.3209 7.3009 50.5553C-32.5166 50.7921 -41.5963 -0.455154 -81.4116 0.0234985C-120.407 0.492302 -128.707 50.0865 -167.702 50.5553C-207.517 51.034 -216.538 0.0234985 -256.414 0.0234985Z" fill="#FFF1CF"/>
</svg>
