<svg width="1309" height="645" viewBox="0 0 1309 645" fill="none" xmlns="http://www.w3.org/2000/svg">
<path d="M28.6846 108.97C5.68457 163.47 0.684875 316.47 0.684875 316.47C-6.34729 430.709 41.7001 564.653 102.185 608.47C150.573 643.524 333.366 621.189 390.185 627.97C528.568 643.098 937.136 655.513 1141.69 627.97C1346.24 600.428 1305.97 459.581 1304.14 408.982C1301.39 373.51 1295.34 297.247 1293.14 275.964C1290.39 249.36 1285.5 133.181 1243.69 55.4704C1206.18 -22.5296 657.072 2.73233 535.185 8.47037C493.945 10.5569 401.448 8.47038 251.185 8.47039C117.685 8.47039 51.6846 54.4704 28.6846 108.97Z" fill="#FFD3CA"/>
</svg>
