<svg width="1920" height="215" viewBox="0 0 1920 215" fill="none" xmlns="http://www.w3.org/2000/svg">
<path d="M61.8865 94.0494C51.7411 65.7124 16.4016 55.7484 0 54.3085V215H1920V68.1315C1906.3 41.3495 1865.22 50.4208 1862.68 54.7405C1842.39 44.0277 1827.51 57.1883 1822.61 65.1077C1812.46 54.3085 1810.43 66.4036 1795.72 71.5872C1768.83 25.7988 1710.5 70.7233 1694.27 86.706C1680.88 71.5008 1653.85 79.2186 1642.02 84.9781C1635.09 74.035 1606 49.9025 1545.13 40.9176C1484.26 31.9327 1443 57.0443 1429.98 70.7233C1432.18 60.644 1428.97 38.153 1398.53 28.8225C1360.49 17.1594 1321.43 36.5979 1318.89 40.4856C1316.35 33.5742 1294.54 31.4143 1290.48 31.4143C1278.31 11.0255 1249.9 2.76054 1237.22 1.17666C1228.77 -0.983175 1201.91 -1.67432 1162.15 12.8397C1112.43 30.9823 1120.04 72.0191 1119.54 76.3388C1077.94 63.3798 1057.65 89.7298 1051.56 95.3453C1026.2 75.0429 975.472 92.3215 970.906 95.3453C972.428 82.3863 952.645 78.0667 942.499 76.3388C946.152 62.5159 942.33 49.2689 939.963 44.3733C939.456 42.9334 935.905 37.5482 925.76 27.5266C915.614 17.505 891.435 19.8952 880.613 22.343C880.444 17.7354 874.526 9.12483 852.206 11.5438C824.307 14.5676 818.219 43.0774 820.248 54.3085C809.596 53.4446 799.45 63.3798 795.9 65.9716C791.842 42.8182 770.875 33.8621 760.898 32.2782C748.893 30.2624 718.389 30.7231 692.417 48.6929C666.445 66.6627 671.112 92.7535 676.692 103.553C657.923 100.961 649.3 109.6 646.256 113.488C638.546 101.738 617.004 105.137 607.197 108.304C605.675 99.9529 593.805 85.9284 558.499 96.6412C514.367 110.032 520.962 142.862 522.991 149.773C516.904 140.443 492.047 141.278 480.38 142.862C429.654 151.069 412.407 184.762 410.378 187.786C408.755 177.073 392.793 159.42 385.015 151.933C377.913 143.87 352.854 127.224 309.432 125.151C255.155 122.559 217.617 145.885 215.588 147.613C208.283 144.503 198.341 151.213 194.283 154.957C188.026 150.781 168.108 143.466 138.484 147.613C101.453 152.797 96.3805 191.242 95.366 195.993C91.84 177.978 63.8047 185.945 60.4324 186.903L60.3646 186.922C67.2634 170.68 51.7411 166.044 43.1177 165.756C53.6011 153.661 72.0317 122.386 61.8865 94.0494Z" fill="url(#paint0_linear_65_147)" fill-opacity="0.2"/>
<defs>
<linearGradient id="paint0_linear_65_147" x1="1920" y1="107.5" x2="0" y2="107.5" gradientUnits="userSpaceOnUse">
<stop stop-color="#413ADA"/>
<stop offset="0.61" stop-color="#ED1566"/>
<stop offset="1" stop-color="#0EC167"/>
</linearGradient>
</defs>
</svg>
